<svg xmlns="http://www.w3.org/2000/svg" viewBox="0 0 500 500"><g id="freepik--Boxes--inject-284"><polygon points="264.7 184.07 231.48 164.76 225.32 161.19 225.32 161.19 199.84 146.38 134.57 184.07 134.74 243.31 199.59 280.99 264.87 243.31 264.7 184.07" style="fill:#37474f"></polygon><polygon points="134.57 184.07 199.84 146.38 264.7 184.07 199.42 221.76 134.57 184.07" style="fill:#455a64"></polygon><polygon points="199.42 221.76 199.59 280.99 134.74 243.31 134.57 184.07 199.42 221.76" style="fill:#455a64"></polygon><polygon points="264.7 184.07 264.87 243.31 199.59 280.99 199.42 221.76 264.7 184.07" style="fill:#455a64"></polygon><polygon points="134.57 184.07 199.84 146.38 264.7 184.07 199.42 221.76 134.57 184.07" style="fill:#fff;opacity:0.2"></polygon><polygon points="264.7 184.07 264.87 243.31 199.59 280.99 199.42 221.76 264.7 184.07" style="opacity:0.1"></polygon><polygon points="225.32 161.19 237.95 168.53 172.68 206.22 160.05 198.88 225.32 161.19" style="fill:#fff;opacity:0.30000000000000004"></polygon><polygon points="160.05 221.76 172.68 229.1 172.68 206.22 160.05 198.88 160.05 221.76" style="fill:#fff;opacity:0.30000000000000004"></polygon><polygon points="160.05 257.97 172.68 265.31 172.68 250.2 160.05 242.86 160.05 257.97" style="fill:#fff;opacity:0.30000000000000004"></polygon><polygon points="213.31 209.13 199.67 201.26 186.13 209.13 199.76 217.01 213.31 209.13" style="fill:#fff;opacity:0.4"></polygon><polygon points="101.71 201.84 76.23 216.64 76.23 216.64 73.46 218.25 36.86 239.52 36.69 298.76 101.97 336.45 166.82 298.76 166.99 239.52 101.71 201.84" style="fill:#37474f"></polygon><polygon points="166.99 239.52 101.71 201.84 36.86 239.52 102.14 277.21 166.99 239.52" style="fill:#455a64"></polygon><polygon points="102.14 277.21 101.97 336.45 166.82 298.76 166.99 239.52 102.14 277.21" style="fill:#455a64"></polygon><polygon points="36.86 239.52 36.69 298.76 101.97 336.45 102.14 277.21 36.86 239.52" style="fill:#455a64"></polygon><polygon points="166.99 239.52 101.71 201.84 36.86 239.52 102.14 277.21 166.99 239.52" style="fill:#fff;opacity:0.4"></polygon><polygon points="36.86 239.52 36.69 298.76 101.97 336.45 102.14 277.21 36.86 239.52" style="fill:#fff;opacity:0.30000000000000004"></polygon><polygon points="76.23 216.64 63.6 223.98 128.88 261.67 141.51 254.33 76.23 216.64" style="fill:#fff;opacity:0.30000000000000004"></polygon><polygon points="141.51 277.21 128.88 284.55 128.88 261.67 141.51 254.33 141.51 277.21" style="fill:#fff;opacity:0.30000000000000004"></polygon><polygon points="141.51 313.42 128.88 320.76 128.88 305.65 141.51 298.31 141.51 313.42" style="fill:#fff;opacity:0.30000000000000004"></polygon><polygon points="127.21 201.47 107.6 190.07 101.58 186.57 101.58 186.57 84.99 176.93 42.5 201.47 42.61 240.02 84.83 264.56 127.32 240.03 127.21 201.47" style="fill:#B63E3E"></polygon><polygon points="42.5 201.47 84.99 176.93 127.21 201.47 84.72 226 42.5 201.47" style="fill:#B63E3E"></polygon><polygon points="84.72 226 84.83 264.56 42.61 240.02 42.5 201.47 84.72 226" style="fill:#B63E3E"></polygon><polygon points="127.21 201.47 127.32 240.03 84.83 264.56 84.72 226 127.21 201.47" style="fill:#B63E3E"></polygon><polygon points="42.5 201.47 84.99 176.93 127.21 201.47 84.72 226 42.5 201.47" style="fill:#fff;opacity:0.4"></polygon><polygon points="84.72 226 84.83 264.56 42.61 240.02 42.5 201.47 84.72 226" style="fill:#fff;opacity:0.1"></polygon><polygon points="127.21 201.47 127.32 240.03 84.83 264.56 84.72 226 127.21 201.47" style="fill:#fff;opacity:0.30000000000000004"></polygon><polygon points="101.58 186.57 109.8 191.35 67.31 215.88 59.09 211.1 101.58 186.57" style="fill:#fff;opacity:0.30000000000000004"></polygon><polygon points="59.09 226 67.31 230.78 67.31 215.88 59.09 211.1 59.09 226" style="fill:#fff;opacity:0.30000000000000004"></polygon><polygon points="59.09 249.57 67.31 254.35 67.31 244.51 59.09 239.74 59.09 249.57" style="fill:#fff;opacity:0.30000000000000004"></polygon><polygon points="120.83 201.18 111.96 196.06 103.14 201.18 112.02 206.31 120.83 201.18" style="fill:#fff;opacity:0.4"></polygon><polygon points="188.68 338.91 154.75 319.19 149.31 316.03 149.3 316.03 123.83 301.22 58.55 338.91 58.72 398.14 123.57 435.83 188.85 398.14 188.68 338.91" style="fill:#B63E3E"></polygon><polygon points="58.55 338.91 123.83 301.22 188.68 338.91 123.4 376.6 58.55 338.91" style="fill:#B63E3E"></polygon><polygon points="123.4 376.6 123.57 435.83 58.72 398.14 58.55 338.91 123.4 376.6" style="fill:#B63E3E"></polygon><polygon points="188.68 338.91 188.85 398.14 123.57 435.83 123.4 376.6 188.68 338.91" style="fill:#B63E3E"></polygon><polygon points="58.55 338.91 123.83 301.22 188.68 338.91 123.4 376.6 58.55 338.91" style="fill:#fff;opacity:0.2"></polygon><polygon points="188.68 338.91 188.85 398.14 123.57 435.83 123.4 376.6 188.68 338.91" style="opacity:0.1"></polygon><polygon points="149.31 316.03 161.93 323.37 96.66 361.06 84.03 353.72 149.31 316.03" style="fill:#fff;opacity:0.30000000000000004"></polygon><polygon points="84.03 376.6 96.66 383.94 96.66 361.06 84.03 353.72 84.03 376.6" style="fill:#fff;opacity:0.30000000000000004"></polygon><polygon points="84.03 412.81 96.66 420.15 96.66 405.04 84.03 397.7 84.03 412.81" style="fill:#fff;opacity:0.30000000000000004"></polygon><polygon points="94.97 337.8 81.34 329.93 67.79 337.8 81.43 345.67 94.97 337.8" style="fill:#fff;opacity:0.4"></polygon><polygon points="224.65 332.22 199.17 347.02 199.17 347.02 193.72 350.19 159.79 369.9 159.62 429.14 224.9 466.83 289.75 429.14 289.92 369.9 224.65 332.22" style="fill:#B63E3E"></polygon><polygon points="289.92 369.9 224.65 332.22 159.79 369.9 225.07 407.59 289.92 369.9" style="fill:#B63E3E"></polygon><polygon points="225.07 407.59 224.9 466.83 289.75 429.14 289.92 369.9 225.07 407.59" style="fill:#B63E3E"></polygon><polygon points="159.79 369.9 159.62 429.14 224.9 466.83 225.07 407.59 159.79 369.9" style="fill:#B63E3E"></polygon><polygon points="289.92 369.9 224.65 332.22 159.79 369.9 225.07 407.59 289.92 369.9" style="fill:#fff;opacity:0.2"></polygon><polygon points="159.79 369.9 159.62 429.14 224.9 466.83 225.07 407.59 159.79 369.9" style="fill:#fff;opacity:0.1"></polygon><polygon points="199.17 347.02 186.54 354.36 251.81 392.05 264.44 384.71 199.17 347.02" style="fill:#fff;opacity:0.30000000000000004"></polygon><polygon points="264.44 407.59 251.81 414.93 251.81 392.05 264.44 384.71 264.44 407.59" style="fill:#fff;opacity:0.30000000000000004"></polygon><polygon points="264.44 443.81 251.81 451.14 251.81 436.03 264.44 428.69 264.44 443.81" style="fill:#fff;opacity:0.30000000000000004"></polygon><polygon points="224.67 292.42 204.46 304.17 204.46 304.17 198.29 307.75 173.21 322.32 173.08 369.32 224.88 399.23 276.33 369.32 276.47 322.32 224.67 292.42" style="fill:#37474f"></polygon><polygon points="276.47 322.32 224.67 292.42 173.21 322.32 225.01 352.23 276.47 322.32" style="fill:#455a64"></polygon><polygon points="225.01 352.23 224.88 399.23 276.33 369.32 276.47 322.32 225.01 352.23" style="fill:#455a64"></polygon><polygon points="173.21 322.32 173.08 369.32 224.88 399.23 225.01 352.23 173.21 322.32" style="fill:#455a64"></polygon><polygon points="276.47 322.32 224.67 292.42 173.21 322.32 225.01 352.23 276.47 322.32" style="fill:#fff;opacity:0.4"></polygon><polygon points="225.01 352.23 224.88 399.23 276.33 369.32 276.47 322.32 225.01 352.23" style="fill:#fff;opacity:0.1"></polygon><polygon points="173.21 322.32 173.08 369.32 224.88 399.23 225.01 352.23 173.21 322.32" style="fill:#fff;opacity:0.30000000000000004"></polygon><polygon points="204.46 304.17 194.43 309.99 246.23 339.89 256.25 334.07 204.46 304.17" style="fill:#fff;opacity:0.30000000000000004"></polygon><polygon points="256.25 352.23 246.23 358.05 246.23 339.89 256.25 334.07 256.25 352.23" style="fill:#fff;opacity:0.30000000000000004"></polygon><polygon points="256.25 380.96 246.23 386.78 246.23 374.79 256.25 368.97 256.25 380.96" style="fill:#fff;opacity:0.30000000000000004"></polygon><polygon points="235.62 342.38 224.81 336.13 214.06 342.38 224.88 348.62 235.62 342.38" style="fill:#fff;opacity:0.4"></polygon></g></svg>