<svg width="500" height="500" viewBox="0 0 500 500" fill="none" xmlns="http://www.w3.org/2000/svg">
<path d="M280.56 271.12C236.56 260.33 218.65 200.8 223.99 162.77C229.23 125.39 254.68 87.77 201.99 65.55C162.58 48.88 115.54 76.64 104.37 113.75C90.83 158.75 147.37 161.87 152.82 200.92C156.69 228.52 124.4 240 123.25 265.47C120.68 322.09 191.89 297.75 215.57 321.03C231.7 336.89 232.13 358.53 256.38 369.53C278.02 379.35 301.5 373.88 318.97 361.14C367.24 326 328.67 282.89 280.56 271.12Z" fill="#E33737"/>
<g opacity="0.9">
<path d="M280.56 271.12C236.56 260.33 218.65 200.8 223.99 162.77C229.23 125.39 254.68 87.77 201.99 65.55C162.58 48.88 115.54 76.64 104.37 113.75C90.83 158.75 147.37 161.87 152.82 200.92C156.69 228.52 124.4 240 123.25 265.47C120.68 322.09 191.89 297.75 215.57 321.03C231.7 336.89 232.13 358.53 256.38 369.53C278.02 379.35 301.5 373.88 318.97 361.14C367.24 326 328.67 282.89 280.56 271.12Z" fill="white"/>
</g>
<path d="M250 427.56C357.082 427.56 443.89 422.492 443.89 416.24C443.89 409.988 357.082 404.92 250 404.92C142.917 404.92 56.11 409.988 56.11 416.24C56.11 422.492 142.917 427.56 250 427.56Z" fill="#F5F5F5"/>
<path d="M191.71 146.13L187.17 140.57L180.83 144.57C180.83 144.57 183.73 147.67 187.25 152L191.71 146.13Z" fill="#B55B52"/>
<path d="M248.32 146.58C248.06 147.14 247.88 147.48 247.66 147.91L247.03 149.11C246.6 149.9 246.18 150.68 245.73 151.45C244.85 152.983 243.927 154.49 242.96 155.97C241.016 159 238.872 161.897 236.54 164.64C234.069 167.567 231.286 170.216 228.24 172.54C226.555 173.785 224.761 174.876 222.88 175.8L221.37 176.47L219.78 177.06C219.25 177.25 218.68 177.39 218.12 177.55L217.7 177.67L217.1 177.8C216.66 177.89 216.23 177.95 215.81 178C214.28 178.15 212.736 178.069 211.23 177.76C209.996 177.518 208.787 177.159 207.62 176.69C205.674 175.893 203.811 174.905 202.06 173.74C199.029 171.696 196.176 169.402 193.53 166.88C190.96 164.49 188.58 162.02 186.3 159.5C185.16 158.23 184.03 156.97 182.93 155.67C181.83 154.37 180.78 153.12 179.64 151.67L190.7 143.09C191.56 144.18 192.59 145.43 193.58 146.58C194.57 147.73 195.58 148.91 196.64 150.04C198.74 152.29 200.89 154.46 203.1 156.45C205.182 158.362 207.428 160.088 209.81 161.61C210.758 162.217 211.763 162.729 212.81 163.14C213.67 163.47 214.31 163.46 214.12 163.41H214.02L214.19 163.36C214.41 163.27 214.62 163.22 214.85 163.13L215.52 162.84L216.22 162.49C217.22 161.936 218.17 161.297 219.06 160.58C221.104 158.88 222.946 156.95 224.55 154.83C226.304 152.547 227.898 150.144 229.32 147.64C230.053 146.36 230.743 145.06 231.39 143.74C231.72 143.09 232.04 142.43 232.39 141.74L232.83 140.74C232.96 140.44 233.13 140.05 233.2 139.87L248.32 146.58Z" fill="#E33737"/>
<path opacity="0.8" d="M248.32 146.58C248.06 147.14 247.88 147.48 247.66 147.91L247.03 149.11C246.6 149.9 246.18 150.68 245.73 151.45C244.85 152.983 243.927 154.49 242.96 155.97C241.016 159 238.872 161.897 236.54 164.64C234.069 167.567 231.286 170.216 228.24 172.54C226.555 173.785 224.761 174.876 222.88 175.8L221.37 176.47L219.78 177.06C219.25 177.25 218.68 177.39 218.12 177.55L217.7 177.67L217.1 177.8C216.66 177.89 216.23 177.95 215.81 178C214.28 178.15 212.736 178.069 211.23 177.76C209.996 177.518 208.787 177.159 207.62 176.69C205.674 175.893 203.811 174.905 202.06 173.74C199.029 171.696 196.176 169.402 193.53 166.88C190.96 164.49 188.58 162.02 186.3 159.5C185.16 158.23 184.03 156.97 182.93 155.67C181.83 154.37 180.78 153.12 179.64 151.67L190.7 143.09C191.56 144.18 192.59 145.43 193.58 146.58C194.57 147.73 195.58 148.91 196.64 150.04C198.74 152.29 200.89 154.46 203.1 156.45C205.182 158.362 207.428 160.088 209.81 161.61C210.758 162.217 211.763 162.729 212.81 163.14C213.67 163.47 214.31 163.46 214.12 163.41H214.02L214.19 163.36C214.41 163.27 214.62 163.22 214.85 163.13L215.52 162.84L216.22 162.49C217.22 161.936 218.17 161.297 219.06 160.58C221.104 158.88 222.946 156.95 224.55 154.83C226.304 152.547 227.898 150.144 229.32 147.64C230.053 146.36 230.743 145.06 231.39 143.74C231.72 143.09 232.04 142.43 232.39 141.74L232.83 140.74C232.96 140.44 233.13 140.05 233.2 139.87L248.32 146.58Z" fill="white"/>
<path d="M246.1 306.4H278.38L266.14 245.22H250.33L246.1 306.4Z" fill="#E33737"/>
<path opacity="0.6" d="M246.1 306.4H278.38L266.14 245.22H250.33L246.1 306.4Z" fill="white"/>
<path d="M253.02 407.1H244.79L244.44 388.05H252.67L253.02 407.1Z" fill="#B55B52"/>
<path d="M298.59 407.1H290.36L286.69 388.05H294.92L298.59 407.1Z" fill="#B55B52"/>
<path d="M289.8 406.15H299C299.162 406.149 299.319 406.204 299.445 406.306C299.571 406.409 299.658 406.551 299.69 406.71L301.13 414.02C301.163 414.2 301.155 414.385 301.107 414.562C301.06 414.739 300.973 414.903 300.855 415.043C300.736 415.182 300.588 415.294 300.421 415.37C300.255 415.445 300.073 415.483 299.89 415.48C296.67 415.43 295.11 415.24 291.04 415.24C288.54 415.24 283.38 415.5 279.93 415.5C276.48 415.5 276.11 412.09 277.53 411.78C283.9 410.39 286.34 408.48 288.41 406.65C288.798 406.321 289.292 406.144 289.8 406.15Z" fill="#263238"/>
<path d="M244.87 406.15H253.87C254.031 406.149 254.187 406.205 254.311 406.307C254.435 406.41 254.52 406.552 254.55 406.71L256 414C256.034 414.179 256.028 414.364 255.982 414.541C255.936 414.717 255.852 414.882 255.736 415.022C255.619 415.162 255.473 415.275 255.308 415.353C255.143 415.43 254.962 415.47 254.78 415.47C251.54 415.41 246.86 415.22 242.78 415.22C238.02 415.22 237.63 415.48 232.05 415.48C228.67 415.48 227.82 412.07 229.24 411.76C235.71 410.35 237.24 410.2 242.88 406.76C243.475 406.379 244.164 406.168 244.87 406.15Z" fill="#263238"/>
<path d="M184.1 138.67L178.78 138.59L177.78 145.45C181.167 146.069 184.66 145.723 187.86 144.45L187.77 142.22C187.729 141.271 187.326 140.374 186.643 139.713C185.96 139.053 185.05 138.679 184.1 138.67Z" fill="#B55B52"/>
<path d="M170.46 138.91L171.49 143.24L177.76 145.45L178.78 138.59L170.46 138.91Z" fill="#B55B52"/>
<path opacity="0.2" d="M244.44 388.06L244.62 397.88H252.85L252.67 388.06H244.44Z" fill="black"/>
<path opacity="0.2" d="M294.92 388.06H286.69L288.59 397.88H296.82L294.92 388.06Z" fill="black"/>
<path d="M234.73 141.47C232.45 150.19 228.36 172.19 232.83 207.18H276.83C277.26 201.05 274.46 173.32 279.41 144.45C279.618 143.275 279.584 142.069 279.308 140.908C279.033 139.746 278.523 138.653 277.809 137.697C277.095 136.74 276.192 135.94 275.157 135.345C274.122 134.751 272.976 134.375 271.79 134.24C270.08 134.05 268.27 133.89 266.48 133.8C260.33 133.629 254.176 133.829 248.05 134.4C245.437 134.649 242.851 135.125 240.32 135.82C238.973 136.186 237.747 136.901 236.765 137.893C235.783 138.885 235.081 140.119 234.73 141.47Z" fill="white"/>
<path d="M264.46 116.31C263.13 122.31 262.36 129.78 266.46 133.8C266.46 133.8 263.89 139.9 252.71 139.9C242.49 139.9 247.71 133.8 247.71 133.8C254.46 132.2 254.32 123.9 253.26 119.22L264.46 116.31Z" fill="#B55B52"/>
<path d="M252.2 139.07L249.78 141.74C249.694 141.832 249.635 141.946 249.609 142.069C249.582 142.193 249.59 142.321 249.63 142.44L250.4 144.8C250.443 144.932 250.525 145.048 250.636 145.132C250.747 145.216 250.881 145.265 251.02 145.27L253.63 145.4C253.754 145.405 253.877 145.379 253.987 145.323C254.097 145.267 254.191 145.183 254.26 145.08L255.82 142.79C255.914 142.666 255.965 142.515 255.965 142.36C255.965 142.205 255.914 142.054 255.82 141.93L253.3 139.06C253.234 138.977 253.15 138.911 253.054 138.866C252.958 138.82 252.853 138.797 252.748 138.798C252.642 138.799 252.537 138.824 252.443 138.871C252.348 138.918 252.265 138.986 252.2 139.07Z" fill="#E33737"/>
<path d="M251.59 145.25C251.59 145.25 247.59 174.69 247.5 179.82C247.553 184.665 248.314 189.476 249.76 194.1C249.76 194.1 252.51 188.9 252.98 179.6C253.45 170.3 252.88 150.47 253.09 145.25H251.59Z" fill="#E33737"/>
<path opacity="0.2" d="M253.32 119.23C253.95 121.97 254.25 125.95 253.03 129.11C253.83 129.46 257.13 128.19 258.5 127.32C261.55 125.38 262.73 123.48 263.85 119.43C264.03 118.36 264.23 117.32 264.46 116.31L253.32 119.23Z" fill="black"/>
<path d="M242.88 113.38C243.248 114.316 243.8 115.168 244.502 115.888C245.205 116.607 246.044 117.179 246.97 117.57C249.46 118.57 251.07 116.39 250.67 113.84C250.32 111.55 248.59 108.25 245.95 108.32C245.368 108.353 244.803 108.527 244.304 108.827C243.805 109.127 243.386 109.544 243.083 110.042C242.781 110.54 242.605 111.104 242.569 111.686C242.534 112.267 242.641 112.849 242.88 113.38Z" fill="#B55B52"/>
<path opacity="0.2" d="M242.88 113.38C243.248 114.316 243.8 115.168 244.502 115.888C245.205 116.607 246.044 117.179 246.97 117.57C249.46 118.57 251.07 116.39 250.67 113.84C250.32 111.55 248.59 108.25 245.95 108.32C245.368 108.353 244.803 108.527 244.304 108.827C243.805 109.127 243.386 109.544 243.083 110.042C242.781 110.54 242.605 111.104 242.569 111.686C242.534 112.267 242.641 112.849 242.88 113.38Z" fill="black"/>
<path d="M253 104.37C252.53 107.89 250.33 110.51 248.09 110.21C245.85 109.91 244.42 106.81 244.9 103.28C245.38 99.75 247.57 97.13 249.81 97.43C252.05 97.73 253.5 100.84 253 104.37Z" fill="#263238"/>
<path d="M268.4 108.51C266.4 116.51 265.62 121.27 260.81 124.73C253.59 129.94 244.44 124.58 244.06 116.2C243.71 108.66 247.06 96.86 255.46 94.96C257.302 94.5339 259.223 94.5947 261.034 95.1362C262.845 95.6778 264.484 96.6815 265.79 98.0487C267.096 99.4159 268.023 101.099 268.481 102.934C268.938 104.768 268.91 106.69 268.4 108.51Z" fill="#B55B52"/>
<path d="M255.12 92.17C250.33 93.17 245.03 97.08 249.6 99.93C254.17 102.78 264.46 103.22 264.46 103.22C264.46 103.22 261.06 111.22 265.71 115.35C267.26 114.58 263.95 121.56 263.95 121.56C265.653 120.973 267.078 119.776 267.95 118.2C270.73 117.49 278.95 104.2 273.47 100.44C272.43 92.69 261.55 90.78 255.12 92.17Z" fill="#263238"/>
<path d="M266.68 113.33H266.57L259.37 110.03C259.334 110.02 259.301 110.002 259.273 109.978C259.244 109.954 259.222 109.924 259.206 109.89C259.19 109.856 259.182 109.819 259.181 109.782C259.181 109.745 259.189 109.708 259.204 109.674C259.219 109.64 259.242 109.61 259.27 109.585C259.297 109.56 259.33 109.542 259.366 109.531C259.402 109.52 259.439 109.517 259.476 109.522C259.513 109.527 259.548 109.54 259.58 109.56L266.79 112.86C266.852 112.888 266.9 112.94 266.924 113.003C266.949 113.067 266.947 113.138 266.92 113.2C266.896 113.242 266.861 113.276 266.818 113.299C266.776 113.322 266.728 113.333 266.68 113.33Z" fill="white"/>
<path d="M270.33 118C268.947 119.532 267.02 120.461 264.96 120.59C262.25 120.73 261.55 118.14 262.85 115.88C264.02 113.88 266.85 111.32 269.29 112.25C271.73 113.18 272 116.11 270.33 118Z" fill="#B55B52"/>
<path d="M232.83 207.18C232.83 207.18 230.19 268.68 230.47 293.77C230.76 319.86 241.61 395.97 241.61 395.97H255.54C255.54 395.97 254.29 321.38 255.54 295.76C256.9 267.82 261.76 207.18 261.76 207.18H232.83Z" fill="#E33737"/>
<path d="M256.19 389.82C256.26 389.82 256.45 396.26 256.45 396.26H240.39L239.47 389.26L256.19 389.82Z" fill="#263238"/>
<path opacity="0.2" d="M251.68 223.46C251.2 253.98 252.58 272.52 255.99 287.46C256.83 272.9 258.2 253.65 259.41 237.66L251.68 223.46Z" fill="black"/>
<path d="M248.44 207.18C248.44 207.18 256.24 270.04 260.78 293.59C265.78 319.38 284.78 395.97 284.78 395.97H299.85C299.85 395.97 287.96 321.47 285.38 295.97C282.59 268.26 276.81 207.22 276.81 207.22L248.44 207.18Z" fill="#E33737"/>
<path d="M299.49 390.16C299.56 390.16 300.61 396.26 300.61 396.26H284.05L282.23 389.54L299.49 390.16Z" fill="#263238"/>
<path d="M255.89 108.72C255.76 109.38 255.32 109.85 254.89 109.78C254.46 109.71 254.22 109.12 254.34 108.46C254.46 107.8 254.91 107.33 255.34 107.4C255.77 107.47 256 108.06 255.89 108.72Z" fill="#263238"/>
<path d="M247.82 106.82C247.7 107.48 247.25 107.95 246.82 107.88C246.39 107.81 246.15 107.22 246.27 106.56C246.39 105.9 246.84 105.43 247.27 105.5C247.7 105.57 247.94 106.16 247.82 106.82Z" fill="#263238"/>
<path d="M251.18 108.47C249.811 110.198 248.217 111.735 246.44 113.04C246.776 113.478 247.205 113.836 247.696 114.088C248.187 114.341 248.728 114.481 249.28 114.5L251.18 108.47Z" fill="#A02724"/>
<path d="M251.2 116.55C251.15 116.538 251.107 116.508 251.079 116.465C251.051 116.422 251.041 116.37 251.05 116.32C251.06 116.269 251.089 116.223 251.132 116.193C251.175 116.163 251.228 116.151 251.28 116.16C252.092 116.309 252.927 116.267 253.72 116.038C254.514 115.809 255.243 115.399 255.85 114.84C255.884 114.803 255.932 114.781 255.983 114.779C256.034 114.777 256.083 114.796 256.12 114.83C256.157 114.865 256.179 114.912 256.181 114.963C256.183 115.014 256.164 115.063 256.13 115.1C255.482 115.716 254.697 116.168 253.84 116.42C252.983 116.672 252.078 116.717 251.2 116.55Z" fill="#263238"/>
<path d="M259.8 106.58C259.741 106.566 259.687 106.537 259.641 106.497C259.596 106.457 259.561 106.407 259.54 106.35C259.382 105.898 259.117 105.491 258.769 105.162C258.422 104.833 258 104.593 257.54 104.46C257.439 104.438 257.352 104.378 257.295 104.292C257.239 104.206 257.219 104.101 257.24 104C257.262 103.899 257.322 103.81 257.408 103.752C257.493 103.695 257.598 103.672 257.7 103.69C258.296 103.837 258.847 104.129 259.303 104.541C259.758 104.953 260.104 105.471 260.31 106.05C260.343 106.148 260.338 106.256 260.296 106.35C260.253 106.445 260.176 106.52 260.08 106.56C259.992 106.6 259.893 106.607 259.8 106.58Z" fill="#263238"/>
<path d="M245.75 103.67C245.694 103.658 245.642 103.63 245.6 103.59C245.53 103.516 245.49 103.417 245.49 103.315C245.49 103.213 245.53 103.114 245.6 103.04C245.987 102.553 246.482 102.163 247.046 101.901C247.611 101.639 248.228 101.512 248.85 101.53C248.9 101.536 248.948 101.552 248.992 101.577C249.036 101.602 249.074 101.636 249.105 101.676C249.136 101.716 249.158 101.762 249.171 101.81C249.184 101.859 249.187 101.91 249.18 101.96C249.175 102.011 249.16 102.061 249.136 102.107C249.111 102.152 249.078 102.192 249.038 102.225C248.998 102.257 248.952 102.282 248.903 102.296C248.853 102.311 248.801 102.316 248.75 102.31C248.258 102.299 247.771 102.405 247.327 102.619C246.884 102.833 246.498 103.148 246.2 103.54C246.147 103.605 246.076 103.652 245.995 103.676C245.915 103.699 245.829 103.697 245.75 103.67Z" fill="#263238"/>
<path d="M255.74 113.4C255.542 113.398 255.345 113.381 255.15 113.35C254.681 113.261 254.235 113.08 253.837 112.817C253.439 112.555 253.096 112.216 252.83 111.82C252.489 111.311 252.252 110.74 252.132 110.14C252.012 109.539 252.011 108.921 252.13 108.32C252.266 107.226 252.824 106.229 253.685 105.541C254.547 104.853 255.643 104.53 256.74 104.64C257.685 104.823 258.519 105.373 259.06 106.17C259.744 107.199 259.996 108.457 259.76 109.67C259.623 110.66 259.148 111.573 258.416 112.253C257.683 112.932 256.738 113.338 255.74 113.4ZM256.14 105.11C255.265 105.172 254.439 105.534 253.801 106.136C253.163 106.737 252.753 107.541 252.64 108.41C252.426 109.49 252.645 110.611 253.25 111.53C253.48 111.87 253.776 112.16 254.119 112.385C254.462 112.61 254.847 112.764 255.25 112.84C256.211 112.927 257.167 112.635 257.915 112.025C258.662 111.416 259.142 110.538 259.25 109.58C259.462 108.499 259.239 107.378 258.63 106.46C258.4 106.12 258.105 105.829 257.762 105.604C257.418 105.379 257.034 105.225 256.63 105.15C256.468 105.123 256.304 105.11 256.14 105.11Z" fill="white"/>
<path d="M252.38 108.62C252.339 108.62 252.298 108.609 252.262 108.59C252.225 108.571 252.194 108.544 252.17 108.51C252.008 108.182 251.731 107.925 251.392 107.787C251.053 107.649 250.675 107.639 250.33 107.76C250.266 107.784 250.196 107.783 250.133 107.757C250.069 107.731 250.019 107.682 249.99 107.62C249.963 107.558 249.961 107.487 249.986 107.423C250.01 107.36 250.058 107.308 250.12 107.28C250.578 107.118 251.078 107.123 251.532 107.295C251.987 107.467 252.365 107.795 252.6 108.22C252.619 108.249 252.631 108.281 252.637 108.315C252.643 108.349 252.642 108.383 252.635 108.417C252.627 108.45 252.613 108.482 252.594 108.51C252.574 108.538 252.549 108.562 252.52 108.58C252.479 108.608 252.43 108.622 252.38 108.62Z" fill="white"/>
<path d="M246.47 111.29C246.269 111.288 246.068 111.272 245.87 111.24C245.401 111.151 244.955 110.97 244.557 110.707C244.159 110.445 243.816 110.106 243.55 109.71C242.866 108.681 242.614 107.423 242.85 106.21C242.985 105.117 243.544 104.12 244.406 103.434C245.268 102.748 246.364 102.427 247.46 102.54C247.929 102.625 248.376 102.804 248.774 103.065C249.173 103.326 249.515 103.664 249.78 104.06C250.465 105.093 250.717 106.353 250.48 107.57C250.343 108.558 249.87 109.467 249.139 110.145C248.408 110.823 247.465 111.228 246.47 111.29ZM246.86 103C245.985 103.062 245.159 103.424 244.521 104.026C243.883 104.627 243.473 105.431 243.36 106.3C243.253 106.835 243.253 107.386 243.359 107.922C243.466 108.457 243.677 108.966 243.98 109.42C244.21 109.76 244.505 110.051 244.848 110.276C245.192 110.501 245.576 110.655 245.98 110.73C246.941 110.817 247.897 110.525 248.645 109.915C249.392 109.306 249.872 108.428 249.98 107.47C250.195 106.389 249.972 105.267 249.36 104.35C248.893 103.666 248.174 103.195 247.36 103.04C247.195 103.012 247.028 102.999 246.86 103Z" fill="white"/>
<path d="M287 407.58C286.445 407.624 285.892 407.48 285.43 407.17C285.292 407.046 285.185 406.89 285.119 406.716C285.053 406.542 285.029 406.355 285.05 406.17C285.055 406.054 285.09 405.942 285.151 405.844C285.213 405.746 285.298 405.665 285.4 405.61C286.31 405.15 288.93 406.78 289.23 406.96C289.263 406.98 289.289 407.011 289.303 407.047C289.318 407.083 289.32 407.122 289.31 407.16C289.305 407.199 289.287 407.235 289.26 407.264C289.234 407.292 289.198 407.312 289.16 407.32C288.452 407.488 287.728 407.575 287 407.58ZM285.82 405.88C285.734 405.879 285.649 405.896 285.57 405.93C285.529 405.952 285.495 405.986 285.472 406.026C285.449 406.067 285.438 406.113 285.44 406.16C285.419 406.29 285.431 406.423 285.475 406.547C285.519 406.671 285.593 406.782 285.69 406.87C286.13 407.25 287.2 407.3 288.61 407.02C287.776 406.465 286.842 406.078 285.86 405.88H285.82Z" fill="#E33737"/>
<path d="M289.16 407.3C289.131 407.31 289.099 407.31 289.07 407.3C288.23 406.84 286.62 405.04 286.82 404.12C286.853 403.977 286.933 403.849 287.048 403.757C287.162 403.665 287.303 403.613 287.45 403.61C287.598 403.591 287.749 403.603 287.892 403.646C288.035 403.689 288.167 403.762 288.28 403.86C289.21 404.64 289.35 407.01 289.36 407.12C289.354 407.172 289.331 407.221 289.295 407.259C289.259 407.297 289.212 407.322 289.16 407.33V407.3ZM287.58 404H287.49C287.24 404 287.21 404.14 287.2 404.19C287.09 404.73 288.1 406.1 288.93 406.74C288.895 405.808 288.577 404.908 288.02 404.16C287.897 404.056 287.741 403.999 287.58 404Z" fill="#E33737"/>
<path d="M241.42 407.59C240.714 407.657 240.007 407.477 239.42 407.08C239.288 406.963 239.188 406.815 239.128 406.649C239.069 406.483 239.052 406.304 239.08 406.13C239.087 406.024 239.12 405.921 239.178 405.832C239.236 405.743 239.316 405.67 239.41 405.62C240.41 405.05 243.69 406.73 244.06 406.93C244.097 406.948 244.127 406.977 244.146 407.014C244.165 407.05 244.172 407.092 244.165 407.133C244.158 407.173 244.139 407.21 244.109 407.239C244.079 407.267 244.041 407.285 244 407.29C243.151 407.47 242.287 407.57 241.42 407.59ZM240 405.88C239.873 405.878 239.747 405.902 239.63 405.95C239.593 405.971 239.563 406.002 239.542 406.039C239.521 406.076 239.51 406.118 239.51 406.16C239.489 406.275 239.499 406.394 239.537 406.504C239.576 406.614 239.642 406.713 239.73 406.79C240.22 407.24 241.57 407.32 243.4 407.01C242.339 406.443 241.189 406.061 240 405.88Z" fill="#E33737"/>
<path d="M244 407.3H243.92C242.92 406.85 241.02 405.08 241.19 404.14C241.19 403.93 241.39 403.65 241.93 403.6C242.122 403.577 242.316 403.594 242.5 403.651C242.685 403.708 242.855 403.803 243 403.93C244 404.79 244.19 407.01 244.2 407.1C244.201 407.134 244.194 407.168 244.18 407.199C244.166 407.23 244.146 407.258 244.12 407.28C244.082 407.295 244.041 407.302 244 407.3ZM242.05 404H241.93C241.58 404 241.55 404.17 241.54 404.22C241.44 404.77 242.74 406.17 243.74 406.78C243.678 405.85 243.328 404.963 242.74 404.24C242.549 404.076 242.302 403.99 242.05 404Z" fill="#E33737"/>
<path d="M267 133.25L276.5 134.39C278.075 134.577 279.523 135.349 280.557 136.553C281.59 137.756 282.134 139.304 282.08 140.89C281.6 155.7 279.64 176.05 281.21 207.18C282 222.88 292.97 308.13 292.97 308.13L271.36 311.92C261.041 279.16 253.809 245.507 249.76 211.4C248.189 196.578 248.135 181.633 249.6 166.8L267 133.25Z" fill="#E33737"/>
<path opacity="0.8" d="M267 133.25L276.5 134.39C278.075 134.577 279.523 135.349 280.557 136.553C281.59 137.756 282.134 139.304 282.08 140.89C281.6 155.7 279.64 176.05 281.21 207.18C282 222.88 292.97 308.13 292.97 308.13L271.36 311.92C261.041 279.16 253.809 245.507 249.76 211.4C248.189 196.578 248.135 181.633 249.6 166.8L267 133.25Z" fill="white"/>
<path opacity="0.2" d="M274.76 152.15C274.76 154.37 276.46 165.67 280.67 173.47C280.79 168.15 280.98 163.29 281.2 158.83L274.76 152.15Z" fill="#E33737"/>
<path opacity="0.2" d="M233.87 150.17C232.65 152.5 229.13 162.38 227.34 173.17C228.16 172.6 228.94 172.01 229.69 171.41C232.455 169.115 234.993 166.56 237.27 163.78L237.71 163.24L233.87 150.17Z" fill="#E33737"/>
<path d="M246.93 134.22L241.32 134.9C238.631 135.231 236.148 136.509 234.315 138.504C232.483 140.5 231.421 143.083 231.32 145.79C230.68 162.41 229.38 195.61 228.67 207.18C227.67 222.87 228.38 308.13 228.38 308.13L241.85 310.49C241.85 310.49 245.27 263.55 249.8 211.4C250.962 195.922 251.239 180.39 250.63 164.88L246.93 134.22Z" fill="#E33737"/>
<path opacity="0.8" d="M246.93 134.22L241.32 134.9C238.631 135.231 236.148 136.509 234.315 138.504C232.483 140.5 231.421 143.083 231.32 145.79C230.68 162.41 229.38 195.61 228.67 207.18C227.67 222.87 228.38 308.13 228.38 308.13L241.85 310.49C241.85 310.49 245.27 263.55 249.8 211.4C250.962 195.922 251.239 180.39 250.63 164.88L246.93 134.22Z" fill="white"/>
<path d="M252.73 138.83C253.984 140.842 254.991 142.997 255.73 145.25C255.73 145.25 268.86 140.74 268.39 133.51C268.39 133.51 266.39 132.33 265.19 131.37C265.18 131.37 264.59 135.93 252.73 138.83Z" fill="#F5F5F5"/>
<path d="M252.73 138.83C251.234 140.559 249.979 142.483 249 144.55C247.385 143.336 246.196 141.643 245.601 139.712C245.007 137.781 245.038 135.712 245.69 133.8C246.862 133.327 248.069 132.946 249.3 132.66C249.3 132.66 248.35 137.28 252.73 138.83Z" fill="#F5F5F5"/>
<path opacity="0.2" d="M266.37 211.55L281.42 224.48L271.14 219.45L266.37 211.55Z" fill="#E33737"/>
<path d="M281.48 138.18C282.12 139.07 282.6 139.77 283.14 140.56L284.67 142.87C285.67 144.417 286.64 145.98 287.58 147.56C289.47 150.73 291.25 153.97 292.89 157.36C294.584 160.828 296.025 164.414 297.2 168.09C297.826 170.055 298.32 172.059 298.68 174.09C299.061 176.289 299.232 178.519 299.19 180.75C299.004 184.96 298.191 189.119 296.78 193.09C295.502 196.744 293.923 200.286 292.06 203.68C290.286 206.962 288.334 210.143 286.21 213.21C285.17 214.737 284.097 216.237 282.99 217.71C282.44 218.45 281.87 219.19 281.29 219.92C280.71 220.65 280.16 221.33 279.44 222.17L268.87 213C269.27 212.52 269.87 211.84 270.31 211.22L271.79 209.3C272.79 208 273.71 206.68 274.62 205.3C276.415 202.633 278.061 199.869 279.55 197.02C280.978 194.296 282.172 191.456 283.12 188.53C283.995 185.951 284.47 183.253 284.53 180.53C284.411 177.877 283.867 175.261 282.92 172.78C281.87 169.879 280.596 167.064 279.11 164.36C277.59 161.56 275.9 158.78 274.11 156.07C273.2 154.72 272.26 153.38 271.3 152.07L269.84 150.12C269.36 149.5 268.84 148.8 268.41 148.31L281.48 138.18Z" fill="#E33737"/>
<path opacity="0.8" d="M281.48 138.18C282.12 139.07 282.6 139.77 283.14 140.56L284.67 142.87C285.67 144.417 286.64 145.98 287.58 147.56C289.47 150.73 291.25 153.97 292.89 157.36C294.584 160.828 296.025 164.414 297.2 168.09C297.826 170.055 298.32 172.059 298.68 174.09C299.061 176.289 299.232 178.519 299.19 180.75C299.004 184.96 298.191 189.119 296.78 193.09C295.502 196.744 293.923 200.286 292.06 203.68C290.286 206.962 288.334 210.143 286.21 213.21C285.17 214.737 284.097 216.237 282.99 217.71C282.44 218.45 281.87 219.19 281.29 219.92C280.71 220.65 280.16 221.33 279.44 222.17L268.87 213C269.27 212.52 269.87 211.84 270.31 211.22L271.79 209.3C272.79 208 273.71 206.68 274.62 205.3C276.415 202.633 278.061 199.869 279.55 197.02C280.978 194.296 282.172 191.456 283.12 188.53C283.995 185.951 284.47 183.253 284.53 180.53C284.411 177.877 283.867 175.261 282.92 172.78C281.87 169.879 280.596 167.064 279.11 164.36C277.59 161.56 275.9 158.78 274.11 156.07C273.2 154.72 272.26 153.38 271.3 152.07L269.84 150.12C269.36 149.5 268.84 148.8 268.41 148.31L281.48 138.18Z" fill="white"/>
<path d="M268 155.52C267.677 156.275 267.101 156.894 266.371 157.27C265.641 157.646 264.802 157.756 264 157.58C263.634 157.5 263.291 157.34 262.996 157.11C262.7 156.88 262.459 156.587 262.292 156.253C262.124 155.918 262.033 155.55 262.026 155.176C262.019 154.802 262.095 154.431 262.25 154.09C262.573 153.336 263.15 152.718 263.88 152.343C264.611 151.969 265.449 151.862 266.25 152.04C266.615 152.119 266.958 152.278 267.254 152.507C267.55 152.735 267.79 153.027 267.958 153.361C268.126 153.695 268.217 154.062 268.224 154.436C268.231 154.809 268.155 155.18 268 155.52Z" fill="#263238"/>
<path opacity="0.2" d="M268 155.52C267.677 156.275 267.101 156.894 266.371 157.27C265.641 157.646 264.802 157.756 264 157.58C263.634 157.5 263.291 157.34 262.996 157.11C262.7 156.88 262.459 156.587 262.292 156.253C262.124 155.918 262.033 155.55 262.026 155.176C262.019 154.802 262.095 154.431 262.25 154.09C262.573 153.336 263.15 152.718 263.88 152.343C264.611 151.969 265.449 151.862 266.25 152.04C266.615 152.119 266.958 152.278 267.254 152.507C267.55 152.735 267.79 153.027 267.958 153.361C268.126 153.695 268.217 154.062 268.224 154.436C268.231 154.809 268.155 155.18 268 155.52Z" fill="white"/>
<path d="M264.71 154C264.628 154.001 264.547 153.977 264.48 153.93C264.397 153.87 264.341 153.779 264.324 153.678C264.308 153.577 264.331 153.474 264.39 153.39C271.83 143.04 269.75 133.84 269.73 133.75C269.709 133.698 269.699 133.642 269.702 133.586C269.704 133.53 269.719 133.475 269.745 133.425C269.77 133.375 269.806 133.331 269.851 133.297C269.895 133.262 269.946 133.237 270 133.224C270.055 133.211 270.112 133.21 270.167 133.221C270.222 133.232 270.274 133.254 270.32 133.287C270.365 133.32 270.403 133.362 270.431 133.411C270.458 133.46 270.475 133.514 270.48 133.57C270.48 133.66 272.68 143.19 265.02 153.84C264.986 153.891 264.94 153.932 264.886 153.96C264.831 153.988 264.771 154.002 264.71 154Z" fill="#263238"/>
<path d="M238.77 148.75C238.672 148.748 238.579 148.71 238.507 148.644C238.435 148.578 238.39 148.487 238.38 148.39C237.57 138.23 242.95 134.48 243.18 134.33C243.266 134.275 243.37 134.254 243.47 134.273C243.57 134.291 243.66 134.348 243.72 134.43C243.777 134.516 243.797 134.621 243.777 134.723C243.756 134.824 243.696 134.913 243.61 134.97C243.56 134.97 238.38 138.65 239.16 148.33C239.166 148.432 239.131 148.532 239.064 148.608C238.996 148.685 238.902 148.732 238.8 148.74L238.77 148.75Z" fill="#263238"/>
<path d="M266.91 155.25C266.585 156.004 266.009 156.621 265.279 156.997C264.55 157.373 263.712 157.484 262.91 157.31C262.543 157.232 262.199 157.072 261.902 156.843C261.606 156.614 261.364 156.321 261.196 155.986C261.028 155.65 260.938 155.282 260.932 154.907C260.925 154.532 261.003 154.161 261.16 153.82C261.492 153.075 262.072 152.468 262.802 152.103C263.531 151.738 264.365 151.638 265.16 151.82C265.518 151.902 265.854 152.061 266.143 152.287C266.433 152.513 266.669 152.799 266.836 153.126C267.003 153.453 267.096 153.813 267.109 154.18C267.122 154.547 267.054 154.912 266.91 155.25Z" fill="#263238"/>
<path opacity="0.4" d="M266.91 155.25C266.585 156.004 266.009 156.621 265.279 156.997C264.55 157.373 263.712 157.484 262.91 157.31C262.543 157.232 262.199 157.072 261.902 156.843C261.606 156.614 261.364 156.321 261.196 155.986C261.028 155.65 260.938 155.282 260.932 154.907C260.925 154.532 261.003 154.161 261.16 153.82C261.492 153.075 262.072 152.468 262.802 152.103C263.531 151.738 264.365 151.638 265.16 151.82C265.518 151.902 265.854 152.061 266.143 152.287C266.433 152.513 266.669 152.799 266.836 153.126C267.003 153.453 267.096 153.813 267.109 154.18C267.122 154.547 267.054 154.912 266.91 155.25Z" fill="white"/>
<path opacity="0.4" d="M265.23 154.71C265.059 155.107 264.754 155.433 264.369 155.63C263.984 155.827 263.542 155.884 263.12 155.79C262.928 155.748 262.749 155.663 262.594 155.543C262.439 155.423 262.313 155.269 262.225 155.094C262.137 154.919 262.089 154.726 262.084 154.53C262.08 154.334 262.12 154.139 262.2 153.96C262.373 153.564 262.677 153.24 263.062 153.043C263.447 152.846 263.888 152.789 264.31 152.88C264.502 152.922 264.681 153.007 264.836 153.127C264.991 153.248 265.117 153.401 265.205 153.576C265.293 153.751 265.341 153.944 265.346 154.14C265.35 154.336 265.31 154.531 265.23 154.71Z" fill="white"/>
<path d="M241.81 172.39C241.708 172.387 241.612 172.345 241.541 172.272C241.47 172.199 241.43 172.102 241.43 172C241.429 171.949 241.438 171.899 241.456 171.852C241.475 171.804 241.502 171.761 241.538 171.725C241.573 171.688 241.615 171.66 241.662 171.64C241.709 171.62 241.759 171.61 241.81 171.61C242.544 171.589 243.244 171.299 243.778 170.796C244.313 170.293 244.644 169.611 244.71 168.88L245.45 155.88C245.512 154.968 245.385 154.053 245.076 153.193C244.768 152.332 244.285 151.545 243.658 150.88C243.03 150.215 242.272 149.687 241.431 149.329C240.59 148.971 239.684 148.791 238.77 148.8C236.847 148.823 235.003 149.57 233.606 150.891C232.209 152.212 231.361 154.011 231.23 155.93L230.48 168.93C230.453 169.277 230.5 169.626 230.616 169.955C230.732 170.283 230.916 170.584 231.155 170.837C231.394 171.09 231.684 171.291 232.005 171.425C232.326 171.56 232.672 171.627 233.02 171.62C233.123 171.62 233.223 171.661 233.296 171.734C233.369 171.807 233.41 171.907 233.41 172.01C233.407 172.113 233.366 172.21 233.293 172.283C233.22 172.356 233.123 172.397 233.02 172.4C232.567 172.404 232.118 172.314 231.702 172.136C231.285 171.959 230.91 171.697 230.599 171.367C230.288 171.038 230.049 170.648 229.896 170.221C229.743 169.795 229.68 169.342 229.71 168.89L230.46 155.89C230.603 153.775 231.538 151.792 233.078 150.335C234.618 148.878 236.65 148.055 238.77 148.03C239.79 148.021 240.802 148.223 241.74 148.623C242.679 149.023 243.525 149.613 244.225 150.356C244.924 151.099 245.463 151.979 245.806 152.939C246.149 153.9 246.29 154.922 246.22 155.94L245.48 168.94C245.412 169.871 244.998 170.742 244.318 171.381C243.638 172.02 242.743 172.38 241.81 172.39Z" fill="#263238"/>
<path d="M233.66 172C233.66 172.62 233.31 173.13 232.96 173.13C232.61 173.13 232.34 172.62 232.38 172C232.42 171.38 232.73 170.86 233.09 170.86C233.45 170.86 233.7 171.37 233.66 172Z" fill="#263238"/>
<path d="M242.46 172C242.46 172.62 242.11 173.13 241.75 173.13C241.39 173.13 241.13 172.62 241.17 172C241.21 171.38 241.52 170.86 241.88 170.86C242.24 170.86 242.49 171.37 242.46 172Z" fill="#263238"/>
<path d="M161.94 93L161.23 92.49C163.32 89.6283 166.258 87.4978 169.627 86.401C172.997 85.3041 176.626 85.2968 180 86.38L179.73 87.22C176.533 86.1954 173.095 86.2022 169.902 87.2395C166.71 88.2768 163.924 90.2921 161.94 93Z" fill="#E33737"/>
<path d="M158.92 102H158.04C158.085 100.403 158.358 98.8202 158.85 97.3L159.69 97.57C159.224 99.0024 158.964 100.494 158.92 102Z" fill="#E33737"/>
<path d="M205.93 102.7C205.162 101.003 204.056 99.4795 202.682 98.2222C201.307 96.9648 199.691 95.9998 197.932 95.3855C196.174 94.7711 194.308 94.5204 192.45 94.6484C190.591 94.7763 188.778 95.2804 187.12 96.13C186.286 94.5026 185.136 93.0577 183.737 91.8798C182.338 90.702 180.718 89.8148 178.973 89.2701C177.227 88.7254 175.39 88.5342 173.57 88.7076C171.749 88.881 169.982 89.4156 168.37 90.28C161.7 93.86 159.37 102.34 162.84 109.09L171.84 126.66C172.277 127.515 172.878 128.276 173.61 128.898C174.341 129.521 175.188 129.992 176.102 130.287C177.016 130.581 177.979 130.693 178.937 130.614C179.894 130.536 180.826 130.269 181.68 129.83L199.32 120.83C202.537 119.233 205.017 116.46 206.248 113.086C207.478 109.711 207.364 105.993 205.93 102.7Z" fill="#E33737"/>
</svg>
