<svg width="500" height="500" viewBox="0 0 500 500" fill="none" xmlns="http://www.w3.org/2000/svg">
<path d="M470.8 466.91C470.8 466.91 471.27 466.91 472.23 466.91H476.58V467C454.08 467.11 362.45 467.2 252.9 467.2L90.6199 467.12L41.4499 467H28.0799L41.4499 466.95L90.6199 466.87L252.9 466.79C362.45 466.79 454.08 466.88 476.58 466.99V467H472.23C471.27 466.93 470.8 466.91 470.8 466.91Z" fill="#263238"/>
<path d="M433.39 78.37H209.26V394.62H433.39V78.37Z" fill="white"/>
<path d="M433.39 394.62C433.39 392.51 433.29 265.19 433.15 78.37L433.39 78.6H209.28L209.54 78.34C209.54 196.85 209.54 306.44 209.49 394.59L209.28 394.38L433.41 394.59L209.28 394.8H209V394.59C209 306.44 209 196.85 209 78.34V78.1H209.28H433.39H433.63V78.34C433.49 265.19 433.39 392.51 433.39 394.62Z" fill="#263238"/>
<path d="M313.34 288.34H231.04C227.345 288.34 224.35 291.335 224.35 295.03V303.59C224.35 307.285 227.345 310.28 231.04 310.28H313.34C317.034 310.28 320.03 307.285 320.03 303.59V295.03C320.03 291.335 317.034 288.34 313.34 288.34Z" fill="#F5F5F5"/>
<path d="M413.18 288.34H333C329.305 288.34 326.31 291.335 326.31 295.03V303.59C326.31 307.285 329.305 310.28 333 310.28H413.18C416.874 310.28 419.87 307.285 419.87 303.59V295.03C419.87 291.335 416.874 288.34 413.18 288.34Z" fill="#F5F5F5"/>
<path d="M414.5 333.3H230.59C226.896 333.3 223.9 336.295 223.9 339.99V348.55C223.9 352.245 226.896 355.24 230.59 355.24H414.5C418.195 355.24 421.19 352.245 421.19 348.55V339.99C421.19 336.295 418.195 333.3 414.5 333.3Z" fill="#F5F5F5"/>
<path d="M268.28 279.51C268.28 279.65 259.04 279.77 247.63 279.77C236.22 279.77 226.98 279.65 226.98 279.51C226.98 279.37 236.22 279.25 247.63 279.25C259.04 279.25 268.28 279.37 268.28 279.51Z" fill="#263238"/>
<path d="M366 279.51C366 279.65 358.72 279.77 349.74 279.77C340.76 279.77 333.47 279.65 333.47 279.51C333.47 279.37 340.75 279.25 349.74 279.25C358.73 279.25 366 279.37 366 279.51Z" fill="#263238"/>
<path d="M294.5 324.25C294.5 324.39 279.5 324.51 261 324.51C242.5 324.51 227.5 324.39 227.5 324.25C227.5 324.11 242.5 323.99 261 323.99C279.5 323.99 294.5 324.11 294.5 324.25Z" fill="#263238"/>
<path d="M414.68 238.53H226.89C223.295 238.53 220.38 241.445 220.38 245.04V256C220.38 259.595 223.295 262.51 226.89 262.51H414.68C418.275 262.51 421.19 259.595 421.19 256V245.04C421.19 241.445 418.275 238.53 414.68 238.53Z" fill="#E0E0E0"/>
<path d="M363.56 250.52C363.56 250.67 345.74 250.78 323.77 250.78C301.8 250.78 283.97 250.67 283.97 250.52C283.97 250.37 301.79 250.26 323.77 250.26C345.75 250.26 363.56 250.38 363.56 250.52Z" fill="#263238"/>
<path d="M414.68 92.73H226.89C223.295 92.73 220.38 95.6446 220.38 99.24V110.2C220.38 113.795 223.295 116.71 226.89 116.71H414.68C418.275 116.71 421.19 113.795 421.19 110.2V99.24C421.19 95.6446 418.275 92.73 414.68 92.73Z" fill="#E0E0E0"/>
<path d="M363.56 104.72C363.56 104.86 345.74 104.98 323.77 104.98C301.8 104.98 283.97 104.86 283.97 104.72C283.97 104.58 301.79 104.46 323.77 104.46C345.75 104.46 363.56 104.57 363.56 104.72Z" fill="#263238"/>
<path d="M433.39 122.51C433.39 122.66 383.17 122.78 321.23 122.78C259.29 122.78 209.05 122.66 209.05 122.51C209.05 122.36 259.27 122.25 321.23 122.25C383.19 122.25 433.39 122.37 433.39 122.51Z" fill="#EBEBEB"/>
<path d="M433.39 228.6C433.39 228.75 383.17 228.86 321.23 228.86C259.29 228.86 209.05 228.75 209.05 228.6C209.05 228.45 259.27 228.34 321.23 228.34C383.19 228.34 433.39 228.46 433.39 228.6Z" fill="#EBEBEB"/>
<path d="M313.34 146.56H231.04C227.345 146.56 224.35 149.555 224.35 153.25V161.81C224.35 165.505 227.345 168.5 231.04 168.5H313.34C317.034 168.5 320.03 165.505 320.03 161.81V153.25C320.03 149.555 317.034 146.56 313.34 146.56Z" fill="#F5F5F5"/>
<path d="M413.18 146.56H333C329.305 146.56 326.31 149.555 326.31 153.25V161.81C326.31 165.505 329.305 168.5 333 168.5H413.18C416.874 168.5 419.87 165.505 419.87 161.81V153.25C419.87 149.555 416.874 146.56 413.18 146.56Z" fill="#F5F5F5"/>
<path d="M414.5 191.52H230.59C226.896 191.52 223.9 194.515 223.9 198.21V206.77C223.9 210.465 226.896 213.46 230.59 213.46H414.5C418.195 213.46 421.19 210.465 421.19 206.77V198.21C421.19 194.515 418.195 191.52 414.5 191.52Z" fill="#F5F5F5"/>
<path d="M268.28 137.73C268.28 137.87 259.04 137.99 247.63 137.99C236.22 137.99 226.98 137.87 226.98 137.73C226.98 137.59 236.22 137.47 247.63 137.47C259.04 137.47 268.28 137.59 268.28 137.73Z" fill="#263238"/>
<path d="M366 137.73C366 137.87 358.72 137.99 349.74 137.99C340.76 137.99 333.47 137.87 333.47 137.73C333.47 137.59 340.75 137.47 349.74 137.47C358.73 137.47 366 137.59 366 137.73Z" fill="#263238"/>
<path d="M294.5 182.47C294.5 182.61 279.5 182.73 261 182.73C242.5 182.73 227.5 182.61 227.5 182.47C227.5 182.33 242.5 182.21 261 182.21C279.5 182.21 294.5 182.33 294.5 182.47Z" fill="#263238"/>
<path d="M414.27 368.57C414.27 368.72 399.64 368.83 381.59 368.83C363.54 368.83 348.92 368.72 348.92 368.57C348.92 368.42 363.54 368.31 381.59 368.31C399.64 368.31 414.27 368.43 414.27 368.57Z" fill="#263238"/>
<path d="M305.34 159.83C304.834 159.997 304.316 160.127 303.79 160.22C299.863 160.943 295.808 160.363 292.24 158.57C291.577 158.226 290.978 157.769 290.47 157.22C289.914 156.63 289.542 155.889 289.4 155.09C289.309 154.664 289.306 154.223 289.394 153.796C289.482 153.369 289.658 152.965 289.91 152.61C290.207 152.243 290.605 151.971 291.055 151.829C291.505 151.686 291.987 151.68 292.44 151.81C292.68 151.88 292.902 151.998 293.093 152.158C293.284 152.319 293.44 152.517 293.55 152.74C293.771 153.193 293.838 153.706 293.74 154.2C293.532 155.17 293.053 156.061 292.36 156.77C290.996 158.301 289.28 159.478 287.36 160.2C285.294 160.981 283.053 161.181 280.88 160.78C279.726 160.583 278.637 160.106 277.71 159.39C277.21 159.024 276.809 158.541 276.54 157.983C276.271 157.425 276.144 156.809 276.17 156.19C276.235 155.554 276.474 154.949 276.86 154.44C277.239 153.897 277.799 153.507 278.44 153.34C278.779 153.273 279.129 153.295 279.457 153.404C279.785 153.512 280.079 153.704 280.31 153.96C280.749 154.476 280.987 155.133 280.98 155.81C280.992 156.472 280.834 157.126 280.52 157.71C280.183 158.285 279.718 158.774 279.16 159.14C278.051 159.804 276.842 160.287 275.58 160.57C273.15 161.26 270.5 162.01 267.8 161.4C266.447 161.106 265.205 160.434 264.22 159.46C263.71 158.964 263.307 158.368 263.039 157.708C262.77 157.049 262.642 156.342 262.66 155.63C262.671 155.173 262.773 154.722 262.96 154.305C263.147 153.888 263.416 153.512 263.75 153.2C264.119 152.909 264.563 152.728 265.03 152.679C265.497 152.629 265.969 152.713 266.39 152.92C266.825 153.115 267.176 153.459 267.379 153.89C267.583 154.321 267.626 154.81 267.5 155.27C267.232 156.118 266.681 156.848 265.94 157.34C263.256 159.181 260.17 160.354 256.94 160.76C255.368 161.031 253.752 160.89 252.25 160.35C251.511 160.051 250.859 159.569 250.355 158.95C249.852 158.331 249.513 157.595 249.37 156.81C249.251 156.023 249.429 155.22 249.869 154.557C250.309 153.893 250.979 153.417 251.75 153.22C252.142 153.144 252.547 153.175 252.924 153.309C253.3 153.442 253.634 153.674 253.89 153.98C254.361 154.573 254.625 155.303 254.64 156.06C254.674 156.791 254.516 157.519 254.18 158.17C253.824 158.783 253.34 159.312 252.76 159.72C251.641 160.452 250.397 160.974 249.09 161.26C246.64 161.91 244.09 162.37 241.77 161.52C240.676 161.125 239.713 160.432 238.99 159.52C238.291 158.647 237.935 157.548 237.99 156.43C238.096 155.395 238.572 154.432 239.33 153.72C239.674 153.375 240.098 153.122 240.564 152.982C241.03 152.842 241.524 152.821 242 152.92H242.1V153.02C242.131 154.983 241.417 156.884 240.1 158.34C239.165 159.436 237.953 160.261 236.59 160.73C235.749 161.021 234.858 161.136 233.97 161.07C233.37 160.98 233.07 160.9 233.07 160.9C234.235 161.09 235.43 160.98 236.54 160.58C237.86 160.098 239.029 159.277 239.93 158.2C241.166 156.77 241.823 154.929 241.77 153.04L241.88 153.17C241.451 153.091 241.009 153.118 240.592 153.249C240.176 153.379 239.797 153.61 239.49 153.92C238.799 154.585 238.37 155.475 238.28 156.43C238.13 158.43 239.74 160.43 241.84 161.15C243.94 161.87 246.49 161.5 248.92 160.84C250.174 160.56 251.367 160.055 252.44 159.35C252.961 158.979 253.398 158.502 253.72 157.95C254.018 157.37 254.156 156.721 254.12 156.07C254.107 155.42 253.882 154.791 253.48 154.28C253.278 154.035 253.013 153.849 252.714 153.742C252.415 153.634 252.092 153.61 251.78 153.67C251.128 153.847 250.563 154.257 250.195 154.823C249.826 155.39 249.678 156.072 249.78 156.74C249.914 157.439 250.221 158.092 250.674 158.641C251.126 159.19 251.71 159.616 252.37 159.88C253.793 160.385 255.323 160.513 256.81 160.25C259.952 159.851 262.952 158.706 265.56 156.91C266.2 156.488 266.682 155.865 266.93 155.14C267.025 154.795 266.992 154.427 266.838 154.103C266.684 153.78 266.418 153.523 266.09 153.38C265.759 153.222 265.391 153.158 265.026 153.195C264.661 153.232 264.313 153.368 264.02 153.59C263.739 153.855 263.513 154.174 263.357 154.528C263.201 154.882 263.117 155.263 263.11 155.65C263.096 156.288 263.214 156.922 263.457 157.512C263.7 158.103 264.062 158.636 264.52 159.08C265.434 159.982 266.585 160.607 267.84 160.88C270.36 161.46 272.95 160.76 275.37 160.07C276.577 159.797 277.734 159.338 278.8 158.71C279.295 158.392 279.709 157.965 280.01 157.46C280.281 156.953 280.418 156.385 280.41 155.81C280.42 155.252 280.229 154.708 279.87 154.28C279.699 154.086 279.479 153.94 279.233 153.858C278.987 153.775 278.724 153.759 278.47 153.81C277.954 153.987 277.501 154.309 277.166 154.739C276.83 155.169 276.627 155.687 276.58 156.23C276.572 156.773 276.697 157.309 276.944 157.792C277.192 158.275 277.555 158.69 278 159C278.879 159.673 279.909 160.123 281 160.31C283.092 160.696 285.249 160.506 287.24 159.76C289.109 159.08 290.782 157.95 292.11 156.47C292.755 155.82 293.206 155.002 293.41 154.11C293.528 153.712 293.49 153.284 293.304 152.913C293.118 152.542 292.799 152.255 292.41 152.11C292.027 151.995 291.619 151.997 291.238 152.117C290.856 152.236 290.519 152.467 290.27 152.78C290.045 153.095 289.887 153.453 289.806 153.831C289.726 154.21 289.723 154.601 289.8 154.98C289.963 155.694 290.287 156.361 290.748 156.93C291.21 157.498 291.795 157.953 292.46 158.26C294.59 159.371 296.918 160.051 299.31 160.26C300.825 160.382 302.348 160.329 303.85 160.1L305.02 159.88C305.126 159.857 305.233 159.84 305.34 159.83Z" fill="#E33737"/>
<path d="M403.17 158.64C402.773 158.89 402.35 159.098 401.91 159.26C400.657 159.772 399.322 160.053 397.97 160.09C395.818 160.167 393.685 159.67 391.79 158.65C390.573 158.047 389.538 157.133 388.79 156C388.377 155.355 388.187 154.593 388.25 153.83C388.294 153.426 388.419 153.035 388.618 152.681C388.818 152.327 389.087 152.017 389.41 151.77C389.758 151.499 390.189 151.358 390.63 151.37C391.082 151.385 391.513 151.567 391.84 151.88C392.151 152.205 392.386 152.595 392.526 153.023C392.666 153.45 392.709 153.904 392.65 154.35C392.489 155.253 392.048 156.082 391.39 156.72C390.742 157.373 390.009 157.934 389.21 158.39C387.54 159.374 385.671 159.972 383.74 160.14C381.674 160.378 379.584 159.991 377.74 159.03C376.775 158.512 375.972 157.736 375.42 156.79C375.144 156.295 374.964 155.752 374.89 155.19C374.834 154.317 375.06 153.449 375.533 152.713C376.006 151.977 376.702 151.412 377.52 151.1C377.817 151.007 378.129 150.976 378.438 151.006C378.747 151.037 379.047 151.13 379.32 151.28C379.857 151.582 380.279 152.053 380.52 152.62C380.756 153.179 380.867 153.783 380.844 154.389C380.822 154.996 380.667 155.59 380.39 156.13C379.823 157.185 379.006 158.085 378.01 158.75C376.026 160.123 373.703 160.925 371.294 161.07C368.886 161.215 366.484 160.696 364.35 159.57C363.297 159.035 362.344 158.325 361.53 157.47C360.672 156.617 360.172 155.469 360.13 154.26C360.142 153.651 360.33 153.058 360.67 152.552C361.011 152.047 361.49 151.65 362.05 151.41C362.344 151.294 362.662 151.253 362.976 151.289C363.29 151.326 363.59 151.439 363.85 151.62C364.344 151.975 364.697 152.491 364.85 153.08C364.99 153.636 365.003 154.216 364.887 154.777C364.771 155.338 364.529 155.866 364.18 156.32C363.533 157.178 362.753 157.927 361.87 158.54C360.271 159.722 358.441 160.553 356.498 160.977C354.556 161.401 352.546 161.409 350.6 161C348.791 160.673 347.163 159.699 346.02 158.26C345.49 157.559 345.192 156.709 345.17 155.83C345.146 154.99 345.353 154.16 345.77 153.43C345.963 153.072 346.226 152.758 346.544 152.505C346.862 152.252 347.228 152.067 347.62 151.96C347.997 151.875 348.388 151.875 348.765 151.96C349.142 152.045 349.495 152.212 349.8 152.45C350.344 152.881 350.766 153.446 351.025 154.089C351.285 154.733 351.373 155.432 351.28 156.12C351.075 157.302 350.445 158.369 349.51 159.12C348.751 159.752 347.859 160.203 346.9 160.44C345.588 160.735 344.238 160.819 342.9 160.69L341.9 160.6C341.784 160.615 341.666 160.615 341.55 160.6C341.666 160.587 341.784 160.587 341.9 160.6H342.95C344.293 160.686 345.641 160.572 346.95 160.26C347.87 160.01 348.724 159.559 349.45 158.94C350.31 158.183 350.861 157.137 351 156C351.075 155.369 350.988 154.729 350.746 154.141C350.505 153.553 350.117 153.036 349.62 152.64C349.35 152.437 349.04 152.295 348.71 152.224C348.38 152.153 348.039 152.155 347.71 152.23C347.368 152.333 347.049 152.503 346.773 152.729C346.497 152.956 346.268 153.235 346.1 153.55C345.706 154.227 345.52 155.005 345.564 155.788C345.609 156.57 345.882 157.322 346.35 157.95C347.446 159.297 348.99 160.206 350.7 160.51C352.585 160.907 354.533 160.9 356.415 160.49C358.297 160.08 360.071 159.275 361.62 158.13C362.454 157.539 363.189 156.82 363.8 156C364.106 155.606 364.319 155.147 364.421 154.658C364.523 154.17 364.513 153.664 364.39 153.18C364.273 152.706 363.993 152.288 363.6 152C363.407 151.864 363.184 151.779 362.95 151.751C362.716 151.723 362.479 151.753 362.26 151.84C361.795 152.046 361.398 152.38 361.116 152.803C360.835 153.227 360.68 153.722 360.67 154.23C360.72 155.306 361.174 156.323 361.94 157.08C362.719 157.892 363.628 158.568 364.63 159.08C366.685 160.146 368.988 160.64 371.3 160.51C373.611 160.376 375.84 159.604 377.74 158.28C378.677 157.685 379.454 156.867 380 155.9C380.242 155.428 380.379 154.909 380.402 154.379C380.424 153.849 380.331 153.321 380.13 152.83C379.959 152.359 379.618 151.969 379.173 151.737C378.729 151.506 378.214 151.45 377.73 151.58C377.024 151.858 376.423 152.352 376.014 152.991C375.605 153.63 375.407 154.382 375.45 155.14C375.515 155.636 375.675 156.114 375.92 156.55C376.424 157.422 377.162 158.135 378.05 158.61C379.797 159.527 381.778 159.903 383.74 159.69C385.597 159.522 387.393 158.945 389 158C389.768 157.57 390.474 157.039 391.1 156.42C391.699 155.844 392.105 155.097 392.26 154.28C392.314 153.895 392.28 153.503 392.163 153.133C392.045 152.762 391.846 152.423 391.58 152.14C391.321 151.891 390.981 151.744 390.622 151.728C390.263 151.711 389.91 151.826 389.63 152.05C389.353 152.27 389.122 152.542 388.951 152.851C388.779 153.159 388.67 153.499 388.63 153.85C388.573 154.551 388.741 155.251 389.11 155.85C389.829 156.934 390.818 157.813 391.98 158.4C393.813 159.42 395.883 159.937 397.98 159.9C399.311 159.876 400.628 159.632 401.88 159.18C402.74 158.86 403.15 158.61 403.17 158.64Z" fill="#E33737"/>
<path d="M310.2 202.81C310.08 202.887 309.953 202.95 309.82 203L308.67 203.52C307.67 203.97 306.16 204.63 304.19 205.37C301.793 206.295 299.306 206.966 296.77 207.37C295.181 207.602 293.575 207.699 291.97 207.66C290.157 207.695 288.352 207.424 286.63 206.86C285.664 206.532 284.791 205.976 284.084 205.24C283.378 204.504 282.858 203.609 282.57 202.63C282.422 202.098 282.381 201.542 282.45 200.995C282.519 200.447 282.695 199.919 282.97 199.44C283.246 198.931 283.641 198.496 284.122 198.172C284.602 197.848 285.154 197.645 285.73 197.58C286.337 197.57 286.935 197.74 287.446 198.069C287.957 198.399 288.358 198.872 288.6 199.43C289.146 200.538 289.235 201.816 288.85 202.99C288.431 204.157 287.71 205.193 286.76 205.99C285.809 206.796 284.752 207.469 283.62 207.99C281.284 209.204 278.583 209.521 276.03 208.88C274.709 208.472 273.522 207.717 272.593 206.693C271.664 205.669 271.027 204.414 270.75 203.06C270.63 202.362 270.63 201.648 270.75 200.95C270.846 200.217 271.144 199.524 271.61 198.95C271.831 198.638 272.118 198.378 272.449 198.186C272.78 197.995 273.149 197.877 273.53 197.84C273.935 197.832 274.332 197.953 274.664 198.185C274.996 198.416 275.247 198.747 275.38 199.13C275.571 199.85 275.604 200.602 275.476 201.336C275.348 202.07 275.063 202.767 274.64 203.38C273.901 204.637 272.954 205.76 271.84 206.7C269.647 208.577 266.845 209.588 263.959 209.544C261.074 209.499 258.304 208.403 256.17 206.46C255.144 205.506 254.444 204.254 254.17 202.88C254.033 202.187 254.077 201.47 254.3 200.8C254.543 200.142 254.945 199.555 255.47 199.09C255.989 198.614 256.642 198.311 257.34 198.22C257.697 198.169 258.062 198.196 258.408 198.302C258.753 198.407 259.072 198.588 259.34 198.83C259.808 199.319 260.137 199.925 260.294 200.584C260.45 201.243 260.428 201.932 260.23 202.58C259.839 203.796 259.123 204.882 258.16 205.72C257.272 206.547 256.296 207.275 255.25 207.89C253.249 209.072 251.026 209.828 248.72 210.11C246.564 210.394 244.372 210.2 242.3 209.54C241.314 209.21 240.413 208.667 239.66 207.95C238.931 207.256 238.432 206.356 238.23 205.37C238.013 204.43 238.104 203.445 238.49 202.56C238.674 202.133 238.963 201.76 239.331 201.475C239.698 201.191 240.131 201.003 240.59 200.93C241.021 200.864 241.461 200.89 241.881 201.006C242.301 201.121 242.693 201.324 243.03 201.6C243.347 201.865 243.587 202.212 243.723 202.603C243.858 202.994 243.885 203.415 243.8 203.82C243.633 204.559 243.229 205.222 242.65 205.71C242.139 206.157 241.57 206.534 240.96 206.83C239.905 207.352 238.803 207.774 237.67 208.09C236.108 208.537 234.494 208.776 232.87 208.8C232.305 208.82 231.74 208.797 231.18 208.73H231.61C231.9 208.73 232.32 208.73 232.87 208.73C234.476 208.657 236.068 208.389 237.61 207.93C238.725 207.595 239.809 207.163 240.85 206.64C241.437 206.348 241.982 205.978 242.47 205.54C242.979 205.081 243.33 204.471 243.47 203.8C243.541 203.444 243.515 203.076 243.394 202.734C243.272 202.393 243.06 202.09 242.78 201.86C242.473 201.619 242.121 201.444 241.745 201.344C241.368 201.244 240.975 201.222 240.59 201.28C240.186 201.349 239.806 201.519 239.486 201.774C239.166 202.029 238.916 202.362 238.76 202.74C238.411 203.554 238.334 204.459 238.54 205.32C238.784 206.245 239.267 207.09 239.941 207.77C240.615 208.449 241.456 208.939 242.38 209.19C244.392 209.824 246.52 210.001 248.61 209.71C252.043 209.28 255.253 207.775 257.78 205.41C258.683 204.63 259.355 203.616 259.72 202.48C259.892 201.918 259.913 201.32 259.779 200.748C259.646 200.175 259.363 199.648 258.96 199.22C258.49 198.862 257.904 198.692 257.315 198.744C256.727 198.796 256.18 199.066 255.78 199.5C255.331 199.909 254.988 200.42 254.78 200.99C254.587 201.581 254.55 202.211 254.67 202.82C254.94 204.09 255.601 205.244 256.56 206.12C258.605 207.976 261.258 209.021 264.02 209.06C266.782 209.098 269.463 208.128 271.56 206.33C272.635 205.431 273.545 204.352 274.25 203.14C274.615 202.567 274.876 201.934 275.02 201.27C275.181 200.634 275.16 199.965 274.96 199.34C274.868 199.053 274.688 198.802 274.446 198.623C274.203 198.443 273.911 198.344 273.61 198.34C273.303 198.377 273.007 198.478 272.742 198.637C272.477 198.795 272.248 199.007 272.07 199.26C271.695 199.787 271.434 200.387 271.305 201.021C271.176 201.654 271.181 202.308 271.32 202.94C271.581 204.202 272.175 205.371 273.04 206.325C273.905 207.28 275.01 207.986 276.24 208.37C278.675 208.982 281.249 208.683 283.48 207.53C285.66 206.48 287.75 204.96 288.48 202.79C288.83 201.729 288.751 200.573 288.26 199.57C288.061 199.088 287.722 198.676 287.287 198.387C286.852 198.099 286.341 197.946 285.82 197.95C285.313 198.009 284.828 198.189 284.405 198.474C283.982 198.76 283.634 199.142 283.39 199.59C283.139 200.021 282.976 200.498 282.913 200.993C282.849 201.487 282.886 201.99 283.02 202.47C283.287 203.392 283.771 204.237 284.433 204.933C285.094 205.629 285.912 206.156 286.82 206.47C288.501 207.035 290.266 207.313 292.04 207.29C293.627 207.342 295.216 207.258 296.79 207.04C299.311 206.672 301.787 206.045 304.18 205.17C306.18 204.46 307.66 203.83 308.69 203.42L309.86 202.94L310.2 202.81Z" fill="#E33737"/>
<path d="M105.18 161.26L104.05 252.38C103.86 267.87 106.74 290.67 131.25 289.86C152.47 287.55 158.1 267.47 158.25 253.01C158.33 246.15 158.41 240.43 158.46 239.73C158.46 239.73 181.68 237.83 183.64 214.89C184.59 203.81 184.64 180.82 184.53 160.02C184.443 149.247 180.302 138.902 172.933 131.043C165.564 123.185 155.506 118.389 144.76 117.61L142.54 117.44C118.56 117.1 104.87 137.27 105.18 161.26Z" fill="#FFBE9D"/>
<path d="M158.47 239.73C158.47 239.73 143.94 239.52 129.23 228.73C129.23 228.73 135.29 246.03 158.35 245.63L158.47 239.73Z" fill="#EB996E"/>
<path d="M145.32 169.42C144.87 169.89 142.22 167.75 138.37 167.65C134.52 167.55 131.66 169.43 131.26 168.94C131.06 168.72 131.53 167.87 132.79 166.99C134.475 165.86 136.474 165.293 138.5 165.37C140.505 165.421 142.439 166.123 144.01 167.37C145.17 168.34 145.55 169.22 145.32 169.42Z" fill="#263238"/>
<path d="M145.21 177.37C145.156 178.178 144.79 178.934 144.189 179.477C143.588 180.02 142.8 180.308 141.99 180.28C141.195 180.28 140.432 179.964 139.869 179.401C139.306 178.839 138.99 178.076 138.99 177.28C139.042 176.473 139.406 175.717 140.005 175.174C140.604 174.631 141.392 174.342 142.2 174.37C142.595 174.369 142.986 174.445 143.351 174.595C143.716 174.746 144.048 174.966 144.328 175.245C144.608 175.524 144.83 175.855 144.981 176.22C145.132 176.584 145.21 176.975 145.21 177.37Z" fill="#263238"/>
<path d="M155 196.15C155 195.95 157.22 195.73 160.8 195.54C161.71 195.54 162.58 195.39 162.8 194.79C162.946 193.867 162.807 192.921 162.4 192.08L160.15 185C157.15 175 155.08 166.74 155.48 166.62C155.88 166.5 158.64 174.55 161.62 184.62C162.34 187.1 163.02 189.45 163.62 191.71C163.89 192.76 164.39 193.96 163.83 195.28C163.677 195.589 163.455 195.859 163.181 196.069C162.907 196.279 162.589 196.423 162.25 196.49C161.743 196.588 161.226 196.622 160.71 196.59C157.17 196.5 155 196.36 155 196.15Z" fill="#263238"/>
<path d="M143.691 155C143.321 155.86 140.241 155.21 136.561 155.4C132.881 155.59 129.841 156.4 129.421 155.59C129.231 155.19 129.801 154.41 131.051 153.65C132.699 152.71 134.553 152.188 136.451 152.13C138.335 152.03 140.215 152.402 141.921 153.21C143.221 153.83 143.851 154.57 143.691 155Z" fill="#263238"/>
<path d="M180.181 162.09C179.781 162.79 176.781 162.02 173.181 161.91C169.581 161.8 166.531 162.26 166.181 161.53C166.021 161.19 166.621 160.53 167.881 160.01C169.59 159.332 171.424 159.028 173.261 159.12C175.114 159.177 176.934 159.627 178.601 160.44C179.781 161.09 180.361 161.76 180.181 162.09Z" fill="#263238"/>
<path d="M105.82 178.4C105.44 178.2 90.3805 172.58 89.7405 188.31C89.1005 204.04 105 201.45 105.07 201C105.14 200.55 105.82 178.4 105.82 178.4Z" fill="#FFBE9D"/>
<path d="M100.51 194.84C100.44 194.79 100.22 195.02 99.7505 195.21C99.1078 195.463 98.3931 195.463 97.7505 195.21C96.1105 194.53 94.8205 191.84 94.8605 189C94.8771 187.65 95.1949 186.321 95.7905 185.11C95.9587 184.627 96.2425 184.192 96.6173 183.843C96.992 183.495 97.4462 183.243 97.9405 183.11C98.257 183.037 98.589 183.079 98.878 183.227C99.167 183.375 99.3945 183.621 99.5205 183.92C99.7205 184.37 99.6005 184.68 99.6905 184.71C99.7805 184.74 100.04 184.46 99.9305 183.81C99.8609 183.421 99.6597 183.068 99.3605 182.81C98.9402 182.465 98.4025 182.297 97.8605 182.34C97.2026 182.439 96.5812 182.705 96.0558 183.113C95.5305 183.521 95.1188 184.057 94.8605 184.67C94.1414 186.005 93.7538 187.494 93.7305 189.01C93.7305 192.19 95.2105 195.22 97.4505 196.01C97.8691 196.147 98.3128 196.191 98.75 196.137C99.1873 196.083 99.6074 195.934 99.9805 195.7C100.46 195.22 100.56 194.87 100.51 194.84Z" fill="#EB996E"/>
<path d="M151.24 207.05C151.41 206.65 148.33 205.73 146.16 202.83C145.258 201.564 144.525 200.186 143.98 198.73C143.52 197.58 143.17 196.87 142.98 196.92C142.79 196.97 142.85 197.74 143.11 198.99C143.437 200.65 144.119 202.219 145.11 203.59C146.138 204.96 147.521 206.022 149.11 206.66C150.38 207.15 151.19 207.18 151.24 207.05Z" fill="#263238"/>
<path d="M180.36 170.87C179.9 171.33 177.25 169.2 173.36 169.1C169.47 169 166.65 170.88 166.24 170.39C166.04 170.17 166.52 169.32 167.77 168.44C169.455 167.31 171.453 166.743 173.48 166.82C175.488 166.871 177.425 167.573 179 168.82C180.2 169.79 180.58 170.66 180.36 170.87Z" fill="#263238"/>
<path d="M179.731 178.49C179.677 179.298 179.311 180.054 178.71 180.597C178.109 181.14 177.32 181.428 176.511 181.4C175.715 181.4 174.952 181.084 174.389 180.521C173.827 179.959 173.511 179.196 173.511 178.4C173.565 177.592 173.931 176.836 174.532 176.293C175.133 175.75 175.921 175.462 176.731 175.49C177.526 175.49 178.289 175.806 178.852 176.369C179.415 176.931 179.731 177.694 179.731 178.49Z" fill="#263238"/>
<path d="M200.54 129.56C198.977 127.021 196.554 125.13 193.712 124.23C190.87 123.331 187.799 123.483 185.06 124.66C185.763 121.019 185.257 117.248 183.618 113.922C181.979 110.596 179.297 107.896 175.982 106.236C172.666 104.575 168.898 104.044 165.253 104.724C161.608 105.403 158.285 107.256 155.79 110C155.592 109.027 155.186 108.108 154.601 107.306C154.016 106.504 153.266 105.836 152.4 105.35C150.665 104.383 148.741 103.806 146.76 103.66C142.066 103.139 137.318 103.859 132.989 105.747C128.66 107.635 124.902 110.626 122.09 114.42C117.516 113.877 112.879 114.417 108.552 115.996C104.225 117.575 100.329 120.149 97.1801 123.51C89.7901 131.7 88.3901 150.67 96.4901 167.06L98.3901 177.33C100.93 177.33 103.25 177.51 104.82 178.91C106.95 180.82 107.9 184.42 111.43 183.06C113.23 182.36 114.87 178.59 115.43 176.76C119.424 164.55 120.747 151.625 119.31 138.86C121.832 136.174 124.846 133.998 128.19 132.45L127.92 132.7C134.33 130.47 141.58 128.28 147.66 131.29C152.38 133.62 155.16 138.52 158.66 142.42C161.917 146.027 165.87 148.938 170.282 150.976C174.694 153.014 179.472 154.138 184.33 154.28C184.67 160.74 184.13 169.87 184.47 176.28L190 166C190.429 165.261 190.82 164.5 191.17 163.72L191.29 163.48C192.29 162.67 193.03 161.19 194.71 159.27C196.315 157.383 197.371 155.092 197.765 152.647C198.158 150.201 197.873 147.695 196.94 145.4C199.344 143.633 201.031 141.06 201.692 138.151C202.353 135.242 201.944 132.192 200.54 129.56Z" fill="#263238"/>
<path d="M191.13 129.8C191.13 129.8 191.19 129.91 191.25 130.14C191.331 130.468 191.378 130.803 191.39 131.14C191.441 132.428 191.126 133.704 190.48 134.82C190.023 135.59 189.426 136.268 188.72 136.82C187.881 137.462 186.894 137.882 185.85 138.04C184.636 138.231 183.394 138.104 182.244 137.671C181.094 137.238 180.076 136.514 179.29 135.57L179.68 135.24C180.059 135.655 180.352 136.14 180.543 136.669C180.733 137.198 180.817 137.759 180.79 138.32C180.778 139.07 180.616 139.811 180.314 140.498C180.012 141.185 179.575 141.804 179.03 142.32C177.995 143.24 176.69 143.798 175.31 143.91C173.016 144.077 170.735 143.449 168.85 142.13C167.594 141.277 166.434 140.292 165.39 139.19C164.99 138.808 164.622 138.393 164.29 137.95C164.73 138.285 165.145 138.653 165.53 139.05C166.617 140.078 167.796 141.005 169.05 141.82C170.879 143.043 173.068 143.61 175.26 143.43C176.532 143.314 177.733 142.796 178.69 141.95C179.668 141.004 180.236 139.711 180.27 138.35C180.307 137.347 179.948 136.37 179.27 135.63L179.66 135.29C180.389 136.167 181.33 136.843 182.395 137.253C183.459 137.662 184.611 137.792 185.74 137.63C186.652 137.492 187.521 137.151 188.282 136.632C189.044 136.112 189.679 135.428 190.14 134.63C190.778 133.569 191.123 132.358 191.14 131.12C191.22 130.28 191.09 129.81 191.13 129.8Z" fill="#455A64"/>
<path d="M171.45 112.56C171.45 112.56 171.57 112.56 171.79 112.71C172.094 112.886 172.384 113.083 172.66 113.3C173.704 114.106 174.524 115.166 175.04 116.38C175.422 117.297 175.572 118.294 175.478 119.282C175.384 120.271 175.048 121.222 174.5 122.05C173.838 123.063 172.809 123.779 171.63 124.05C171.002 124.186 170.353 124.193 169.722 124.071C169.092 123.949 168.492 123.7 167.96 123.34C167.631 123.091 167.339 122.799 167.09 122.47L167.54 122.21C167.767 122.776 167.874 123.383 167.853 123.993C167.832 124.602 167.685 125.201 167.42 125.75C166.959 126.774 166.152 127.603 165.14 128.09C164.301 128.48 163.386 128.682 162.46 128.682C161.534 128.682 160.62 128.48 159.78 128.09C158.674 127.579 157.689 126.84 156.89 125.92C156.579 125.602 156.319 125.238 156.12 124.84C156.12 124.84 156.44 125.19 157.03 125.78C157.856 126.626 158.837 127.305 159.92 127.78C160.712 128.12 161.568 128.287 162.43 128.272C163.292 128.256 164.141 128.058 164.92 127.69C165.809 127.228 166.515 126.477 166.92 125.56C167.149 125.074 167.276 124.547 167.293 124.01C167.31 123.474 167.217 122.939 167.02 122.44L166.18 120.51L167.47 122.19C167.681 122.473 167.934 122.722 168.22 122.93C168.692 123.252 169.224 123.474 169.784 123.584C170.345 123.694 170.922 123.689 171.48 123.57C172.529 123.342 173.449 122.719 174.05 121.83C174.566 121.066 174.89 120.189 174.993 119.273C175.095 118.357 174.974 117.429 174.64 116.57C174.174 115.392 173.434 114.343 172.48 113.51C171.86 112.85 171.42 112.6 171.45 112.56Z" fill="#455A64"/>
<path d="M305 227.26L268.65 255C268.141 255.391 267.717 255.882 267.405 256.443C267.093 257.004 266.898 257.622 266.833 258.261C266.769 258.9 266.836 259.545 267.029 260.157C267.223 260.769 267.54 261.335 267.96 261.82C268.747 262.729 269.853 263.301 271.05 263.419C272.246 263.536 273.442 263.189 274.39 262.45L310.39 234.45L315.26 224.84L305 227.26Z" fill="#E33737"/>
<path opacity="0.5" d="M310.6 225.93L313.17 228.93L310.39 234.45C310.056 234.485 309.718 234.444 309.402 234.329C309.086 234.214 308.8 234.028 308.567 233.786C308.334 233.544 308.159 233.252 308.055 232.932C307.952 232.612 307.923 232.273 307.97 231.94C307.641 231.985 307.307 231.948 306.996 231.832C306.685 231.716 306.408 231.524 306.19 231.274C305.971 231.024 305.819 230.724 305.745 230.4C305.672 230.076 305.681 229.74 305.77 229.42C305.77 229.42 303.88 229.25 304.95 227.26L310.6 225.93Z" fill="white"/>
<path d="M268.65 254.97L274.61 262.25L276.61 260.7L270.9 253.26L268.65 254.97Z" fill="#263238"/>
<path d="M266 324.46L264.69 324.22L291.43 277.48L287.19 264C287.19 264 282.29 244.81 286.37 239.91C286.37 239.91 295.3 229.39 298.2 229.54C301.1 229.69 303.41 230.26 303.99 232.44C303.99 232.44 308.92 231.86 310.22 233.44C311.09 234.533 311.866 235.697 312.54 236.92C312.54 236.92 317.9 236.48 319.35 241.12C319.35 241.12 324.42 243.73 324.86 247.49C325.3 251.25 323.86 268.79 322.25 273.28C320.64 277.77 314.71 287.19 312.98 301.1C311.25 315.01 305.11 324.04 299.66 344.36L284.87 350.21L266 324.46Z" fill="#FFBE9D"/>
<path d="M303.74 232.14C303.85 232.29 302.01 233.51 300.62 235.76C299.23 238.01 298.9 240.17 298.71 240.14C298.728 238.476 299.205 236.849 300.087 235.438C300.969 234.027 302.222 232.886 303.71 232.14H303.74Z" fill="#EB996E"/>
<path d="M312.251 236.92C312.351 237.08 310.591 238.14 309.201 240.16C307.811 242.18 307.371 244.16 307.201 244.16C307.031 244.16 307.201 241.97 308.711 239.84C309.529 238.497 310.776 237.468 312.251 236.92Z" fill="#EB996E"/>
<path d="M319.07 241C319.18 241.14 317.85 242.31 316.63 244.07C315.41 245.83 314.75 247.48 314.58 247.42C314.732 246.067 315.27 244.786 316.13 243.73C316.823 242.553 317.845 241.604 319.07 241Z" fill="#EB996E"/>
<path d="M294 242.52C293.03 242.204 292.02 242.032 291 242.01C290 242.166 289.028 242.473 288.12 242.92C288.07 242.92 288.26 242.54 288.75 242.18C289.401 241.728 290.163 241.462 290.954 241.409C291.744 241.356 292.535 241.519 293.24 241.88C293.76 242.17 294 242.46 294 242.52Z" fill="#EB996E"/>
<path d="M304.62 249.19C304.015 248.208 303.27 247.319 302.41 246.55C300.9 245.37 299.26 245.3 299.28 245.12C299.3 244.94 299.69 244.95 300.36 245.03C301.24 245.165 302.072 245.519 302.779 246.059C303.487 246.599 304.048 247.307 304.41 248.12C304.67 248.75 304.69 249.17 304.62 249.19Z" fill="#EB996E"/>
<path d="M315.211 251.45C315.081 251.58 313.911 250.26 311.921 249.74C310.702 249.506 309.456 249.445 308.221 249.56C308.221 249.49 308.571 249.25 309.281 249.08C310.207 248.885 311.167 248.912 312.081 249.159C312.995 249.405 313.838 249.865 314.541 250.5C315.061 251 315.261 251.41 315.211 251.45Z" fill="#EB996E"/>
<path d="M45.4103 302.44C45.4103 302.44 29.0003 395.52 29.8103 404.23C30.6203 412.94 34.9603 426.78 44.8103 429.15C51.0664 430.548 57.5541 430.548 63.8103 429.15L52.0003 314.82L45.4103 302.44Z" fill="#E33737"/>
<path d="M93.4003 254.42C93.4003 254.42 73.7803 268.42 69.4003 272.47C51.2603 289.62 47.4703 296.64 45.4003 302.47C43.3303 308.3 58.0003 443 58.0003 443L61.0003 466.55L198.67 466.9V346.61L178 261.94L165.27 258.32L162.7 248.23C162.7 248.23 146.89 236.55 120.81 236.23C112.81 236.12 101.43 239.28 95.0903 244.23L93.4003 254.42Z" fill="#E33737"/>
<path d="M162.561 262.29C162.561 262.29 176.711 261.66 177.961 261.94C182.321 262.94 194.291 273.94 207.961 287.46C220.961 300.36 246.581 327.21 246.581 327.21C246.581 327.21 251.181 322.57 256.431 328.77L276.641 299.37C276.641 299.37 307.001 303.09 311.721 326C311.721 326 302.421 343.76 294.801 356.45C294.801 356.45 266.611 403.24 244.341 394.76C224.001 387 198.491 366.32 194.901 361.9L164.901 340.53C164.901 340.53 144.381 301.41 153.451 281.85L162.561 262.29Z" fill="#E33737"/>
<path d="M165.23 258.32C164.985 258.298 164.744 258.248 164.51 258.17L162.51 257.63C160.74 257.18 158.16 256.56 154.94 255.95C146.541 254.397 138.055 253.352 129.53 252.82C121.01 252.215 112.457 252.242 103.94 252.9C100.67 253.18 98.0502 253.59 96.2502 253.9L94.1802 254.31C93.943 254.379 93.6971 254.412 93.4502 254.41C93.6751 254.312 93.9097 254.238 94.1502 254.19L96.2002 253.67C98.7419 253.121 101.313 252.717 103.9 252.46C112.436 251.678 121.021 251.594 129.57 252.21C138.112 252.737 146.609 253.846 155 255.53C158.22 256.2 160.79 256.88 162.56 257.41L164.56 258.06C164.793 258.121 165.018 258.208 165.23 258.32Z" fill="#263238"/>
<path d="M111.61 251.32C111.44 251.32 110.99 249.04 110.61 246.17C110.23 243.3 110.02 240.97 110.19 240.94C110.715 242.614 111.051 244.341 111.19 246.09C111.59 249 111.78 251.3 111.61 251.32Z" fill="#263238"/>
<path d="M116.75 250.88C115.383 247.577 115.13 243.919 116.03 240.46C116.21 240.46 115.94 242.82 116.14 245.69C116.34 248.56 116.92 250.83 116.75 250.88Z" fill="#263238"/>
<g opacity="0.3">
<path d="M93.8506 254.31C115.391 258.12 137.231 254.31 160.031 257.04C138.031 252.48 115.091 250.32 93.8506 254.31Z" fill="black"/>
</g>
<g opacity="0.3">
<path d="M56.0005 429.33C43.8805 400.94 45.3205 368.86 47.0005 338.05L56.0005 429.33Z" fill="black"/>
</g>
<path d="M45.4103 322.73C45.4431 322.847 45.4632 322.968 45.4703 323.09C45.4703 323.36 45.5503 323.71 45.6003 324.14C45.7003 325.14 45.8503 326.47 46.0303 328.21C46.3803 331.78 46.8903 336.88 47.5103 343.21C48.7403 355.83 50.4203 373.28 52.4303 392.53C54.4403 411.78 56.4303 429.19 58.0503 441.77C58.8403 448.06 59.5203 453.15 60.0503 456.66C60.2803 458.39 60.4603 459.75 60.5803 460.71C60.6403 461.15 60.6803 461.5 60.7103 461.77C60.7211 461.89 60.7211 462.01 60.7103 462.13C60.6697 462.017 60.6429 461.899 60.6303 461.78L60.4403 460.73C60.2903 459.73 60.0703 458.42 59.8003 456.73C59.2503 453.22 58.5003 448.14 57.6503 441.86C55.9403 429.29 53.8603 411.86 51.8503 392.62C49.8403 373.38 48.2303 355.91 47.1103 343.28C46.5703 336.99 46.1103 331.88 45.8203 328.28C45.6903 326.54 45.5803 325.18 45.5103 324.21C45.5103 323.77 45.5103 323.42 45.4403 323.14C45.4135 323.005 45.4034 322.867 45.4103 322.73Z" fill="#263238"/>
<path d="M138.611 307.5C138.32 307.545 138.025 307.562 137.731 307.55H135.181C132.981 307.55 129.781 307.55 125.841 307.66C117.951 307.84 107.061 308.42 95.1107 309.83C83.1607 311.24 72.4307 313.28 64.7207 315C60.8607 315.83 57.7207 316.55 55.6107 317.08L53.1307 317.66C52.8458 317.738 52.5547 317.791 52.2607 317.82C52.5317 317.702 52.8129 317.608 53.1007 317.54L55.5507 316.85C57.6807 316.25 60.7807 315.47 64.6307 314.58C84.7107 309.965 105.229 307.521 125.831 307.29C129.831 307.29 132.981 307.29 135.191 307.37L137.731 307.47C138.024 307.456 138.319 307.466 138.611 307.5Z" fill="#263238"/>
<path d="M85.7508 337.64C85.5808 337.64 85.9008 324.75 86.4508 308.86C87.0008 292.97 87.6008 280.08 87.7708 280.09C87.9408 280.1 87.6208 292.98 87.0608 308.88C86.5008 324.78 85.9108 337.65 85.7508 337.64Z" fill="#263238"/>
<path d="M156.1 336.05C155.913 335.791 155.743 335.521 155.59 335.24C155.237 334.647 154.777 333.857 154.21 332.87L149.13 324.14C146.56 319.84 144.426 315.294 142.76 310.57C141.837 307.748 141.2 304.84 140.86 301.89C140.57 298.717 140.57 295.523 140.86 292.35C141.283 286.2 142.821 280.179 145.4 274.58C146.585 272.156 148.096 269.905 149.89 267.89C151.469 266.153 153.279 264.642 155.27 263.4C158.138 261.556 161.421 260.456 164.82 260.2C166.057 260.097 167.303 260.167 168.52 260.41C167.295 260.345 166.066 260.345 164.84 260.41C161.505 260.746 158.3 261.885 155.5 263.73C153.559 264.975 151.796 266.479 150.26 268.2C148.519 270.193 147.055 272.413 145.91 274.8C143.385 280.346 141.878 286.301 141.46 292.38C141.18 295.51 141.18 298.66 141.46 301.79C141.791 304.7 142.408 307.57 143.3 310.36C144.935 315.061 147.014 319.595 149.51 323.9L154.42 332.72L155.71 335.15C155.867 335.438 155.998 335.739 156.1 336.05Z" fill="#263238"/>
<g opacity="0.3">
<path d="M54.49 317.71C63.19 317.259 71.8404 316.119 80.36 314.3C79.3088 318.064 78.8202 321.963 78.91 325.87C81.6115 322.826 83.5787 319.203 84.66 315.28C84.9696 317.415 85.7077 319.465 86.8299 321.307C87.952 323.149 89.4351 324.746 91.19 326C92.0471 322.131 92.2432 318.145 91.77 314.21C104.643 312.663 117.43 310.547 130.13 307.86C104.425 307.237 78.7693 310.429 54 317.33" fill="black"/>
</g>
<path d="M220.001 381.87C219.79 381.779 219.592 381.661 219.411 381.52L217.761 380.42C216.341 379.42 214.301 378.05 211.761 376.28C206.761 372.76 199.851 367.81 192.341 362.21C184.831 356.61 178.121 351.41 173.341 347.6C170.941 345.7 169.001 344.14 167.671 343.05L166.151 341.79C165.964 341.652 165.793 341.495 165.641 341.32C165.845 341.433 166.039 341.563 166.221 341.71L167.801 342.89L173.571 347.31C178.441 351.05 185.181 356.19 192.691 361.79C200.201 367.39 207.001 372.38 212.001 376L217.881 380.28L219.471 381.45C219.658 381.575 219.836 381.716 220.001 381.87Z" fill="#263238"/>
<path d="M253.591 351.19C253.501 351.19 253.591 349.67 253.381 347.26C252.927 340.942 251.025 334.814 247.821 329.35C246.591 327.26 245.691 326.05 245.761 325.99C246.031 326.224 246.27 326.493 246.471 326.79C247.065 327.551 247.619 328.342 248.131 329.16C251.558 334.589 253.496 340.825 253.751 347.24C253.805 348.203 253.805 349.167 253.751 350.13C253.744 350.489 253.691 350.845 253.591 351.19Z" fill="#263238"/>
<path d="M259.79 348.92C259.818 347.89 259.902 346.861 260.04 345.84C260.226 343.374 260.179 340.897 259.9 338.44C259.616 335.983 259.097 333.558 258.35 331.2C257.78 329.38 257.35 328.29 257.41 328.25C257.582 328.471 257.721 328.717 257.82 328.98C258.15 329.664 258.444 330.365 258.7 331.08C260.419 335.812 261.001 340.882 260.4 345.88C260.28 346.83 260.15 347.6 260.03 348.12C259.988 348.397 259.907 348.666 259.79 348.92Z" fill="#263238"/>
<path d="M306.75 336.05C306.75 336.05 306.75 335.86 306.52 335.67C306.348 335.561 306.206 335.41 306.11 335.23C306 335.02 305.92 334.77 305.78 334.53C305.51 334.02 304.84 333.64 304.36 332.9C303.841 332.079 303.437 331.191 303.16 330.26C302.477 327.884 301.306 325.677 299.72 323.78C298.769 322.677 297.736 321.648 296.63 320.7C295.456 319.663 294.21 318.71 292.9 317.85C291.632 316.925 290.295 316.1 288.9 315.38L284.9 313.44C283.64 312.84 282.46 312.22 281.31 311.73L278.11 310.36C277.635 310.178 277.17 309.968 276.72 309.73C276.29 309.48 275.94 309.2 275.58 309L274.58 308.45C274.26 308.28 273.99 308.05 273.75 307.9C273.26 307.59 272.83 307.42 272.55 307.27C272.27 307.12 272.13 307.04 272.14 307.02C272.296 307.055 272.447 307.109 272.59 307.18C273.026 307.332 273.451 307.516 273.86 307.73C274.467 308.112 275.102 308.446 275.76 308.73C276.15 308.92 276.52 309.2 276.92 309.42C277.32 309.64 277.82 309.8 278.3 310.01L281.52 311.31C282.67 311.78 283.87 312.4 285.15 312.99L289.15 314.9C290.564 315.626 291.918 316.462 293.2 317.4C294.533 318.268 295.797 319.238 296.98 320.3C298.102 321.266 299.145 322.319 300.1 323.45C301.706 325.402 302.872 327.677 303.52 330.12C303.771 331.03 304.137 331.903 304.61 332.72C305.03 333.42 305.68 333.83 305.96 334.41C306.11 334.69 306.17 334.95 306.26 335.14C306.341 335.309 306.457 335.459 306.6 335.58C306.85 335.84 306.76 336.07 306.75 336.05Z" fill="#263238"/>
<path d="M178.46 464.58C178.32 464.58 178.2 439.28 178.2 408.07C178.2 376.86 178.32 351.56 178.46 351.56C178.6 351.56 178.72 376.86 178.72 408.07C178.72 439.28 178.61 464.58 178.46 464.58Z" fill="#263238"/>
</svg>
