<svg width="500" height="500" viewBox="0 0 500 500" fill="none" xmlns="http://www.w3.org/2000/svg">
<path d="M296.41 435.67L424.1 387.76L425.02 377.55L298.27 425.45L296.41 435.67Z" fill="#F6B6B6" stroke="#2E353A" stroke-width="1.13593" stroke-linecap="round" stroke-linejoin="round"/>
<path d="M274.91 266.31C272.666 266.293 270.498 265.502 268.77 264.07C266.599 262.279 265.173 259.745 264.77 256.96C264.719 256.463 264.862 255.965 265.168 255.569C265.474 255.174 265.92 254.911 266.415 254.836C266.909 254.76 267.413 254.877 267.824 255.162C268.234 255.448 268.519 255.88 268.62 256.37C268.881 258.196 269.811 259.861 271.23 261.04C271.847 261.572 272.572 261.964 273.356 262.189C274.139 262.413 274.962 262.465 275.767 262.34C276.573 262.216 277.341 261.918 278.02 261.467C278.699 261.016 279.272 260.424 279.7 259.73C279.995 259.322 280.436 259.043 280.931 258.953C281.426 258.862 281.937 258.967 282.357 259.245C282.777 259.522 283.073 259.952 283.184 260.443C283.294 260.934 283.211 261.449 282.95 261.88C282.22 263.025 281.255 264.001 280.119 264.744C278.983 265.487 277.701 265.98 276.36 266.19C275.881 266.27 275.396 266.31 274.91 266.31Z" fill="#2E353A"/>
<path d="M256.48 272C251.55 272 247.14 268.08 246.31 262.66C246.27 262.408 246.281 262.15 246.34 261.902C246.4 261.654 246.509 261.42 246.659 261.214C246.81 261.007 246.999 260.833 247.217 260.7C247.436 260.567 247.678 260.479 247.93 260.44C248.44 260.373 248.956 260.505 249.372 260.808C249.787 261.112 250.069 261.564 250.16 262.07C250.74 265.88 253.95 268.56 257.3 268.07C258.104 267.939 258.871 267.638 259.551 267.189C260.23 266.739 260.806 266.149 261.24 265.46C261.535 265.052 261.976 264.773 262.471 264.683C262.966 264.592 263.477 264.697 263.897 264.975C264.317 265.252 264.613 265.682 264.724 266.173C264.834 266.664 264.751 267.179 264.49 267.61C263.76 268.755 262.795 269.731 261.659 270.474C260.523 271.217 259.241 271.71 257.9 271.92C257.43 271.986 256.955 272.012 256.48 272Z" fill="#2E353A"/>
<path d="M239.62 278.47C237.378 278.455 235.209 277.667 233.48 276.24C231.312 274.448 229.886 271.914 229.48 269.13C229.43 268.632 229.572 268.135 229.878 267.739C230.184 267.344 230.63 267.081 231.125 267.006C231.619 266.93 232.123 267.047 232.534 267.332C232.944 267.618 233.229 268.05 233.33 268.54C233.591 270.366 234.521 272.031 235.94 273.21C236.564 273.732 237.29 274.118 238.072 274.342C238.854 274.566 239.674 274.623 240.48 274.51C241.283 274.379 242.049 274.078 242.726 273.628C243.404 273.178 243.978 272.589 244.41 271.9C244.737 271.583 245.162 271.387 245.615 271.345C246.069 271.303 246.523 271.416 246.903 271.667C247.283 271.917 247.566 272.29 247.705 272.723C247.845 273.157 247.832 273.625 247.67 274.05C246.937 275.194 245.97 276.17 244.832 276.913C243.695 277.656 242.412 278.149 241.07 278.36C240.591 278.437 240.106 278.474 239.62 278.47Z" fill="#2E353A"/>
<path d="M221.19 283.75C216.26 283.75 211.85 279.82 211.02 274.41C210.969 274.152 210.97 273.886 211.024 273.629C211.077 273.371 211.183 273.127 211.333 272.912C211.484 272.696 211.677 272.513 211.9 272.374C212.123 272.234 212.372 272.142 212.632 272.101C212.892 272.061 213.157 272.073 213.412 272.138C213.667 272.203 213.907 272.318 214.116 272.478C214.325 272.638 214.499 272.838 214.629 273.067C214.759 273.296 214.841 273.549 214.87 273.81C215.46 277.62 218.66 280.3 222.01 279.81C222.813 279.679 223.579 279.379 224.258 278.931C224.937 278.483 225.514 277.897 225.95 277.21C226.082 276.978 226.26 276.775 226.473 276.614C226.686 276.453 226.93 276.338 227.19 276.275C227.449 276.213 227.719 276.204 227.982 276.25C228.245 276.296 228.496 276.396 228.719 276.542C228.942 276.689 229.133 276.88 229.279 277.104C229.425 277.327 229.524 277.579 229.569 277.842C229.614 278.105 229.604 278.375 229.541 278.634C229.478 278.894 229.361 279.137 229.2 279.35C228.469 280.494 227.503 281.471 226.368 282.216C225.232 282.96 223.951 283.456 222.61 283.67C222.139 283.731 221.665 283.758 221.19 283.75Z" fill="#2E353A"/>
<path d="M202.32 291.25C197.4 291.25 192.99 287.33 192.15 281.91C192.18 281.456 192.365 281.026 192.673 280.691C192.981 280.355 193.394 280.135 193.843 280.067C194.293 279.998 194.753 280.085 195.147 280.312C195.541 280.54 195.845 280.896 196.01 281.32C196.59 285.13 199.8 287.8 203.15 287.32C203.954 287.187 204.72 286.886 205.399 286.436C206.078 285.986 206.654 285.398 207.09 284.71C207.385 284.302 207.826 284.023 208.321 283.933C208.816 283.842 209.327 283.947 209.747 284.225C210.167 284.502 210.463 284.932 210.574 285.423C210.684 285.914 210.601 286.429 210.34 286.86C209.609 288.003 208.643 288.979 207.507 289.722C206.371 290.465 205.091 290.958 203.75 291.17C203.276 291.231 202.798 291.258 202.32 291.25Z" fill="#2E353A"/>
<path d="M184.05 297.94C181.808 297.926 179.639 297.139 177.91 295.71C175.742 293.918 174.316 291.384 173.91 288.6C173.86 288.103 174.002 287.605 174.308 287.209C174.614 286.814 175.06 286.551 175.555 286.476C176.049 286.4 176.553 286.517 176.964 286.802C177.374 287.088 177.659 287.52 177.76 288.01C178.021 289.836 178.951 291.501 180.37 292.68C180.987 293.212 181.712 293.604 182.496 293.829C183.279 294.053 184.102 294.105 184.907 293.98C185.713 293.856 186.481 293.558 187.16 293.107C187.839 292.656 188.412 292.064 188.84 291.37C189.167 291.053 189.592 290.858 190.045 290.815C190.499 290.773 190.953 290.886 191.333 291.137C191.713 291.387 191.996 291.76 192.135 292.193C192.275 292.627 192.262 293.095 192.1 293.52C191.367 294.664 190.4 295.64 189.262 296.383C188.125 297.126 186.842 297.619 185.5 297.83C185.021 297.907 184.536 297.944 184.05 297.94Z" fill="#2E353A"/>
<path d="M299.91 429.44L405.58 390.51" stroke="#2E353A" stroke-width="0.567964" stroke-linecap="round" stroke-linejoin="round"/>
<path d="M297.13 432.69L364.79 407.66" stroke="#2E353A" stroke-width="0.567964" stroke-linecap="round" stroke-linejoin="round"/>
<path d="M169.18 293.45V305.52L296.41 435.67L298.27 425.45L169.18 293.45Z" fill="#F6B6B6" stroke="#2E353A" stroke-width="1.13593" stroke-linecap="round" stroke-linejoin="round"/>
<path d="M171.07 302.92L246.62 378.46" stroke="#2E353A" stroke-width="0.567964" stroke-linecap="round" stroke-linejoin="round"/>
<path d="M206.76 335.36L285.54 416" stroke="#2E353A" stroke-width="0.567964" stroke-linecap="round" stroke-linejoin="round"/>
<path d="M169.18 293.45L298.27 425.45L425.02 377.55L293.65 251.65L169.18 293.45Z" fill="white" stroke="#2E353A" stroke-width="1.13593" stroke-linecap="round" stroke-linejoin="round"/>
<path d="M167.6 291.37L48.04 179.78L170.51 141.59L292.71 249.66L167.6 291.37Z" fill="#F6B6B6" stroke="#2E353A" stroke-width="1.13593" stroke-linecap="round" stroke-linejoin="round"/>
<path d="M66.3401 180.52L101.34 169.62" stroke="#2E353A" stroke-width="1.21052" stroke-linecap="round" stroke-linejoin="round"/>
<path d="M71.51 184.54L106.51 173.64" stroke="#2E353A" stroke-width="1.21052" stroke-linecap="round" stroke-linejoin="round"/>
<path d="M190.46 294.39C190.079 294.392 189.707 294.281 189.39 294.07C188.968 293.778 188.675 293.334 188.57 292.832C188.466 292.329 188.559 291.806 188.83 291.37C189.829 289.818 190.214 287.95 189.91 286.13C189.74 284.75 189.164 283.452 188.254 282.402C187.344 281.351 186.141 280.595 184.8 280.23C184.316 280.097 183.901 279.783 183.643 279.353C183.385 278.922 183.302 278.408 183.413 277.919C183.524 277.429 183.819 277.001 184.238 276.724C184.656 276.446 185.166 276.341 185.66 276.43C187.765 276.969 189.661 278.124 191.105 279.747C192.55 281.37 193.478 283.387 193.77 285.54C194.227 288.323 193.628 291.176 192.09 293.54C191.906 293.802 191.662 294.015 191.378 294.163C191.095 294.311 190.78 294.389 190.46 294.39Z" fill="#2E353A"/>
<path d="M208.71 287.7C208.329 287.702 207.957 287.591 207.64 287.38C207.426 287.24 207.241 287.058 207.098 286.846C206.954 286.634 206.854 286.396 206.802 286.145C206.751 285.894 206.75 285.635 206.8 285.383C206.849 285.132 206.948 284.893 207.09 284.68C208.085 283.127 208.469 281.26 208.17 279.44C208 278.06 207.424 276.762 206.514 275.712C205.604 274.661 204.401 273.905 203.06 273.54C202.798 273.497 202.548 273.4 202.325 273.257C202.102 273.114 201.91 272.926 201.762 272.706C201.614 272.486 201.512 272.239 201.463 271.978C201.413 271.717 201.418 271.449 201.476 271.19C201.534 270.932 201.644 270.687 201.799 270.472C201.955 270.258 202.153 270.077 202.381 269.941C202.608 269.805 202.862 269.717 203.125 269.683C203.388 269.648 203.655 269.668 203.91 269.74C206.015 270.279 207.911 271.434 209.355 273.057C210.8 274.68 211.728 276.697 212.02 278.85C212.477 281.633 211.878 284.486 210.34 286.85C210.156 287.112 209.912 287.325 209.629 287.473C209.345 287.621 209.03 287.699 208.71 287.7Z" fill="#2E353A"/>
<path d="M281.32 262.76C280.978 262.743 280.646 262.638 280.355 262.455C280.065 262.273 279.827 262.019 279.663 261.717C279.5 261.416 279.416 261.078 279.421 260.735C279.426 260.392 279.518 260.057 279.69 259.76C280.69 258.213 281.076 256.347 280.77 254.53C280.602 253.149 280.026 251.848 279.116 250.796C278.206 249.743 277.003 248.986 275.66 248.62C275.41 248.566 275.174 248.462 274.965 248.316C274.755 248.169 274.577 247.983 274.44 247.767C274.304 247.551 274.211 247.31 274.168 247.059C274.125 246.807 274.133 246.549 274.19 246.3C274.314 245.801 274.625 245.369 275.059 245.094C275.493 244.818 276.016 244.72 276.52 244.82C278.625 245.359 280.521 246.514 281.966 248.137C283.41 249.76 284.338 251.777 284.63 253.93C285.088 256.714 284.485 259.569 282.94 261.93C282.759 262.191 282.517 262.403 282.234 262.548C281.952 262.693 281.638 262.766 281.32 262.76Z" fill="#2E353A"/>
<path d="M262.86 268.43C262.479 268.432 262.107 268.321 261.79 268.11C261.576 267.97 261.391 267.788 261.248 267.576C261.104 267.364 261.004 267.126 260.952 266.875C260.901 266.624 260.9 266.365 260.95 266.113C260.999 265.862 261.098 265.623 261.24 265.41C262.236 263.857 262.62 261.99 262.32 260.17C262.15 258.79 261.574 257.492 260.664 256.442C259.754 255.391 258.551 254.635 257.21 254.27C256.948 254.227 256.698 254.13 256.475 253.987C256.252 253.844 256.06 253.656 255.912 253.436C255.764 253.216 255.662 252.969 255.613 252.708C255.563 252.447 255.568 252.179 255.626 251.921C255.684 251.662 255.794 251.417 255.949 251.202C256.105 250.988 256.303 250.807 256.531 250.671C256.758 250.535 257.012 250.447 257.275 250.413C257.538 250.378 257.805 250.398 258.06 250.47C260.166 251.007 262.063 252.161 263.509 253.784C264.954 255.408 265.881 257.426 266.17 259.58C266.627 262.363 266.028 265.216 264.49 267.58C264.306 267.842 264.062 268.055 263.779 268.203C263.495 268.351 263.18 268.429 262.86 268.43Z" fill="#2E353A"/>
<path d="M246 274.93C245.619 274.929 245.246 274.814 244.93 274.6C244.508 274.308 244.215 273.864 244.11 273.362C244.006 272.859 244.099 272.336 244.37 271.9C245.374 270.35 245.763 268.481 245.46 266.66C245.29 265.28 244.714 263.982 243.804 262.932C242.894 261.881 241.691 261.125 240.35 260.76C240.088 260.717 239.838 260.62 239.615 260.477C239.392 260.334 239.2 260.146 239.052 259.926C238.904 259.706 238.802 259.459 238.753 259.198C238.703 258.937 238.708 258.669 238.766 258.411C238.824 258.152 238.934 257.907 239.089 257.693C239.245 257.478 239.443 257.297 239.671 257.161C239.898 257.025 240.152 256.937 240.415 256.903C240.678 256.868 240.945 256.888 241.2 256.96C243.305 257.499 245.201 258.654 246.646 260.277C248.09 261.9 249.018 263.917 249.31 266.07C249.767 268.853 249.168 271.706 247.63 274.07C247.447 274.334 247.204 274.549 246.92 274.699C246.636 274.849 246.321 274.928 246 274.93Z" fill="#2E353A"/>
<path d="M227.57 280.2C227.19 280.197 226.819 280.086 226.5 279.88C226.286 279.74 226.101 279.558 225.958 279.346C225.814 279.134 225.714 278.896 225.662 278.645C225.611 278.394 225.61 278.135 225.66 277.884C225.709 277.632 225.808 277.393 225.95 277.18C226.945 275.627 227.329 273.76 227.03 271.94C226.86 270.56 226.284 269.262 225.374 268.212C224.464 267.161 223.261 266.405 221.92 266.04C221.62 266.04 221.324 265.973 221.054 265.843C220.784 265.714 220.546 265.525 220.359 265.291C220.171 265.057 220.039 264.784 219.971 264.492C219.903 264.2 219.902 263.897 219.967 263.604C220.032 263.312 220.163 263.038 220.348 262.802C220.534 262.567 220.769 262.376 221.039 262.244C221.308 262.112 221.603 262.043 221.903 262.04C222.202 262.038 222.499 262.102 222.77 262.23C224.877 262.766 226.775 263.92 228.22 265.543C229.665 267.167 230.592 269.186 230.88 271.34C231.338 274.123 230.739 276.976 229.2 279.34C229.017 279.604 228.774 279.819 228.49 279.969C228.206 280.119 227.891 280.198 227.57 280.2Z" fill="#2E353A"/>
<path d="M400.62 374.5L405.54 372.69" stroke="#2E353A" stroke-width="0.567964" stroke-linecap="round" stroke-linejoin="round"/>
<path d="M303.49 410.38L396.15 376.16" stroke="#2E353A" stroke-width="0.567964" stroke-linecap="round" stroke-linejoin="round"/>
<path d="M306.09 394.91L394.52 362.25" stroke="#2E353A" stroke-width="0.567964" stroke-linecap="round" stroke-linejoin="round"/>
<path d="M292.47 399.94L300.21 397.08" stroke="#2E353A" stroke-width="0.567964" stroke-linecap="round" stroke-linejoin="round"/>
<path d="M281.45 389.5L383.51 351.81" stroke="#2E353A" stroke-width="0.567964" stroke-linecap="round" stroke-linejoin="round"/>
<path d="M270.44 379.07L372.49 341.38" stroke="#2E353A" stroke-width="0.567964" stroke-linecap="round" stroke-linejoin="round"/>
<path d="M357.19 332.52L361.47 330.94" stroke="#2E353A" stroke-width="0.567964" stroke-linecap="round" stroke-linejoin="round"/>
<path d="M259.42 368.63L351.07 334.78" stroke="#2E353A" stroke-width="0.567964" stroke-linecap="round" stroke-linejoin="round"/>
<path d="M248.4 358.19L350.46 320.5" stroke="#2E353A" stroke-width="0.567964" stroke-linecap="round" stroke-linejoin="round"/>
<path d="M237.38 347.76L339.44 310.07" stroke="#2E353A" stroke-width="0.567964" stroke-linecap="round" stroke-linejoin="round"/>
<path d="M226.37 337.32L328.42 299.63" stroke="#2E353A" stroke-width="0.567964" stroke-linecap="round" stroke-linejoin="round"/>
<path d="M215.35 326.88L317.4 289.19" stroke="#2E353A" stroke-width="0.567964" stroke-linecap="round" stroke-linejoin="round"/>
<path d="M302.77 280.09L306.39 278.75" stroke="#2E353A" stroke-width="0.567964" stroke-linecap="round" stroke-linejoin="round"/>
<path d="M204.33 316.44L299.63 281.25" stroke="#2E353A" stroke-width="0.567964" stroke-linecap="round" stroke-linejoin="round"/>
<path d="M223.78 294.75L295.37 268.32" stroke="#2E353A" stroke-width="0.567964" stroke-linecap="round" stroke-linejoin="round"/>
<path d="M193.32 306.01L213.03 298.73" stroke="#2E353A" stroke-width="0.567964" stroke-linecap="round" stroke-linejoin="round"/>
<g style="mix-blend-mode:multiply">
<path d="M228.72 333C239.05 334.35 238.14 316.67 235.52 310.74C233.609 312.931 232.184 315.502 231.341 318.285C230.498 321.067 230.256 323.997 230.63 326.88C230.739 328.226 231.209 329.518 231.99 330.62C232.386 331.165 232.934 331.581 233.566 331.816C234.197 332.051 234.884 332.094 235.54 331.94C236.48 331.541 237.276 330.864 237.82 330C239.72 327.48 240.98 324.36 242.98 322.05C245.75 323.92 255.59 327.12 254.17 320.24C253.39 316.44 255.28 316.87 257.31 318.73C258.15 319.49 259.47 319.08 260.51 318.62L270.51 314.22C271.783 313.571 273.161 313.154 274.58 312.99C279.38 312.75 282.52 317.21 287.23 314.06C289.23 312.74 289.69 309.16 292.23 307.8C294.04 306.8 296.17 306.74 298.23 306.46C305.31 305.52 308.93 301.78 315.47 298.4" stroke="#F6B6B6" stroke-width="1.13593" stroke-linecap="round" stroke-linejoin="round"/>
</g>
<g style="mix-blend-mode:multiply">
<path d="M236.74 344.05C240.61 344.71 243.92 341.18 247.34 340.05C251.71 338.59 253.61 336.81 257.81 335C263.36 332.62 269.88 331.52 268.72 323.13C267.93 326.13 267.84 329.43 267.23 332.57C271.73 334.8 272.94 330.97 273.4 327.57C274.911 327.532 276.403 327.231 277.81 326.68C277.81 327.31 278.01 328.02 278 328.62C280.16 329.49 281 328.9 281.45 326.99C283.84 326.54 284.69 324.3 286.71 323.75C287.22 329.36 288.65 334.27 288.32 340.01C284.49 341.01 283.89 334.4 284.86 331.66C285.86 328.76 288.74 327.21 289.8 324.18C290.02 324.55 289.85 324.98 289.97 325.38C294.79 322.5 300.97 323.28 305.75 319.91C307.25 318.85 308.32 316.73 309.91 315.99C313.37 314.39 314.4 316.27 316.98 312.5" stroke="#F6B6B6" stroke-width="1.13593" stroke-linecap="round" stroke-linejoin="round"/>
</g>
<g style="mix-blend-mode:multiply">
<path d="M271.58 377C278.53 375 281.58 357.73 279.58 351.39C277.24 343.72 274.02 352.13 273.27 356.25C272.67 359.55 271.71 368.25 274.79 370.76C281.62 376.3 285.79 364.91 286.63 359.76C286.93 362.98 284.99 366.95 285.78 370.42C291.31 371.07 294.05 366.47 293.7 361.72C294.387 362.377 294.852 363.232 295.031 364.165C295.21 365.099 295.095 366.065 294.7 366.93C299.98 366.56 299.11 357.65 299.7 354.06C299.4 356.57 299.63 359.51 301.32 361.54C302.73 363.22 305.42 363.96 307.19 362.66C308.96 361.36 308.61 357.94 306.46 357.49V379.14C306.528 379.766 306.402 380.398 306.1 380.95C305.39 381.95 303.65 381.74 302.84 380.78C302.127 379.733 301.791 378.473 301.89 377.21C301.79 370.12 303.98 360.41 309.47 355.57C309.752 356.26 309.845 357.012 309.74 357.75C310.266 357.545 310.74 357.229 311.132 356.823C311.524 356.418 311.824 355.932 312.01 355.4C312.37 356.99 313.31 358.99 314.92 358.71C315.454 358.57 315.943 358.294 316.34 357.91C318.98 355.73 321.84 354.29 323.61 351.19C323.86 351.97 324.12 352.75 324.38 353.54C324.8 352.03 326.24 351.04 327.65 350.36C329.801 349.349 332.127 348.762 334.5 348.63C336.5 348.53 338.68 348.74 340.5 347.88C341.306 347.449 342.079 346.958 342.81 346.41C344.882 345.044 347.282 344.257 349.76 344.13" stroke="#F6B6B6" stroke-width="1.13593" stroke-linecap="round" stroke-linejoin="round"/>
</g>
</svg>
