<svg width="501" height="500" viewBox="0 0 501 500" fill="none" xmlns="http://www.w3.org/2000/svg">
<path d="M423.19 188.37C423.066 191.986 422.732 195.592 422.19 199.17C417.4 230 396.74 262 366.71 273C348.82 279.53 329.04 273.42 310.01 274.08C286.08 274.92 263.25 287.08 242.12 297.17C213.59 310.82 185.46 321.27 154.39 310.66C128.56 301.83 106.54 280.56 102.12 253.03C97.9099 226.84 101.45 198.7 109.35 173.52C116.14 151.86 128.79 136.52 152.6 134.23C168.15 132.72 183.6 136.65 198.92 139.9C216.2 143.57 238.01 147.9 254.65 139.78C270.5 132.06 280.5 114.69 294.8 104.6C318.37 87.95 351.8 88.32 376.74 102.81C406.38 120 424.5 154.47 423.19 188.37Z" fill="#E33737"/>
<path opacity="0.9" d="M423.19 188.37C423.066 191.986 422.732 195.592 422.19 199.17C417.4 230 396.74 262 366.71 273C348.82 279.53 329.04 273.42 310.01 274.08C286.08 274.92 263.25 287.08 242.12 297.17C213.59 310.82 185.46 321.27 154.39 310.66C128.56 301.83 106.54 280.56 102.12 253.03C97.9099 226.84 101.45 198.7 109.35 173.52C116.14 151.86 128.79 136.52 152.6 134.23C168.15 132.72 183.6 136.65 198.92 139.9C216.2 143.57 238.01 147.9 254.65 139.78C270.5 132.06 280.5 114.69 294.8 104.6C318.37 87.95 351.8 88.32 376.74 102.81C406.38 120 424.5 154.47 423.19 188.37Z" fill="white"/>
<path d="M250.5 427.56C357.583 427.56 444.39 422.492 444.39 416.24C444.39 409.988 357.583 404.92 250.5 404.92C143.418 404.92 56.6101 409.988 56.6101 416.24C56.6101 422.492 143.418 427.56 250.5 427.56Z" fill="#F5F5F5"/>
<path d="M257.59 85.19C256.722 84.732 255.772 84.4499 254.794 84.3599C253.816 84.2699 252.831 84.3737 251.893 84.6654C250.956 84.9571 250.085 85.431 249.331 86.0598C248.578 86.6887 247.955 87.4601 247.5 88.33C245.753 87.4545 243.732 87.2997 241.871 87.8988C240.011 88.498 238.46 89.8033 237.552 91.534C236.644 93.2647 236.452 95.2826 237.016 97.1538C237.58 99.025 238.857 100.6 240.57 101.54L253.78 108.47L260.71 95.26C261.167 94.394 261.449 93.4465 261.539 92.4716C261.63 91.4967 261.527 90.5135 261.237 89.5783C260.948 88.643 260.476 87.7741 259.851 87.0211C259.225 86.2681 258.457 85.6459 257.59 85.19Z" fill="#E33737"/>
<path d="M244.61 114.76C244.06 113.719 243.118 112.939 241.993 112.592C240.868 112.245 239.651 112.36 238.61 112.91C238.038 111.911 237.101 111.172 235.996 110.851C234.89 110.529 233.703 110.65 232.685 111.187C231.666 111.724 230.896 112.636 230.537 113.729C230.178 114.823 230.258 116.014 230.76 117.05L234.9 124.89L242.75 120.75C243.79 120.201 244.57 119.263 244.919 118.14C245.267 117.017 245.156 115.801 244.61 114.76Z" fill="#E33737"/>
<path d="M196.56 128.43C190.31 136.06 191.42 143.01 193.19 149.43C185.46 144.77 178.81 155.24 180.94 159.43C171.09 166.17 179.61 178.59 190.13 175.58C195.13 187.11 219.7 188.09 219.58 181.43C239.78 185.96 231.08 163.69 224.96 161.65C233.39 160.05 232.15 149.75 226.38 146.29C233.12 138.29 229.78 128.63 221.2 127.39C213.38 118.43 201.65 122.22 196.56 128.43Z" fill="#263238"/>
<path d="M235.66 187.6C235.66 191.6 235.82 195.74 236.12 199.76C236.351 203.707 236.893 207.629 237.74 211.49C237.83 211.96 237.96 212.4 238.09 212.84L238.42 213.99C238.477 214.241 238.583 214.479 238.73 214.69C238.95 215.07 240.34 215.49 242.02 215.39C245.848 215.002 249.601 214.062 253.16 212.6L255.6 216.73C254.6 217.47 253.75 218.07 252.78 218.73C251.81 219.39 250.84 219.9 249.78 220.42C247.648 221.533 245.378 222.36 243.03 222.88C241.667 223.174 240.272 223.285 238.88 223.21C237.16 223.11 235.491 222.588 234.02 221.69C232.429 220.679 231.168 219.227 230.39 217.51L230.14 216.94L229.98 216.52L229.66 215.67C229.45 215.11 229.24 214.54 229.08 213.98C227.779 209.623 226.915 205.148 226.5 200.62C226.28 198.42 226.09 196.23 226.02 194.03C225.95 191.83 225.89 189.69 225.97 187.38L235.66 187.6Z" fill="#7F3E3B"/>
<path d="M231.17 176.69C239.35 183.86 238.17 196.26 238.17 196.26L222.5 198.93C222.5 198.93 218.6 186.13 220.82 181.68C223.16 177 226.56 172.66 231.17 176.69Z" fill="#E33737"/>
<path opacity="0.3" d="M231.17 176.69C239.35 183.86 238.17 196.26 238.17 196.26L222.5 198.93C222.5 198.93 218.6 186.13 220.82 181.68C223.16 177 226.56 172.66 231.17 176.69Z" fill="white"/>
<path opacity="0.4" d="M226.79 188.16L220.91 192.23C221.6 195.87 222.53 198.93 222.53 198.93L227.89 198.02C227.862 194.704 227.493 191.4 226.79 188.16Z" fill="#E33737"/>
<path d="M252.25 213.46L258.25 208.16L260.73 217.23C260.73 217.23 255.73 219.49 251.36 216.76L252.25 213.46Z" fill="#7F3E3B"/>
<path d="M266.19 207.8L266.77 214.88L260.77 217.23L258.29 208.16L266.19 207.8Z" fill="#7F3E3B"/>
<path d="M168.07 408.57L176.87 409.42L182.92 388.75L174.11 387.9L168.07 408.57Z" fill="#7F3E3B"/>
<path d="M112.02 373.74L118.12 380.28L133.19 365.76L127.08 359.22L112.02 373.74Z" fill="#7F3E3B"/>
<path d="M119.57 380.25L115.26 371.12C115.186 370.964 115.059 370.839 114.902 370.767C114.744 370.696 114.566 370.683 114.4 370.73L106.68 373.1C106.487 373.167 106.31 373.274 106.161 373.415C106.012 373.555 105.895 373.725 105.817 373.914C105.738 374.103 105.701 374.306 105.706 374.51C105.712 374.715 105.761 374.916 105.85 375.1C107.41 378.26 108.32 379.7 110.22 383.72C111.38 386.19 113.6 391.83 115.22 395.24C116.84 398.65 120.29 397.24 119.93 395.68C118.29 388.68 118.93 384.86 119.72 381.86C119.865 381.323 119.811 380.751 119.57 380.25Z" fill="#263238"/>
<path d="M177.8 406.74H167.13C166.938 406.742 166.752 406.807 166.601 406.924C166.449 407.041 166.34 407.205 166.29 407.39L163.97 415.82C163.914 416.019 163.905 416.229 163.944 416.432C163.984 416.636 164.07 416.827 164.196 416.991C164.322 417.155 164.485 417.288 164.671 417.378C164.858 417.468 165.063 417.513 165.27 417.51C169.03 417.51 170.81 417.51 175.5 417.51H189.84C193.74 417.51 194.55 413.57 192.94 413.21C185.71 411.61 181.54 409.41 179.31 407.3C178.896 406.927 178.356 406.727 177.8 406.74Z" fill="#263238"/>
<path opacity="0.2" d="M182.92 388.75L179.8 399.41H170.74L174.1 387.91L182.92 388.75Z" fill="black"/>
<path opacity="0.2" d="M127.08 359.22L133.19 365.76L125.42 373.24L119.31 366.7L127.08 359.22Z" fill="black"/>
<path d="M228.65 175.25C228.65 175.25 232.43 177.25 215.97 228.07L179.87 222.54C182.73 207.94 184.13 198.89 181.72 167.67C186.934 167.398 192.161 167.505 197.36 167.99C202.876 168.438 208.353 169.277 213.75 170.5C218.794 171.829 223.767 173.415 228.65 175.25Z" fill="#E33737"/>
<path opacity="0.3" d="M228.65 175.25C228.65 175.25 232.43 177.25 215.97 228.07L179.87 222.54C182.73 207.94 184.13 198.89 181.72 167.67C186.934 167.398 192.161 167.505 197.36 167.99C202.876 168.438 208.353 169.277 213.75 170.5C218.794 171.829 223.767 173.415 228.65 175.25Z" fill="white"/>
<path d="M201.81 149.79C202.04 155.22 201.59 165.04 197.36 167.99C197.36 167.99 205.79 178.74 209.69 189.48C214.61 183.33 213.75 170.48 213.75 170.48C208.08 168.18 208.9 163.84 210.56 159.9L201.81 149.79Z" fill="#7F3E3B"/>
<path opacity="0.2" d="M205.37 153.92L210.55 159.92C210.139 160.834 209.804 161.781 209.55 162.75C207.35 162.08 204.28 159.55 204.4 157.16C204.53 156.031 204.859 154.935 205.37 153.92Z" fill="black"/>
<path d="M197.62 141.05C199.3 149.81 199.83 153.55 204.87 157.51C212.47 163.51 222.87 159.51 223.87 150.39C224.74 142.21 221.87 129.25 212.74 126.86C210.733 126.31 208.619 126.285 206.6 126.786C204.581 127.287 202.724 128.298 201.207 129.721C199.69 131.145 198.563 132.934 197.935 134.918C197.307 136.901 197.199 139.013 197.62 141.05Z" fill="#7F3E3B"/>
<path d="M195.73 132.51C192.28 138.18 217.93 131.33 219.58 128.96C216.68 125.08 211.65 124.23 206.58 125.35C201.51 126.47 197.21 130.08 195.73 132.51Z" fill="#263238"/>
<path d="M202.36 130.68C205.06 134.08 207.13 143.43 199.03 147.97C193.96 142.92 194.08 140.14 193.96 137.42C193.84 134.7 199.4 127 202.36 130.68Z" fill="#263238"/>
<path d="M196.43 148.31C197.135 149.882 198.433 151.111 200.04 151.73C202.18 152.53 203.45 150.66 203.04 148.54C202.65 146.63 201.04 143.91 198.84 144.02C198.352 144.05 197.879 144.203 197.464 144.463C197.05 144.723 196.707 145.083 196.468 145.509C196.228 145.936 196.099 146.416 196.093 146.905C196.086 147.394 196.202 147.877 196.43 148.31Z" fill="#7F3E3B"/>
<path d="M215.97 228.07C215.97 228.07 224.68 283.2 213.97 320.97C206.79 346.26 183.59 396.79 183.59 396.79L168.13 395.37C168.13 395.37 186.69 341.97 191.19 320.79C198.9 284.55 189.5 224 189.5 224L215.97 228.07Z" fill="#263238"/>
<path opacity="0.2" d="M201.09 238.11L192.5 249.81C193.883 264.433 194.404 279.125 194.06 293.81C206.27 275.06 202.83 248.59 201.09 238.11Z" fill="black"/>
<path d="M185.8 397.13L166.63 396.64L167.74 390.75L187.3 391.67L185.8 397.13Z" fill="#E33737"/>
<path d="M208.07 227C208.07 227 194.92 282 179.55 313.7C167.13 339.27 129.07 373.08 129.07 373.08L121.07 363.65C121.07 363.65 147.47 327.42 156.72 310.42C179.39 268.74 165.87 236.88 179.89 222.54L208.07 227Z" fill="#263238"/>
<path d="M129.87 374.33L119.47 362.77L123.49 358L134.49 370.53L129.87 374.33Z" fill="#E33737"/>
<path d="M179.66 220.34L177.54 223.34C177.37 223.57 177.63 223.88 178.05 223.94L215.9 229.73C216.23 229.73 216.52 229.66 216.57 229.46L217.39 226.28C217.45 226.06 217.19 225.83 216.84 225.77L180.29 220.18C180.18 220.15 180.064 220.149 179.954 220.177C179.844 220.205 179.742 220.261 179.66 220.34Z" fill="#E33737"/>
<path d="M183.94 225.18L182.94 225.03C182.75 225.03 182.61 224.88 182.65 224.76L183.75 220.63C183.75 220.51 183.97 220.43 184.16 220.46L185.16 220.61C185.36 220.61 185.49 220.77 185.46 220.89L184.35 225C184.32 225.14 184.14 225.21 183.94 225.18Z" fill="#263238"/>
<path d="M213.1 229.64L212.1 229.49C211.9 229.49 211.77 229.34 211.8 229.22L212.9 225.09C212.9 224.97 213.12 224.9 213.32 224.93L214.32 225.07C214.52 225.07 214.65 225.23 214.62 225.35L213.52 229.48C213.5 229.6 213.29 229.67 213.1 229.64Z" fill="#263238"/>
<path d="M198.5 227.41L197.5 227.26C197.3 227.26 197.17 227.11 197.2 226.99L198.31 222.86C198.31 222.74 198.52 222.66 198.72 222.69L199.72 222.84C199.91 222.84 200.05 223 200.01 223.12L198.91 227.25C198.9 227.37 198.71 227.44 198.5 227.41Z" fill="#263238"/>
<path d="M212.22 141.71C212.31 142.43 212.77 142.96 213.22 142.9C213.67 142.84 214 142.21 213.9 141.49C213.8 140.77 213.35 140.24 212.9 140.3C212.45 140.36 212.13 141 212.22 141.71Z" fill="#263238"/>
<path d="M220.35 140.66C220.44 141.38 220.9 141.91 221.35 141.85C221.8 141.79 222.13 141.16 222.03 140.44C221.93 139.72 221.48 139.19 221.03 139.25C220.58 139.31 220.26 139.94 220.35 140.66Z" fill="#263238"/>
<path d="M220.83 139.31L222.49 138.59C222.49 138.59 221.78 140.06 220.83 139.31Z" fill="#263238"/>
<path d="M217.5 142.25C218.356 143.806 219.419 145.239 220.66 146.51C220.328 146.82 219.932 147.053 219.5 147.193C219.068 147.333 218.611 147.376 218.16 147.32L217.5 142.25Z" fill="#630F0F"/>
<path d="M214.62 150.49C213.125 150.408 211.717 149.761 210.68 148.68C210.66 148.663 210.644 148.642 210.632 148.619C210.621 148.595 210.615 148.569 210.615 148.543C210.615 148.516 210.62 148.49 210.631 148.467C210.642 148.443 210.658 148.422 210.678 148.405C210.698 148.388 210.722 148.375 210.747 148.368C210.772 148.361 210.799 148.36 210.825 148.364C210.851 148.368 210.875 148.378 210.897 148.393C210.918 148.408 210.937 148.427 210.95 148.45C211.595 149.098 212.384 149.585 213.253 149.87C214.122 150.155 215.046 150.23 215.95 150.09C215.973 150.086 215.997 150.086 216.02 150.092C216.043 150.097 216.064 150.107 216.083 150.121C216.102 150.135 216.117 150.153 216.129 150.174C216.14 150.194 216.148 150.217 216.15 150.24C216.154 150.263 216.154 150.287 216.148 150.31C216.143 150.333 216.133 150.354 216.119 150.373C216.105 150.392 216.087 150.407 216.066 150.419C216.046 150.43 216.023 150.438 216 150.44C215.542 150.498 215.081 150.515 214.62 150.49Z" fill="#263238"/>
<path d="M208.15 138.05C208.085 138.043 208.023 138.019 207.97 137.98C207.932 137.954 207.899 137.921 207.874 137.882C207.848 137.843 207.831 137.799 207.823 137.754C207.814 137.708 207.815 137.661 207.825 137.616C207.835 137.571 207.854 137.528 207.88 137.49C208.246 136.936 208.739 136.478 209.319 136.155C209.898 135.831 210.547 135.651 211.21 135.63C211.257 135.631 211.304 135.642 211.347 135.661C211.39 135.68 211.429 135.708 211.462 135.742C211.494 135.777 211.52 135.817 211.537 135.861C211.553 135.906 211.561 135.953 211.56 136C211.555 136.094 211.513 136.182 211.444 136.245C211.375 136.309 211.284 136.343 211.19 136.34C210.651 136.371 210.127 136.529 209.659 136.8C209.192 137.071 208.795 137.448 208.5 137.9C208.462 137.955 208.408 137.999 208.347 138.025C208.285 138.052 208.217 138.06 208.15 138.05Z" fill="#263238"/>
<path d="M223.37 135.63C223.314 135.644 223.256 135.644 223.2 135.63C222.749 135.32 222.232 135.121 221.69 135.048C221.148 134.975 220.596 135.031 220.08 135.21C219.994 135.247 219.896 135.249 219.808 135.216C219.72 135.182 219.649 135.115 219.61 135.03C219.573 134.945 219.571 134.849 219.605 134.763C219.639 134.677 219.705 134.607 219.79 134.57C220.412 134.335 221.081 134.254 221.741 134.335C222.401 134.415 223.032 134.653 223.58 135.03C223.658 135.081 223.714 135.161 223.734 135.253C223.755 135.344 223.739 135.44 223.69 135.52C223.65 135.563 223.599 135.596 223.544 135.615C223.488 135.634 223.428 135.639 223.37 135.63Z" fill="#263238"/>
<path d="M186.03 181.6C184.53 183.77 182.94 185.99 181.45 188.22C179.96 190.45 178.45 192.65 176.96 194.9C175.47 197.15 174.1 199.38 172.83 201.63C172.19 202.75 171.58 203.87 171.05 204.96L170.67 205.77L170.57 205.97V206.07C170.599 205.982 170.62 205.892 170.63 205.8C170.645 205.68 170.645 205.56 170.63 205.44C170.665 204.93 170.547 204.422 170.29 203.98C170.08 203.66 169.99 203.61 169.98 203.61C170.181 203.806 170.414 203.965 170.67 204.08C171.138 204.314 171.618 204.521 172.11 204.7C173.264 205.097 174.439 205.431 175.63 205.7C178.11 206.34 180.73 206.8 183.37 207.24C188.65 208.08 194.08 208.79 199.45 209.41L199.37 214.21C193.791 214.587 188.195 214.634 182.61 214.35C179.751 214.215 176.901 213.934 174.07 213.51C172.565 213.264 171.076 212.93 169.61 212.51C168.789 212.292 167.984 212.018 167.2 211.69C166.182 211.289 165.232 210.736 164.38 210.05C163.717 209.513 163.158 208.859 162.73 208.12C162.137 207.082 161.862 205.893 161.94 204.7C161.96 204.404 162 204.11 162.06 203.82C162.12 203.57 162.19 203.31 162.27 203.06L162.35 202.83L162.41 202.69L162.51 202.42L162.92 201.33C163.5 199.92 164.1 198.57 164.75 197.27C166.05 194.68 167.41 192.18 168.87 189.77C170.33 187.36 171.82 184.99 173.35 182.66C174.88 180.33 176.48 178.06 178.2 175.79L186.03 181.6Z" fill="#7F3E3B"/>
<path d="M196.74 210.39L204.06 207.1L203.81 215.01C203.81 215.01 198.74 216.48 195.96 214.01L196.74 210.39Z" fill="#7F3E3B"/>
<path d="M208.34 207.95L206.82 214.88L203.81 215.01L204.06 207.1L208.34 207.95Z" fill="#7F3E3B"/>
<path opacity="0.4" d="M186.88 184.42L182.88 187.73C182.97 190.73 182.99 193.41 182.96 195.89C185.38 194.25 187.25 187.63 186.88 184.42Z" fill="#E33737"/>
<path d="M181.72 167.67C177.22 168.16 170.15 180.52 170.15 180.52L182.66 193.37C182.66 193.37 190.26 182.25 190.17 176.37C190.09 171.47 187.5 167 181.72 167.67Z" fill="#E33737"/>
<path opacity="0.3" d="M181.72 167.67C177.22 168.16 170.15 180.52 170.15 180.52L182.66 193.37C182.66 193.37 190.26 182.25 190.17 176.37C190.09 171.47 187.5 167 181.72 167.67Z" fill="white"/>
<path d="M120.98 385.1C120.862 385.098 120.746 385.071 120.64 385.02C119.64 384.59 119.03 382.58 118.78 381.41C118.77 381.376 118.772 381.341 118.785 381.308C118.797 381.276 118.82 381.248 118.85 381.23C118.878 381.211 118.911 381.201 118.945 381.201C118.979 381.201 119.012 381.211 119.04 381.23C119.36 381.42 122.1 383.12 122.12 384.23C122.123 384.353 122.093 384.474 122.033 384.581C121.973 384.688 121.886 384.778 121.78 384.84C121.55 385.014 121.268 385.106 120.98 385.1ZM119.22 381.76C119.61 383.37 120.22 384.45 120.77 384.69C120.904 384.743 121.049 384.759 121.191 384.738C121.333 384.717 121.467 384.659 121.58 384.57C121.636 384.54 121.684 384.495 121.717 384.441C121.75 384.386 121.769 384.324 121.77 384.26C121.75 383.57 120.16 382.37 119.22 381.76Z" fill="#E33737"/>
<path d="M121.6 382.36C120.632 382.291 119.692 382.004 118.85 381.52C118.824 381.503 118.804 381.479 118.791 381.45C118.779 381.422 118.775 381.391 118.78 381.36C118.78 381.329 118.79 381.299 118.808 381.274C118.826 381.249 118.851 381.23 118.88 381.22C118.98 381.17 121.31 380.08 122.49 380.59C122.637 380.648 122.769 380.739 122.876 380.855C122.983 380.971 123.063 381.109 123.11 381.26C123.179 381.406 123.196 381.571 123.158 381.727C123.12 381.884 123.029 382.023 122.9 382.12C122.506 382.345 122.048 382.43 121.6 382.36ZM119.34 381.36C120.28 381.84 122.13 382.21 122.69 381.8C122.78 381.73 122.87 381.62 122.78 381.33C122.747 381.227 122.691 381.133 122.617 381.055C122.542 380.977 122.451 380.917 122.35 380.88C121.55 380.57 120 381.13 119.34 381.4V381.36Z" fill="#E33737"/>
<path d="M182.5 408.46C181.52 408.437 180.545 408.313 179.59 408.09C179.554 408.082 179.522 408.064 179.497 408.037C179.472 408.01 179.455 407.976 179.45 407.94C179.445 407.903 179.452 407.866 179.47 407.833C179.488 407.801 179.516 407.775 179.55 407.76C179.99 407.55 183.86 405.76 184.83 406.43C184.919 406.487 184.991 406.568 185.037 406.663C185.083 406.758 185.101 406.865 185.09 406.97C185.083 407.166 185.031 407.358 184.94 407.531C184.848 407.704 184.718 407.854 184.56 407.97C183.941 408.344 183.221 408.515 182.5 408.46ZM180.2 407.86C181.35 408.07 183.47 408.35 184.35 407.69C184.466 407.604 184.56 407.493 184.626 407.364C184.692 407.236 184.728 407.094 184.73 406.95C184.73 406.81 184.73 406.75 184.64 406.72C184.12 406.35 181.83 407.15 180.23 407.86H180.2Z" fill="#E33737"/>
<path d="M179.66 408.1C179.62 408.109 179.58 408.109 179.54 408.1C179.524 408.073 179.516 408.042 179.516 408.01C179.516 407.978 179.524 407.947 179.54 407.92C179.54 407.76 180.45 403.92 182.54 404.19C183.07 404.25 183.21 404.51 183.24 404.72C183.37 405.72 180.93 407.65 179.76 408.12L179.66 408.1ZM182.31 404.49C180.97 404.49 180.19 406.71 179.93 407.6C181.19 406.94 182.93 405.35 182.85 404.72C182.85 404.72 182.85 404.54 182.46 404.5L182.31 404.49Z" fill="#E33737"/>
<path d="M212.7 140.36L214.36 139.64C214.36 139.64 213.65 141.11 212.7 140.36Z" fill="#263238"/>
<path d="M270.67 125.06L379.2 140.66C379.72 140.735 380.22 140.911 380.672 141.179C381.124 141.447 381.519 141.802 381.833 142.223C382.148 142.643 382.377 143.122 382.507 143.631C382.637 144.14 382.665 144.67 382.59 145.19L343.5 417C343.425 417.52 343.249 418.02 342.981 418.472C342.713 418.924 342.358 419.319 341.937 419.633C341.517 419.948 341.038 420.177 340.529 420.307C340.02 420.437 339.49 420.465 338.97 420.39L230.5 404.84C229.98 404.765 229.48 404.589 229.028 404.321C228.576 404.052 228.181 403.698 227.867 403.277C227.552 402.857 227.323 402.378 227.193 401.869C227.063 401.36 227.035 400.83 227.11 400.31L266.18 128.45C266.331 127.408 266.888 126.467 267.728 125.832C268.569 125.197 269.626 124.92 270.67 125.06Z" fill="#E33737"/>
<path opacity="0.2" d="M270.67 125.06L379.2 140.66C379.72 140.735 380.22 140.911 380.672 141.179C381.124 141.447 381.519 141.802 381.833 142.223C382.148 142.643 382.377 143.122 382.507 143.631C382.637 144.14 382.665 144.67 382.59 145.19L343.5 417C343.425 417.52 343.249 418.02 342.981 418.472C342.713 418.924 342.358 419.319 341.937 419.633C341.517 419.948 341.038 420.177 340.529 420.307C340.02 420.437 339.49 420.465 338.97 420.39L230.5 404.84C229.98 404.765 229.48 404.589 229.028 404.321C228.576 404.052 228.181 403.698 227.867 403.277C227.552 402.857 227.323 402.378 227.193 401.869C227.063 401.36 227.035 400.83 227.11 400.31L266.18 128.45C266.331 127.408 266.888 126.467 267.728 125.832C268.569 125.197 269.626 124.92 270.67 125.06Z" fill="black"/>
<path opacity="0.3" d="M378.69 140.59L379.2 140.66C379.72 140.735 380.22 140.911 380.672 141.179C381.124 141.447 381.519 141.802 381.833 142.223C382.148 142.643 382.377 143.122 382.507 143.631C382.637 144.14 382.665 144.67 382.59 145.19L343.5 417C343.425 417.52 343.249 418.02 342.981 418.472C342.712 418.924 342.358 419.319 341.937 419.633C341.517 419.948 341.038 420.177 340.529 420.307C340.02 420.437 339.49 420.465 338.97 420.39L338.46 420.32C337.94 420.245 337.44 420.069 336.988 419.801C336.536 419.532 336.141 419.178 335.827 418.757C335.512 418.337 335.283 417.858 335.153 417.349C335.023 416.84 334.995 416.31 335.07 415.79L374.16 144C374.232 143.478 374.407 142.976 374.674 142.522C374.941 142.067 375.295 141.671 375.716 141.354C376.137 141.037 376.617 140.806 377.127 140.675C377.637 140.544 378.168 140.515 378.69 140.59Z" fill="black"/>
<path d="M378.469 145.715L274.648 131.033L236.739 399.106L340.56 413.787L378.469 145.715Z" fill="white"/>
<path opacity="0.2" d="M274.29 131.58L375.29 146.09L336.99 412.57L235.77 399.61L274.29 131.58Z" fill="#E33737"/>
<path d="M274.29 131.58L373.26 142.52L334.74 410.55L235.77 399.61L274.29 131.58Z" fill="white"/>
<path opacity="0.2" d="M274.29 131.58L370.52 142.13L331.34 408.82L235.77 399.61L274.29 131.58Z" fill="#E33737"/>
<path d="M274.29 131.58L369.55 140.71L330.05 407.4L235.77 399.61L274.29 131.58Z" fill="white"/>
<path opacity="0.2" d="M274.29 131.58L365.68 140.34L326.9 405.71L235.77 399.61L274.29 131.58Z" fill="#E33737"/>
<path d="M274.29 131.58L362.72 139.24L323.5 404.64L235.77 399.61L274.29 131.58Z" fill="white"/>
<path opacity="0.2" d="M274.29 131.58L356.37 138.69L317.14 404.27L235.77 399.61L274.29 131.58Z" fill="#E33737"/>
<path d="M294.817 121.951L294.745 123.009L301.31 123.456L301.382 122.399L294.817 121.951Z" fill="#E33737"/>
<path d="M307.659 122.828L307.587 123.885L326.982 125.207L327.054 124.15L307.659 122.828Z" fill="#E33737"/>
<path d="M348.97 129.36L262.27 123.46C260.842 123.367 259.432 123.816 258.32 124.717C257.208 125.617 256.476 126.904 256.27 128.32L217.67 396.81C217.56 397.584 217.61 398.373 217.818 399.127C218.026 399.88 218.387 400.583 218.879 401.191C219.37 401.799 219.982 402.3 220.676 402.661C221.369 403.022 222.13 403.236 222.91 403.29L309.61 409.2C311.04 409.293 312.451 408.843 313.564 407.94C314.676 407.037 315.407 405.748 315.61 404.33L354.2 135.85C354.31 135.076 354.26 134.288 354.053 133.534C353.846 132.78 353.486 132.077 352.995 131.468C352.505 130.86 351.894 130.358 351.202 129.996C350.509 129.633 349.75 129.417 348.97 129.36Z" fill="#E33737"/>
<path opacity="0.2" d="M303.44 400.91H303.2L226.11 395.66C225.621 395.625 225.143 395.49 224.708 395.263C224.273 395.035 223.89 394.721 223.581 394.34C223.272 393.958 223.046 393.517 222.915 393.044C222.784 392.571 222.752 392.076 222.82 391.59L260.04 132.64C260.178 131.758 260.642 130.961 261.341 130.405C262.039 129.85 262.92 129.577 263.81 129.64L340.9 134.89C341.391 134.922 341.869 135.055 342.306 135.282C342.742 135.508 343.127 135.822 343.437 136.204C343.746 136.587 343.972 137.029 344.102 137.503C344.232 137.978 344.262 138.474 344.19 138.96L306.98 397.84C306.856 398.691 306.43 399.469 305.78 400.032C305.13 400.596 304.3 400.907 303.44 400.91ZM263.57 130.63C262.968 130.633 262.387 130.851 261.932 131.246C261.477 131.64 261.178 132.184 261.09 132.78L223.87 391.78C223.824 392.122 223.849 392.469 223.942 392.801C224.035 393.133 224.195 393.443 224.413 393.711C224.63 393.979 224.9 394.199 225.205 394.359C225.511 394.519 225.846 394.614 226.19 394.64L303.27 399.89C303.902 399.927 304.524 399.727 305.016 399.33C305.508 398.932 305.834 398.365 305.93 397.74L343.14 138.8C343.191 138.459 343.17 138.111 343.078 137.779C342.987 137.447 342.828 137.137 342.61 136.87C342.393 136.601 342.123 136.379 341.817 136.219C341.511 136.059 341.175 135.964 340.83 135.94L263.74 130.69L263.57 130.63Z" fill="white"/>
</svg>
