<svg width="500" height="500" viewBox="0 0 500 500" fill="none" xmlns="http://www.w3.org/2000/svg">
<path d="M473.17 470.47C473.17 470.61 372.35 470.73 248.01 470.73C123.67 470.73 22.8301 470.61 22.8301 470.47C22.8301 470.33 123.63 470.21 248.01 470.21C372.39 470.21 473.17 470.33 473.17 470.47Z" fill="#263238"/>
<path d="M367.14 432.94L367.92 470.54L318.43 471.71C318.6 467.23 343.97 457.71 343.97 457.71L342.42 433.63L367.14 432.94Z" fill="#455A64"/>
<g opacity="0.6">
<path d="M359.22 455.27C359.688 455.38 360.099 455.662 360.369 456.06C360.639 456.459 360.75 456.944 360.68 457.42C360.548 457.889 360.245 458.292 359.83 458.548C359.415 458.803 358.918 458.893 358.44 458.8C357.942 458.687 357.506 458.388 357.222 457.964C356.937 457.54 356.826 457.024 356.91 456.52C357.091 456.036 357.452 455.64 357.918 455.416C358.384 455.193 358.919 455.158 359.41 455.32" fill="white"/>
</g>
<g opacity="0.6">
<path d="M367.92 470.54L367.69 466.75L320.32 469.29C320.32 469.29 318.14 470.29 318.43 471.71L367.92 470.54Z" fill="white"/>
</g>
<path d="M343.16 457.44C343.16 457.67 344.39 457.74 345.59 458.44C346.79 459.14 347.46 460.09 347.68 459.99C347.9 459.89 347.51 458.59 346.03 457.75C344.55 456.91 343.1 457.23 343.16 457.44Z" fill="#263238"/>
<path d="M338 459.59C338 459.81 339 460.17 339.86 461.12C340.72 462.07 340.97 463.12 341.21 463.07C341.45 463.02 341.57 461.76 340.49 460.6C339.41 459.44 338 459.37 338 459.59Z" fill="#263238"/>
<path d="M335.23 465.53C335.45 465.53 335.76 464.42 335.1 463.19C334.44 461.96 333.3 461.48 333.21 461.67C333.12 461.86 333.83 462.52 334.35 463.54C334.87 464.56 335 465.51 335.23 465.53Z" fill="#263238"/>
<path d="M343.45 451.91C343.56 452.12 344.66 451.78 346.03 451.83C347.4 451.88 348.47 452.27 348.59 452.07C348.71 451.87 347.67 451.07 346.05 451.07C344.43 451.07 343.33 451.74 343.45 451.91Z" fill="#263238"/>
<path d="M344.48 446.34C345.3 446.522 346.153 446.495 346.96 446.26C347.849 446.095 348.716 445.823 349.54 445.45C350.022 445.229 350.489 444.979 350.94 444.7C351.212 444.55 351.459 444.358 351.67 444.13C351.826 443.971 351.92 443.762 351.934 443.54C351.949 443.318 351.884 443.098 351.75 442.92C351.622 442.76 351.459 442.631 351.274 442.545C351.088 442.458 350.885 442.415 350.68 442.42C350.365 442.425 350.052 442.473 349.75 442.56C349.229 442.696 348.72 442.877 348.23 443.1C347.409 443.471 346.65 443.967 345.98 444.57C344.86 445.57 344.49 446.47 344.57 446.51C344.65 446.55 345.22 445.85 346.37 444.99C347.041 444.492 347.774 444.082 348.55 443.77C349.006 443.58 349.478 443.429 349.96 443.32C350.48 443.17 350.96 443.16 351.07 443.38C351.18 443.6 351.13 443.49 351.02 443.64C350.859 443.803 350.678 443.944 350.48 444.06C350.05 444.34 349.61 444.58 349.19 444.8C348.429 445.177 347.636 445.485 346.82 445.72C346.026 445.872 345.245 446.079 344.48 446.34Z" fill="#263238"/>
<path d="M344.81 446.66C345.251 445.985 345.458 445.184 345.4 444.38C345.419 443.51 345.284 442.643 345 441.82C344.822 441.33 344.598 440.858 344.33 440.41C344.177 440.1 343.948 439.833 343.665 439.634C343.382 439.435 343.054 439.309 342.71 439.27C342.497 439.276 342.29 439.342 342.113 439.461C341.936 439.579 341.796 439.745 341.71 439.94C341.585 440.216 341.504 440.509 341.47 440.81C341.389 441.334 341.389 441.866 341.47 442.39C341.638 443.27 342.027 444.092 342.6 444.78C343.6 445.97 344.6 446.22 344.6 446.14C344.6 446.06 343.82 445.61 343.05 444.46C342.611 443.805 342.324 443.06 342.21 442.28C342.14 441.829 342.14 441.371 342.21 440.92C342.27 440.42 342.46 440.02 342.66 440.06C342.86 440.1 343.33 440.42 343.55 440.81C343.802 441.205 344.017 441.624 344.19 442.06C344.487 442.805 344.673 443.59 344.74 444.39C344.91 445.76 344.67 446.62 344.81 446.66Z" fill="#263238"/>
<path d="M404.65 436.06L409.38 473.37L458.52 467.28C457.69 462.87 431.19 457.12 431.19 457.12L429.19 433.12L404.65 436.06Z" fill="#455A64"/>
<g opacity="0.6">
<path d="M415.75 457C415.304 457.179 414.942 457.519 414.735 457.952C414.528 458.385 414.49 458.881 414.63 459.34C414.846 459.77 415.209 460.107 415.654 460.291C416.098 460.475 416.594 460.492 417.05 460.34C417.524 460.153 417.909 459.793 418.127 459.332C418.344 458.871 418.378 458.345 418.22 457.86C417.97 457.41 417.556 457.073 417.064 456.92C416.573 456.768 416.041 456.811 415.58 457.04" fill="white"/>
</g>
<g opacity="0.6">
<path d="M409.38 473.37L409.06 469.59L456.29 465.16C456.29 465.16 458.59 465.79 458.52 467.28L409.38 473.37Z" fill="white"/>
</g>
<path d="M432 456.78C432 457.01 430.83 457.26 429.74 458.14C428.65 459.02 428.13 460.05 427.9 459.98C427.67 459.91 427.9 458.57 429.21 457.53C430.52 456.49 432 456.57 432 456.78Z" fill="#263238"/>
<path d="M437.36 458.16C437.44 458.37 436.45 458.89 435.75 459.95C435.05 461.01 434.94 462.05 434.7 462.07C434.46 462.09 434.15 460.83 435.04 459.52C435.93 458.21 437.33 457.94 437.36 458.16Z" fill="#263238"/>
<path d="M441 463.63C440.79 463.7 440.32 462.63 440.78 461.29C441.24 459.95 442.31 459.29 442.43 459.52C442.55 459.75 441.94 460.44 441.58 461.52C441.22 462.6 441.23 463.58 441 463.63Z" fill="#263238"/>
<path d="M430.86 451.36C430.79 451.58 429.65 451.41 428.3 451.66C426.95 451.91 425.95 452.45 425.8 452.27C425.65 452.09 426.57 451.16 428.16 450.88C429.75 450.6 431 451.17 430.86 451.36Z" fill="#263238"/>
<path d="M429 446C428.218 446.306 427.371 446.406 426.54 446.29C425.639 446.253 424.746 446.109 423.88 445.86C423.369 445.718 422.867 445.54 422.38 445.33C422.088 445.22 421.814 445.065 421.57 444.87C421.392 444.735 421.269 444.541 421.221 444.323C421.173 444.105 421.205 443.877 421.31 443.68C421.416 443.503 421.562 443.352 421.735 443.24C421.908 443.127 422.105 443.055 422.31 443.03C422.622 442.984 422.938 442.984 423.25 443.03C423.788 443.081 424.32 443.181 424.84 443.33C425.705 443.584 426.527 443.964 427.28 444.46C428.54 445.32 429.03 446.11 428.95 446.17C428.87 446.23 428.21 445.62 426.95 444.94C426.213 444.546 425.431 444.244 424.62 444.04C424.137 443.921 423.646 443.841 423.15 443.8C422.62 443.74 422.15 443.8 422.07 444.03C422.07 444.11 422.07 444.15 422.15 444.28C422.334 444.417 422.536 444.528 422.75 444.61C423.978 445.169 425.282 445.543 426.62 445.72C427.419 445.756 428.214 445.85 429 446Z" fill="#263238"/>
<path d="M428.75 446.36C428.67 446.41 428.09 445.65 427.83 444.19C427.671 443.334 427.671 442.456 427.83 441.6C427.929 441.089 428.08 440.59 428.28 440.11C428.379 439.777 428.563 439.476 428.814 439.236C429.064 438.995 429.373 438.825 429.71 438.74C429.925 438.717 430.141 438.755 430.335 438.849C430.53 438.942 430.694 439.088 430.81 439.27C430.974 439.522 431.096 439.799 431.17 440.09C431.32 440.596 431.384 441.123 431.36 441.65C431.331 442.548 431.069 443.424 430.6 444.19C429.79 445.51 428.82 445.91 428.79 445.83C429.258 445.229 429.686 444.598 430.07 443.94C430.416 443.23 430.594 442.45 430.59 441.66C430.584 441.206 430.513 440.754 430.38 440.32C430.24 439.83 430 439.46 429.81 439.53C429.62 439.6 429.19 439.98 429.04 440.4C428.514 441.566 428.29 442.845 428.39 444.12C428.52 445.49 428.88 446.31 428.75 446.36Z" fill="#263238"/>
<path d="M324.2 233.21L405.81 235.82C405.81 235.82 424 357.12 423.47 365.54L434.67 453.54L402.08 454.68C402.08 454.68 396.95 426.15 393.38 406.62C391 393.62 386.66 374.57 385.48 363.72C384.3 352.87 368.06 278.19 368.06 278.19C368.06 278.19 366.65 365.05 366.62 368.67C366.59 372.29 370.38 454.61 370.38 454.61H338C336.33 439.75 332.36 380.29 331.5 368.27C329.96 346.57 322.37 284.15 321.66 268.49C320.95 252.83 324.2 233.21 324.2 233.21Z" fill="#263238"/>
<path d="M393.42 246.23C393.744 245.001 393.879 243.73 393.82 242.46C393.952 241.195 393.894 239.918 393.65 238.67C393.207 241.165 393.129 243.712 393.42 246.23Z" fill="#455A64"/>
<path d="M390.45 245.35C390.624 243.198 390.421 241.032 389.85 238.95C389.665 240.019 389.665 241.111 389.85 242.18C389.86 243.264 390.063 244.338 390.45 245.35Z" fill="#455A64"/>
<path d="M340.64 245.36C340.925 244.466 341.024 243.523 340.93 242.59C341.024 241.66 340.925 240.72 340.64 239.83C340.367 240.723 340.272 241.661 340.36 242.59C340.272 243.523 340.367 244.464 340.64 245.36Z" fill="#455A64"/>
<path d="M337.44 246.81C338.07 244.481 337.865 242.004 336.86 239.81C336.892 240.98 337.005 242.146 337.2 243.3C337.202 244.474 337.282 245.647 337.44 246.81Z" fill="#455A64"/>
<path d="M363.44 276.24C363.428 275.761 363.364 275.285 363.25 274.82C363.08 273.82 362.86 272.52 362.6 270.98C362.06 267.74 361.43 263.25 361.02 258.26C360.61 253.27 360.52 248.73 360.53 245.45C360.53 243.89 360.53 242.59 360.53 241.55C360.572 241.074 360.572 240.596 360.53 240.12C360.422 240.586 360.362 241.062 360.35 241.54C360.27 242.46 360.19 243.79 360.14 245.44C359.884 254.031 360.582 262.623 362.22 271.06C362.53 272.67 362.82 273.97 363.05 274.87C363.13 275.339 363.261 275.799 363.44 276.24Z" fill="#455A64"/>
<path d="M366.23 241C366.855 241.12 367.426 241.435 367.86 241.9C368.075 242.149 368.234 242.441 368.327 242.757C368.42 243.072 368.445 243.404 368.4 243.73C368.286 244.1 368.073 244.432 367.784 244.69C367.495 244.948 367.141 245.122 366.761 245.194C366.38 245.266 365.987 245.233 365.624 245.098C365.261 244.964 364.942 244.733 364.7 244.43C364.538 244.146 364.438 243.83 364.409 243.504C364.38 243.177 364.421 242.849 364.53 242.54C364.759 241.943 365.172 241.435 365.71 241.09C365.71 241.09 365.5 241.09 365.17 241.24C364.711 241.497 364.357 241.908 364.17 242.4C364.01 242.765 363.935 243.163 363.953 243.562C363.97 243.96 364.079 244.35 364.27 244.7C364.558 245.108 364.956 245.424 365.419 245.611C365.881 245.799 366.388 245.849 366.878 245.756C367.368 245.663 367.821 245.431 368.184 245.088C368.546 244.745 368.801 244.305 368.92 243.82C368.968 243.424 368.925 243.021 368.795 242.644C368.666 242.266 368.452 241.923 368.17 241.64C367.808 241.254 367.324 241.003 366.8 240.93C366.42 240.93 366.23 241 366.23 241Z" fill="#455A64"/>
<path d="M401.76 374.87C404.572 374.014 407.327 372.982 410.01 371.78C412.752 370.751 415.424 369.545 418.01 368.17C415.199 369.028 412.443 370.06 409.76 371.26C407.018 372.289 404.346 373.495 401.76 374.87Z" fill="#455A64"/>
<path d="M344 132.94C344 132.94 333.53 136.73 330.67 146.58C328.46 154.22 317.05 195.19 317.05 195.19L293.44 178.72L284.44 188.72C284.44 188.72 306 229.91 318 229.89C328 229.89 336.8 222.23 336.8 222.23L349.64 185.11L344 132.94Z" fill="#E33737"/>
<path d="M419 140.78L426.13 145.57L406.59 223.41L409.32 253.61C404.18 258.09 389.78 261.96 365.17 260.56C350.25 259.678 335.663 255.783 322.29 249.11L327.21 207.77L342.87 157.37L344 132.94L369 127.87L397.51 130.3L419 140.78Z" fill="#E33737"/>
<path d="M343 195.19C343.17 195.19 343.32 185.49 343.33 173.52C343.34 161.55 343.22 151.84 343.05 151.84C342.88 151.84 342.73 161.54 342.72 173.52C342.71 185.5 342.85 195.19 343 195.19Z" fill="#263238"/>
<path d="M444.75 208.14L363.61 186.68L363.44 186.64L325.76 176.67L305.21 254.38L343.06 264.38L353.6 224.52L434.74 245.98L444.75 208.14Z" fill="#455A64"/>
<path opacity="0.3" d="M444.75 208.14L363.61 186.68L363.44 186.64L325.76 176.67L305.21 254.38L343.06 264.38L353.6 224.52L434.74 245.98L444.75 208.14Z" fill="black"/>
<path d="M409.98 198.94L328.83 177.49L328.66 177.44L290.99 167.48L270.44 245.18L308.28 255.19L318.82 215.32L399.97 236.78L409.98 198.94Z" fill="#455A64"/>
<path d="M418.79 140.77L425 145C427.828 146.878 430.214 149.347 431.994 152.237C433.774 155.128 434.905 158.37 435.31 161.74C437.43 180.16 439.11 213.39 434.93 220.29C429.3 229.6 369.19 232.64 369.19 232.64L365.19 214.01L414.19 202.73L413.58 187.25L418.79 140.77Z" fill="#E33737"/>
<path d="M413.55 167.48C413.539 167.697 413.539 167.913 413.55 168.13C413.55 168.59 413.55 169.22 413.55 170.03C413.55 171.69 413.62 174.13 413.61 177.25C413.61 183.47 413.21 192.4 413.66 203.17L413.85 202.92L370 212.61L365.14 213.69L364.85 213.76L364.91 214.05C366.33 220.55 367.69 226.82 368.96 232.68L369.02 232.92H369.26C382.82 232.374 396.329 230.938 409.7 228.62C414.7 227.76 418.58 226.95 421.25 226.35C422.59 226.05 423.62 225.8 424.31 225.63L425.09 225.42C425.181 225.403 425.268 225.373 425.35 225.33C425.261 225.315 425.169 225.315 425.08 225.33L424.29 225.49L421.21 226.12C418.53 226.66 414.6 227.42 409.64 228.23C396.27 230.417 382.777 231.776 369.24 232.3L369.53 232.52C368.27 226.66 366.91 220.4 365.53 213.89L365.3 214.25L370.15 213.18L414.06 203.38H414.27V203.17C413.77 192.43 414.13 183.5 414.01 177.27C414.01 174.15 413.88 171.71 413.81 170.04C413.76 169.24 413.72 168.61 413.7 168.15C413.676 167.922 413.625 167.697 413.55 167.48Z" fill="#263238"/>
<path d="M358.83 217.56C357.613 215.909 356.05 214.544 354.25 213.56C351.16 211.81 345.03 211.22 343.84 209.18C342.65 207.14 340.84 209.29 341.84 211.91C342.52 213.58 347.01 217.4 347.01 217.4C347.01 217.4 343.01 219.3 339.92 218.25C336.83 217.2 326.44 216.25 325.67 217.88C324.8 219.67 327.47 219.66 328.67 220.06C329.6 220.37 336.75 222.27 336.75 222.27C336.75 222.27 323.75 224.45 322.23 225.4C320.71 226.35 322.73 227.62 323.55 227.49C324.07 227.41 322.66 229.12 324.55 230.27C325.82 231.04 331.35 231.13 332.81 230.86L335.81 230.29L326.87 233.1C326.87 233.1 325.59 234.86 327.94 235.17C328.94 235.3 357.46 233.68 359.63 233.37C363.38 232.84 368.69 231.88 368.69 231.88L365.69 216.47L358.83 217.56Z" fill="#9F7362"/>
<path d="M281.53 204.47L283.23 198.7C283.23 198.7 292.08 194.11 293.33 191.42L294.15 189.92C294.15 189.92 298.78 188.24 298.44 185.43C299.65 183.87 299.82 182.68 298.29 182.07C298.29 182.07 301.8 180.87 300.51 177.68C299.22 174.49 285.4 181.42 285.4 181.42C285.4 181.42 278.56 183.42 280.52 186.79C280.52 186.79 279.52 189.9 280.52 192.12C280.52 192.12 277.32 194.83 279.24 197.65L281.53 204.47Z" fill="#9F7362"/>
<path d="M282.34 191.66C282.147 191.568 281.93 191.54 281.72 191.58C281.133 191.637 280.58 191.878 280.14 192.27C279.477 192.84 279.029 193.62 278.87 194.48C278.698 195.506 278.725 196.555 278.95 197.57C279.302 199.386 279.908 201.143 280.75 202.79C281.047 203.497 281.471 204.145 282 204.7C280.895 202.39 280.05 199.966 279.48 197.47C279.265 196.522 279.224 195.543 279.36 194.58C279.472 193.824 279.822 193.123 280.36 192.58C280.906 192.072 281.599 191.75 282.34 191.66Z" fill="#65463C"/>
<path d="M285.56 186.3C285.64 186.44 288.32 184.89 291.91 183.66C295.5 182.43 298.57 181.98 298.54 181.81C297.87 181.756 297.196 181.803 296.54 181.95C294.918 182.209 293.322 182.611 291.77 183.15C290.217 183.683 288.715 184.352 287.28 185.15C286.646 185.434 286.065 185.823 285.56 186.3Z" fill="#65463C"/>
<path d="M285.57 189.68C285.64 189.83 288.4 188.56 291.95 187.39C295.5 186.22 298.47 185.59 298.44 185.39C293.9 185.89 289.515 187.338 285.57 189.64V189.68Z" fill="#65463C"/>
<path d="M282.94 184.93C282.94 184.78 281.86 184.82 280.99 185.72C280.12 186.62 280.08 187.72 280.22 187.72C280.36 187.72 280.62 186.88 281.37 186.14C282.12 185.4 283 185.08 282.94 184.93Z" fill="#65463C"/>
<path d="M287.12 193.49C288.307 193.051 289.452 192.506 290.54 191.86C291.715 191.377 292.84 190.781 293.9 190.08C292.63 190.284 291.41 190.721 290.3 191.37C289.115 191.869 288.036 192.589 287.12 193.49Z" fill="#65463C"/>
<path d="M364.3 80.86C363.079 80.8276 361.91 80.357 361.007 79.5342C360.104 78.7114 359.527 77.5912 359.381 76.3782C359.236 75.1653 359.531 73.9404 360.214 72.9273C360.897 71.9142 361.921 71.1804 363.1 70.86C362.399 69.9946 361.989 68.93 361.928 67.818C361.868 66.7059 362.16 65.6031 362.763 64.6667C363.365 63.7303 364.248 63.008 365.286 62.6028C366.323 62.1976 367.462 62.1301 368.54 62.41C368.689 61.3255 369.118 60.2984 369.783 59.4289C370.448 58.5594 371.327 57.8773 372.335 57.4491C373.342 57.0209 374.443 56.8613 375.531 56.9859C376.619 57.1105 377.655 57.515 378.54 58.16C379.86 57.2765 381.438 56.8604 383.022 56.9782C384.606 57.096 386.105 57.7409 387.28 58.81C388.364 58.7105 389.452 58.963 390.382 59.5299C391.312 60.0969 392.035 60.9482 392.443 61.9579C392.851 62.9675 392.924 64.0819 392.649 65.1359C392.375 66.1899 391.769 67.1275 390.92 67.81" fill="#263238"/>
<path d="M363.5 81.5C364.441 76.1586 367.359 71.3674 371.673 68.0801C375.987 64.7928 381.38 63.2504 386.78 63.76L387.9 63.87C399.83 65.7 404.9 76.87 402.77 88.73L397.26 128.52L396.74 134.2C396.566 136.034 396.031 137.817 395.167 139.444C394.303 141.071 393.126 142.512 391.703 143.684C390.281 144.855 388.641 145.735 386.878 146.271C385.115 146.808 383.264 146.991 381.43 146.81C377.762 146.429 374.395 144.61 372.066 141.752C369.736 138.894 368.634 135.229 369 131.56L369.82 123.2C369.82 123.2 358.45 120.32 359.4 108.78C359.81 103.2 361.68 91.8 363.5 81.5Z" fill="#9F7362"/>
<path d="M369.67 123.18C375.027 123.69 380.418 122.649 385.2 120.18C385.2 120.18 380.86 128.18 369.46 126.02L369.67 123.18Z" fill="#65463C"/>
<path d="M366 92.25C365.957 92.6782 366.082 93.1063 366.349 93.444C366.616 93.7816 367.003 94.0025 367.43 94.06C367.638 94.097 367.852 94.0917 368.059 94.0445C368.265 93.9972 368.46 93.9089 368.632 93.7848C368.803 93.6608 368.948 93.5034 369.058 93.3222C369.168 93.141 369.24 92.9396 369.27 92.73C369.313 92.3018 369.187 91.8737 368.921 91.536C368.654 91.1984 368.266 90.9775 367.84 90.92C367.632 90.8844 367.418 90.8907 367.212 90.9385C367.006 90.9864 366.812 91.0748 366.641 91.1987C366.469 91.3225 366.324 91.4793 366.214 91.6598C366.104 91.8403 366.031 92.041 366 92.25Z" fill="#263238"/>
<path d="M365.45 87.37C365.63 87.61 366.96 86.8 368.74 86.97C370.52 87.14 371.74 88.15 371.94 87.97C372.14 87.79 371.87 87.48 371.34 86.97C370.615 86.3851 369.729 86.0362 368.8 85.97C367.879 85.8776 366.954 86.0845 366.16 86.56C365.58 86.89 365.35 87.27 365.45 87.37Z" fill="#263238"/>
<path d="M381.71 93.83C381.665 94.2587 381.789 94.6881 382.056 95.0264C382.323 95.3647 382.712 95.5849 383.14 95.64C383.349 95.6815 383.565 95.6799 383.774 95.6353C383.982 95.5906 384.18 95.5039 384.354 95.3804C384.528 95.2568 384.675 95.099 384.786 94.9167C384.897 94.7344 384.97 94.5314 385 94.32C385.045 93.8913 384.921 93.4619 384.654 93.1236C384.386 92.7853 383.997 92.5651 383.57 92.51C383.361 92.4699 383.145 92.4726 382.937 92.5179C382.729 92.5631 382.532 92.65 382.358 92.7733C382.185 92.8966 382.038 93.0538 381.926 93.2354C381.815 93.417 381.741 93.6192 381.71 93.83Z" fill="#263238"/>
<path d="M382.83 89.35C383.02 89.58 384.35 88.78 386.12 88.95C387.89 89.12 389.12 90.13 389.32 89.95C389.52 89.77 389.26 89.46 388.73 88.95C388.005 88.3651 387.119 88.0161 386.19 87.95C385.271 87.8601 384.347 88.0632 383.55 88.53C383 88.87 382.74 89.24 382.83 89.35Z" fill="#263238"/>
<path d="M375.16 101.88C374.253 101.5 373.302 101.235 372.33 101.09C371.88 101 371.46 100.87 371.42 100.55C371.425 100.08 371.576 99.6221 371.85 99.24C372.37 98.24 372.93 97.08 373.51 95.92C375.83 91.19 377.56 87.29 377.37 87.19C377.18 87.09 375.14 90.86 372.82 95.59C372.25 96.76 371.72 97.87 371.21 98.94C370.874 99.4578 370.729 100.077 370.8 100.69C370.85 100.857 370.939 101.01 371.059 101.137C371.178 101.263 371.326 101.36 371.49 101.42C371.73 101.516 371.983 101.576 372.24 101.6C373.197 101.819 374.179 101.913 375.16 101.88Z" fill="#263238"/>
<path d="M380.26 103.6C379.97 103.6 379.79 105.48 378.01 106.69C376.23 107.9 374.21 107.49 374.17 107.76C374.17 107.88 374.59 108.18 375.45 108.28C376.575 108.406 377.709 108.13 378.65 107.5C379.554 106.893 380.186 105.956 380.41 104.89C380.56 104.1 380.39 103.6 380.26 103.6Z" fill="#263238"/>
<path d="M383 82.36C383.13 82.86 384.92 82.8 387 83.24C389.08 83.68 390.68 84.42 391 84.01C391.14 83.81 390.89 83.33 390.26 82.8C389.409 82.1422 388.418 81.6876 387.365 81.471C386.311 81.2544 385.222 81.2814 384.18 81.55C383.4 81.78 383 82.12 383 82.36Z" fill="#263238"/>
<path d="M366.58 82.3C366.86 82.74 368.12 82.43 369.58 82.55C371.04 82.67 372.26 83.08 372.58 82.69C372.72 82.49 372.58 82.07 372.06 81.69C371.379 81.1524 370.547 80.8412 369.68 80.8C368.817 80.7361 367.954 80.9385 367.21 81.38C366.67 81.7 366.46 82.1 366.58 82.3Z" fill="#263238"/>
<path d="M365.11 76.31C365.11 76.31 368.83 69.38 372.47 68.02C376.88 66.38 378.26 71.18 382.38 70.43C386.5 69.68 390.71 68.11 394.53 71.61C398.7 75.43 396.37 77.61 396.16 82.76C395.33 103.61 398.56 109.83 400.56 100.16C400.78 99.1 403.83 98.53 404.7 94.05C405.83 88.24 406.7 81.14 405.81 76.86C405.04 73.24 403.26 70.63 399.93 67.62C394.67 62.87 386.93 62.04 381.57 62.08C376.21 62.12 365.48 67.23 365.11 76.31Z" fill="#263238"/>
<path d="M399.86 99.78C399.914 99.3586 400.054 98.9526 400.269 98.5864C400.485 98.2202 400.772 97.9014 401.114 97.6492C401.456 97.3969 401.845 97.2165 402.259 97.1187C402.672 97.0208 403.101 97.0077 403.52 97.08C405.65 97.49 407.93 98.94 407.37 103.37C406.37 111.23 398.69 108.61 398.7 108.37C398.71 108.13 399.41 103.06 399.86 99.78Z" fill="#9F7362"/>
<path d="M400.79 105.64C400.79 105.64 400.91 105.75 401.13 105.89C401.433 106.064 401.79 106.117 402.13 106.04C403 105.84 403.87 104.61 404.13 103.2C404.24 102.532 404.195 101.848 404 101.2C403.958 100.945 403.854 100.704 403.697 100.498C403.54 100.292 403.335 100.128 403.1 100.02C402.949 99.9571 402.781 99.9498 402.625 99.9992C402.47 100.049 402.337 100.152 402.25 100.29C402.11 100.5 402.14 100.66 402.1 100.67C402.06 100.68 401.95 100.51 402.05 100.2C402.123 100.009 402.257 99.848 402.43 99.74C402.546 99.6715 402.676 99.6273 402.81 99.6101C402.944 99.5929 403.08 99.6031 403.21 99.64C403.523 99.7457 403.805 99.9298 404.027 100.175C404.249 100.42 404.405 100.718 404.48 101.04C404.731 101.762 404.799 102.535 404.68 103.29C404.43 104.87 403.43 106.29 402.25 106.43C402.032 106.467 401.808 106.453 401.596 106.388C401.385 106.324 401.191 106.212 401.03 106.06C400.78 105.83 400.76 105.65 400.79 105.64Z" fill="#65463C"/>
<path d="M401.15 84.49C400.106 85.1813 398.907 85.6038 397.66 85.72C397.041 85.7487 396.432 85.5547 395.944 85.1731C395.456 84.7914 395.121 84.2475 395 83.64C395 83.08 395.15 82.46 394.83 82C394.51 81.54 393.64 81.54 392.97 81.54C391.807 81.5311 390.683 81.1167 389.792 80.3683C388.901 79.62 388.299 78.5844 388.09 77.44C387.699 77.797 387.189 77.9949 386.66 77.9949C386.131 77.9949 385.621 77.797 385.23 77.44C384.473 76.7008 383.824 75.8593 383.3 74.94C383.033 74.4821 382.659 74.0962 382.209 73.8157C381.76 73.5352 381.249 73.3684 380.72 73.33C380.147 73.472 379.56 73.5458 378.97 73.55C377.97 73.36 377.56 72.1 377.5 71.06C377.44 70.02 377.43 68.81 376.61 68.16C375.79 67.51 374.76 67.77 373.79 67.82C372.82 67.87 371.62 67.53 371.46 66.58C371.444 66.3257 371.479 66.0707 371.563 65.8302C371.647 65.5897 371.779 65.3686 371.95 65.18C372.68 64.2867 373.691 63.6663 374.818 63.4194C375.946 63.1726 377.123 63.3137 378.16 63.82C378.672 62.5447 379.551 61.45 380.686 60.6742C381.82 59.8984 383.159 59.4763 384.533 59.4613C385.907 59.4463 387.255 59.8391 388.406 60.59C389.557 61.3409 390.46 62.4162 391 63.68C391.905 62.9833 392.967 62.5186 394.092 62.3264C395.218 62.1342 396.374 62.2203 397.459 62.5773C398.543 62.9343 399.524 63.5513 400.316 64.3745C401.108 65.1977 401.686 66.2021 402 67.3C402.986 67.1464 403.995 67.2849 404.903 67.6983C405.811 68.1116 406.579 68.7818 407.11 69.6262C407.642 70.4705 407.915 71.452 407.895 72.4496C407.876 73.4472 407.564 74.4172 407 75.24C407.698 75.6735 408.274 76.2772 408.674 76.9943C409.075 77.7115 409.287 78.5186 409.29 79.34C409.17 80.98 407.42 82.45 405.89 81.88C406.155 82.5538 406.152 83.3036 405.881 83.9751C405.61 84.6466 405.092 85.1886 404.433 85.4897C403.775 85.7908 403.026 85.828 402.341 85.5936C401.655 85.3593 401.086 84.8713 400.75 84.23" fill="#263238"/>
<path d="M377.33 66.08C377.326 66.1266 377.326 66.1734 377.33 66.22C377.33 66.32 377.33 66.46 377.33 66.65C377.39 67.1927 377.535 67.7226 377.76 68.22C378.127 68.996 378.663 69.6796 379.33 70.22C380.217 70.9643 381.324 71.3964 382.48 71.45L382.36 71.26C382.208 71.6039 382.126 71.9743 382.117 72.35C382.108 72.7258 382.174 73.0996 382.31 73.45C382.597 74.1932 382.992 74.8905 383.48 75.52C383.709 75.879 383.974 76.2141 384.27 76.52C384.622 76.8056 385.037 77.0043 385.48 77.1C385.938 77.2131 386.417 77.2111 386.874 77.0942C387.331 76.9773 387.752 76.7492 388.1 76.43L387.82 76.32C387.851 77.1485 388.055 77.9613 388.42 78.7056C388.786 79.4498 389.303 80.1089 389.94 80.64C390.634 81.2719 391.515 81.6584 392.45 81.74C393.328 81.7769 394.207 81.6688 395.05 81.42L394.85 81.31C395.167 82.3021 395.731 83.197 396.49 83.91C396.832 84.2657 397.249 84.5402 397.711 84.7132C398.174 84.8863 398.669 84.9535 399.16 84.91C400.005 84.8086 400.802 84.4633 401.453 83.9163C402.105 83.3693 402.584 82.6444 402.83 81.83L402.64 81.9C403.427 82.4204 404.372 82.6503 405.31 82.55C406.02 82.4936 406.706 82.2672 407.31 81.89C407.69 81.6546 408.028 81.3572 408.31 81.01C408.403 80.8881 408.483 80.7575 408.55 80.62C408.193 81.0744 407.76 81.4635 407.27 81.77C406.685 82.1138 406.027 82.3158 405.35 82.36C404.463 82.4322 403.577 82.1994 402.84 81.7L402.7 81.6L402.65 81.76C402.412 82.5197 401.958 83.1937 401.344 83.6997C400.73 84.2058 399.981 84.5221 399.19 84.61C398.74 84.6461 398.288 84.5803 397.868 84.4176C397.447 84.2548 397.068 83.9993 396.76 83.67C396.055 82.9845 395.53 82.1363 395.23 81.2L395.18 81.04H395.03C394.223 81.2823 393.382 81.3871 392.54 81.35C391.68 81.2712 390.868 80.921 390.22 80.35C389.622 79.8454 389.136 79.2222 388.792 78.5199C388.448 77.8176 388.253 77.0515 388.22 76.27V75.89L387.95 76.16C387.641 76.44 387.268 76.6401 386.863 76.7429C386.459 76.8457 386.036 76.8482 385.63 76.75C385.237 76.6713 384.869 76.4961 384.56 76.24C384.279 75.9599 384.028 75.6516 383.81 75.32C383.338 74.7084 382.951 74.0356 382.66 73.32C382.397 72.6794 382.397 71.9607 382.66 71.32L382.74 71.14H382.54C381.445 71.1006 380.393 70.7076 379.54 70.02C378.878 69.5028 378.342 68.8431 377.97 68.09C377.644 67.4614 377.427 66.7816 377.33 66.08Z" fill="#455A64"/>
<path d="M195.09 430.37V469.51H313.05V430.37H195.09Z" fill="#E0E0E0"/>
<path opacity="0.3" d="M195.09 430.37V469.51H313.05V430.37H195.09Z" fill="black"/>
<path d="M313.05 352.24H273.91V391.32H235.07V430.46H304.49V430.33H313.05V352.24Z" fill="#455A64"/>
<path opacity="0.3" d="M313.05 352.24H273.91V391.32H235.07V430.46H304.49V430.33H313.05V352.24Z" fill="black"/>
<path d="M273.67 274.46H229.32V313.21H273.67V352.12H312.81V313.21V274.46H273.67Z" fill="#E33737"/>
<path opacity="0.3" d="M273.67 274.46H229.32V313.21H273.67V352.12H312.81V313.21V274.46H273.67Z" fill="black"/>
<path d="M184.98 234.27H111.55V313.08H184.98V234.27Z" fill="#E0E0E0"/>
<path opacity="0.3" d="M184.98 234.27H111.55V313.08H184.98V234.27Z" fill="black"/>
<path d="M155.63 234.27H82.2V313.08H155.63V234.27Z" fill="#E0E0E0"/>
<path d="M83.36 430.37V391.93H44.22V430.37V469.51H83.36H122.66V430.37H83.36Z" fill="#E0E0E0"/>
<path d="M161.3 352.48H121.85V313.08H82.7102V352.48H43.4102V391.62H82.7102V430.37H121.85V391.62H161.3V352.48Z" fill="#455A64"/>
<path d="M82.7101 234.27H43.5701V353.09H82.7101V234.27Z" fill="#E33737"/>
<path d="M43.5701 234.27C43.5701 234.27 43.5701 234.48 43.5701 234.87V236.6C43.5701 238.13 43.5701 240.37 43.5701 243.27C43.5701 249.09 43.5701 257.53 43.6401 268.11C43.6401 289.26 43.7101 318.92 43.7601 353.11L43.5101 352.86H82.7101L82.4501 353.12C82.4501 305.47 82.5201 262.77 82.5401 234.3L82.7101 234.47L54.0001 234.35H46.2901H44.2901H43.6001H44.2501H46.2501H53.9301L82.7701 234.26H82.9401V234.43C82.9401 262.9 82.9901 305.6 83.0301 353.25V353.51H43.3101V353.26C43.3101 319.03 43.4001 289.26 43.4301 268.11C43.4301 257.55 43.4901 249.11 43.5001 243.33C43.5001 240.45 43.5001 238.23 43.5001 236.71V235.01C43.5601 234.46 43.5701 234.27 43.5701 234.27Z" fill="#263238"/>
<path d="M161.3 352.12V391.41H122.16V469.51H161.3V430.21H200.59V352.12H161.3Z" fill="#E33737"/>
<path d="M206.36 312.9H200.49H122.25V352.13H200.49V391.17H239.63V312.9H206.36Z" fill="#E0E0E0"/>
<path d="M239.43 274.46H195.09V313.21H239.43V352.12H278.57V313.21V274.46H239.43Z" fill="#E33737"/>
<path d="M278.57 352.24H239.43V391.32H200.59V430.46H270.02V430.33H278.57V352.24Z" fill="#455A64"/>
<path d="M161.08 430.37V469.51H279.38V430.37H161.08Z" fill="#E0E0E0"/>
<path d="M155.54 234.27C155.553 234.4 155.553 234.53 155.54 234.66C155.54 234.95 155.54 235.33 155.54 235.81C155.54 236.81 155.54 238.33 155.59 240.23C155.59 244.1 155.59 249.64 155.67 256.48C155.67 270.23 155.67 289.18 155.74 310.1V313.16H155.48L103.72 313.08L88.2 313H84H82.9C82.7769 313.009 82.6532 313.009 82.53 313C82.653 312.987 82.7771 312.987 82.9 313H84L88.23 312.95L103.81 312.87L155.57 312.79L155.31 313.05V310.25C155.31 289.33 155.37 270.38 155.39 256.63C155.39 249.79 155.45 244.25 155.47 240.38C155.47 238.48 155.47 237 155.52 235.96C155.52 235.48 155.52 235.1 155.52 234.81C155.52 234.52 155.54 234.27 155.54 234.27Z" fill="#263238"/>
<path d="M155.54 312.82C155.54 312.82 156.06 312.82 157.07 312.82H161.53L178.53 312.76L239.45 312.67H239.67V312.89C239.67 335.69 239.67 362.54 239.67 391.39V391.65H200.23V391.39C200.23 377.78 200.23 364.65 200.23 352.2L200.47 352.44L121.83 352.36H121.67V352.2C121.67 339.87 121.67 330.11 121.74 323.42C121.74 320.09 121.74 317.52 121.74 315.78C121.74 314.92 121.74 314.27 121.74 313.78C121.74 313.29 121.74 313.12 121.74 313.12C121.74 313.12 121.74 313.34 121.74 313.78C121.74 314.22 121.74 314.89 121.74 315.78C121.74 317.52 121.74 320.09 121.74 323.42C121.74 330.11 121.74 339.87 121.81 352.2L121.65 352.04L200.29 351.95H200.54V352.2C200.54 364.65 200.54 377.78 200.54 391.39L200.28 391.13H239.22L238.96 391.39C238.96 362.54 238.96 335.69 238.96 312.89L239.18 313.11L178.26 313.01L161.26 312.95H156.8L155.54 312.82Z" fill="#263238"/>
<path d="M312.66 352.26C312.66 352.4 296.25 352.52 276.02 352.52C255.79 352.52 239.37 352.4 239.37 352.26C239.37 352.12 255.77 352 276 352C296.23 352 312.66 352.11 312.66 352.26Z" fill="#263238"/>
<path d="M314.23 430.34C314.23 430.48 280.1 430.6 238 430.6C195.9 430.6 161.76 430.48 161.76 430.34C161.76 430.2 195.88 430.08 238 430.08C280.12 430.08 314.23 430.2 314.23 430.34Z" fill="#263238"/>
<path d="M200.59 392.63C200.74 392.63 200.85 400.97 200.85 411.25C200.85 421.53 200.74 429.87 200.59 429.87C200.44 429.87 200.33 421.53 200.33 411.25C200.33 400.97 200.45 392.63 200.59 392.63Z" fill="#263238"/>
<path d="M161.08 469.54C160.94 469.54 160.82 460.76 160.82 449.94C160.82 439.12 160.94 430.34 161.08 430.34C161.22 430.34 161.34 439.11 161.34 449.94C161.34 460.77 161.23 469.54 161.08 469.54Z" fill="#263238"/>
<path d="M161.3 352.48C161.305 352.54 161.305 352.6 161.3 352.66V353.19C161.3 353.7 161.3 354.39 161.3 355.29C161.3 357.15 161.3 359.83 161.36 363.23C161.36 370.1 161.36 379.86 161.45 391.56V391.79H161.23H122.45H122.18L122.44 391.53C122.44 412.97 122.38 432.36 122.36 446.42C122.36 453.42 122.3 459.1 122.28 463.05C122.28 464.99 122.28 466.51 122.28 467.57C122.28 468.06 122.28 468.45 122.28 468.74C122.293 468.873 122.293 469.007 122.28 469.14C122.267 469.007 122.267 468.873 122.28 468.74C122.28 468.45 122.28 468.06 122.28 467.57C122.28 466.51 122.28 464.99 122.28 463.05C122.28 459.1 122.23 453.42 122.19 446.42C122.19 432.36 122.19 412.97 122.12 391.53V391.27H122.65H161.43L161.2 391.49C161.2 379.79 161.27 370.03 161.29 363.16C161.29 359.76 161.34 357.08 161.36 355.22C161.36 354.32 161.36 353.62 161.36 353.12C161.36 352.9 161.36 352.73 161.36 352.59C161.36 352.45 161.29 352.48 161.3 352.48Z" fill="#263238"/>
<path d="M121.85 430.37H121.66H121.1H118.95L110.85 430.44L82.7102 430.53H82.4602V430.29C82.4602 424.29 82.4602 417.69 82.4602 410.84C82.4602 403.99 82.4602 397.51 82.4602 391.54L82.7102 391.78L54.4602 391.69L46.3302 391.62H44.1602H43.6002H43.4102C43.4102 391.62 43.4802 391.62 43.6002 391.62H44.1602H46.3302L54.4602 391.55L82.7102 391.45H83.0002V391.7C83.0002 397.7 83.0002 404.2 83.0002 411C83.0002 417.8 83.0002 424.43 83.0002 430.45L82.7602 430.2L110.9 430.3L119 430.37H121.15H121.71C121.79 430.35 121.85 430.36 121.85 430.37Z" fill="#263238"/>
<path d="M312.81 274.46C312.677 274.475 312.543 274.475 312.41 274.46H311.22L306.68 274.51L289.98 274.59L234.87 274.67H194.87L195.09 274.45C195.09 285.84 195.02 295.33 195 302C195 305.3 195 307.91 194.94 309.71C194.94 310.58 194.94 311.26 194.94 311.71C194.94 311.93 194.94 312.1 194.94 312.23C194.94 312.36 194.94 312.41 194.94 312.41C194.94 312.41 194.94 312.17 194.94 311.71C194.94 311.25 194.94 310.55 194.94 309.71C194.94 307.91 194.94 305.3 194.88 302C194.88 295.33 194.82 285.84 194.78 274.45V274.22H195.01H235.01L290.12 274.29L306.82 274.38H311.36H312.55L312.81 274.46Z" fill="#263238"/>
</svg>
