<svg width="65" height="64" viewBox="0 0 65 64" fill="none" xmlns="http://www.w3.org/2000/svg">
<path d="M64.3156 32C64.3156 49.6731 49.9887 64 32.3156 64C14.6425 64 0.315613 49.6731 0.315613 32C0.315613 14.3269 14.6425 0 32.3156 0C49.9887 0 64.3156 14.3269 64.3156 32Z" fill="#FBDCDC"/>
<path d="M40.8156 25.0016C40.8156 29.696 37.01 33.5016 32.3156 33.5016C27.6212 33.5016 23.8156 29.696 23.8156 25.0016C23.8156 20.3071 27.6212 16.5016 32.3156 16.5016C37.01 16.5016 40.8156 20.3071 40.8156 25.0016Z" fill="#880D0D"/>
<path d="M47.1261 46.5001H19.6261C19.6261 46.5001 16.1263 33.5 32.6263 33.5C49.1263 33.5 47.1261 46.5001 47.1261 46.5001Z" fill="#880D0D"/>
</svg>
