<svg width="85" height="78" viewBox="0 0 85 78" fill="none" xmlns="http://www.w3.org/2000/svg">
<path d="M79.4335 15.1317C68.3665 -4.33115 48.4335 1.63174 42.4336 12.1316C34.2669 2.63157 15.9335 -4.36835 5.43349 15.1317C-9.62056 43.0893 31.9336 71.1316 42.4336 75.6316C73.4335 56.6317 90.5005 34.5945 79.4335 15.1317Z" fill="#F6B6B6" stroke="#B51111" stroke-width="3"/>
<path d="M14.477 36.1317H4.54341C3.99737 36.1317 3.61179 36.6666 3.78447 37.1846L4.75113 40.0846C4.86002 40.4113 5.16574 40.6317 5.51008 40.6317H17.3977C17.7219 40.6317 18.014 40.436 18.1375 40.1363L20.7642 33.7569C21.0256 33.1222 21.9125 33.0898 22.2195 33.7038L31.2179 51.7006C31.5127 52.2902 32.3542 52.2902 32.649 51.7006L41.2409 34.5169C41.5314 33.9359 42.3566 33.925 42.6623 34.4982L45.7076 40.2081C45.8466 40.4688 46.118 40.6317 46.4135 40.6317H66.4335C66.9858 40.6317 67.4335 40.1839 67.4335 39.6317V37.1317C67.4335 36.5794 66.9858 36.1317 66.4335 36.1317H48.89C48.6071 36.1317 48.3452 35.9822 48.2012 35.7386L42.6718 26.3811C42.3513 25.8387 41.5587 25.8625 41.2712 26.4231L32.6281 43.2772C32.334 43.8506 31.5173 43.8588 31.2118 43.2914L22.1055 26.3797C21.8102 25.8313 21.0292 25.8158 20.7124 26.352L15.1657 35.7386C15.0218 35.9822 14.7599 36.1317 14.477 36.1317Z" fill="#E21515"/>
</svg>
