<svg width="85" height="78" viewBox="0 0 85 78" fill="none" xmlns="http://www.w3.org/2000/svg">
<path d="M79.4338 15.1317C68.3668 -4.33115 48.4337 1.63174 42.4338 12.1316C34.2671 2.63157 15.9337 -4.36835 5.43374 15.1317C-9.62032 43.0893 31.9338 71.1316 42.4338 75.6316C73.4337 56.6317 90.5007 34.5945 79.4338 15.1317Z" fill="#F6B6B6" stroke="#B51111" stroke-width="3"/>
<path d="M14.4771 36.1317H4.54353C3.99749 36.1317 3.61191 36.6666 3.78459 37.1846L4.75125 40.0846C4.86015 40.4113 5.16586 40.6317 5.5102 40.6317H17.3978C17.722 40.6317 18.0142 40.436 18.1376 40.1363L20.7644 33.7569C21.0257 33.1222 21.9127 33.0898 22.2196 33.7038L31.2181 51.7006C31.5129 52.2902 32.3543 52.2902 32.6491 51.7006L41.241 34.5169C41.5315 33.9359 42.3567 33.925 42.6624 34.4982L45.7077 40.2081C45.8467 40.4688 46.1181 40.6317 46.4136 40.6317H66.4336C66.9859 40.6317 67.4336 40.1839 67.4336 39.6317V37.1317C67.4336 36.5794 66.9859 36.1317 66.4336 36.1317H48.8901C48.6072 36.1317 48.3453 35.9822 48.2014 35.7386L42.6719 26.3811C42.3514 25.8387 41.5588 25.8625 41.2713 26.4231L32.6282 43.2772C32.3341 43.8506 31.5175 43.8588 31.2119 43.2914L22.1056 26.3797C21.8103 25.8313 21.0293 25.8158 20.7125 26.352L15.1658 35.7386C15.0219 35.9822 14.76 36.1317 14.4771 36.1317Z" fill="#E21515"/>
</svg>
