<svg width="117" height="64" viewBox="0 0 117 64" fill="none" xmlns="http://www.w3.org/2000/svg">
<g clip-path="url(#clip0_457_611)">
<path d="M108.315 32C108.315 49.6731 93.9885 64 76.3154 64C58.6423 64 44.3154 49.6731 44.3154 32C44.3154 14.3269 58.6423 0 76.3154 0C93.9885 0 108.315 14.3269 108.315 32Z" fill="#FBDCDC"/>
<path d="M84.8154 25.0016C84.8154 29.696 81.0098 33.5016 76.3154 33.5016C71.621 33.5016 67.8154 29.696 67.8154 25.0016C67.8154 20.3071 71.621 16.5016 76.3154 16.5016C81.0098 16.5016 84.8154 20.3071 84.8154 25.0016Z" fill="#880D0D"/>
<path d="M91.1259 46.5001H63.6259C63.6259 46.5001 60.1261 33.5 76.6261 33.5C93.1261 33.5 91.1259 46.5001 91.1259 46.5001Z" fill="#880D0D"/>
</g>
<defs>
<clipPath id="clip0_457_611">
<rect width="116" height="64" fill="white" transform="translate(0.81543)"/>
</clipPath>
</defs>
</svg>
